# Wavefront OBJ generated for Godot 4 3D
v -0.4500 0.0000 1.7500
v 0.4500 0.0000 1.7500
v 0.4500 0.3000 1.7500
v -0.4500 0.3000 1.7500
v 0.4500 0.0000 -1.7500
v -0.4500 0.0000 -1.7500
v -0.4500 0.3000 -1.7500
v 0.4500 0.3000 -1.7500
v 0.4500 0.0000 1.7500
v 0.4500 0.0000 -1.7500
v 0.4500 0.3000 -1.7500
v 0.4500 0.3000 1.7500
v -0.4500 0.0000 -1.7500
v -0.4500 0.0000 1.7500
v -0.4500 0.3000 1.7500
v -0.4500 0.3000 -1.7500
v -0.4500 0.3000 1.7500
v 0.4500 0.3000 1.7500
v 0.4500 0.3000 -1.7500
v -0.4500 0.3000 -1.7500
v -0.4500 0.0000 -1.7500
v 0.4500 0.0000 -1.7500
v 0.4500 0.0000 1.7500
v -0.4500 0.0000 1.7500
v -0.1900 0.2500 1.7500
v 0.1900 0.2500 1.7500
v 0.1900 2.2500 1.7500
v -0.1900 2.2500 1.7500
v 0.1900 0.2500 -1.7500
v -0.1900 0.2500 -1.7500
v -0.1900 2.2500 -1.7500
v 0.1900 2.2500 -1.7500
v 0.1900 0.2500 1.7500
v 0.1900 0.2500 -1.7500
v 0.1900 2.2500 -1.7500
v 0.1900 2.2500 1.7500
v -0.1900 0.2500 -1.7500
v -0.1900 0.2500 1.7500
v -0.1900 2.2500 1.7500
v -0.1900 2.2500 -1.7500
v -0.1900 2.2500 1.7500
v 0.1900 2.2500 1.7500
v 0.1900 2.2500 -1.7500
v -0.1900 2.2500 -1.7500
v -0.1900 0.2500 -1.7500
v 0.1900 0.2500 -1.7500
v 0.1900 0.2500 1.7500
v -0.1900 0.2500 1.7500
v -0.1500 2.2400 1.7400
v 0.1500 2.2400 1.7400
v 0.1500 2.3200 1.7400
v -0.1500 2.3200 1.7400
v 0.1500 2.2400 -1.7400
v -0.1500 2.2400 -1.7400
v -0.1500 2.3200 -1.7400
v 0.1500 2.3200 -1.7400
v 0.1500 2.2400 1.7400
v 0.1500 2.2400 -1.7400
v 0.1500 2.3200 -1.7400
v 0.1500 2.3200 1.7400
v -0.1500 2.2400 -1.7400
v -0.1500 2.2400 1.7400
v -0.1500 2.3200 1.7400
v -0.1500 2.3200 -1.7400
v -0.1500 2.3200 1.7400
v 0.1500 2.3200 1.7400
v 0.1500 2.3200 -1.7400
v -0.1500 2.3200 -1.7400
v -0.1500 2.2400 -1.7400
v 0.1500 2.2400 -1.7400
v 0.1500 2.2400 1.7400
v -0.1500 2.2400 1.7400
v -0.0200 2.3200 -0.9600
v 0.0200 2.3200 -0.9600
v 0.0200 2.4400 -0.9600
v -0.0200 2.4400 -0.9600
v 0.0200 2.3200 -1.0400
v -0.0200 2.3200 -1.0400
v -0.0200 2.4400 -1.0400
v 0.0200 2.4400 -1.0400
v 0.0200 2.3200 -0.9600
v 0.0200 2.3200 -1.0400
v 0.0200 2.4400 -1.0400
v 0.0200 2.4400 -0.9600
v -0.0200 2.3200 -1.0400
v -0.0200 2.3200 -0.9600
v -0.0200 2.4400 -0.9600
v -0.0200 2.4400 -1.0400
v -0.0200 2.4400 -0.9600
v 0.0200 2.4400 -0.9600
v 0.0200 2.4400 -1.0400
v -0.0200 2.4400 -1.0400
v -0.0200 2.3200 -1.0400
v 0.0200 2.3200 -1.0400
v 0.0200 2.3200 -0.9600
v -0.0200 2.3200 -0.9600
v -0.0200 2.3200 1.0400
v 0.0200 2.3200 1.0400
v 0.0200 2.4400 1.0400
v -0.0200 2.4400 1.0400
v 0.0200 2.3200 0.9600
v -0.0200 2.3200 0.9600
v -0.0200 2.4400 0.9600
v 0.0200 2.4400 0.9600
v 0.0200 2.3200 1.0400
v 0.0200 2.3200 0.9600
v 0.0200 2.4400 0.9600
v 0.0200 2.4400 1.0400
v -0.0200 2.3200 0.9600
v -0.0200 2.3200 1.0400
v -0.0200 2.4400 1.0400
v -0.0200 2.4400 0.9600
v -0.0200 2.4400 1.0400
v 0.0200 2.4400 1.0400
v 0.0200 2.4400 0.9600
v -0.0200 2.4400 0.9600
v -0.0200 2.3200 0.9600
v 0.0200 2.3200 0.9600
v 0.0200 2.3200 1.0400
v -0.0200 2.3200 1.0400
vt 0.0000 0.0000
vt 3.5000 0.0000
vt 3.5000 0.5000
vt 0.0000 0.5000
vt 0.0000 0.0000
vt 3.5000 0.0000
vt 3.5000 2.0000
vt 0.0000 2.0000
vt 0.0000 0.0000
vt 3.5000 0.0000
vt 3.5000 0.3000
vt 0.0000 0.3000
vt 0.0000 0.0000
vt 1.0000 0.0000
vt 1.0000 1.0000
vt 0.0000 1.0000
vt 0.0000 0.0000
vt 1.0000 0.0000
vt 1.0000 1.0000
vt 0.0000 1.0000
vn 0.0000 0.0000 1.0000
vn 0.0000 0.0000 -1.0000
vn 1.0000 0.0000 0.0000
vn -1.0000 0.0000 0.0000
vn 0.0000 1.0000 0.0000
vn 0.0000 -1.0000 0.0000
vn 0.0000 0.0000 1.0000
vn 0.0000 0.0000 -1.0000
vn 1.0000 0.0000 0.0000
vn -1.0000 0.0000 0.0000
vn 0.0000 1.0000 0.0000
vn 0.0000 -1.0000 0.0000
vn 0.0000 0.0000 1.0000
vn 0.0000 0.0000 -1.0000
vn 1.0000 0.0000 0.0000
vn -1.0000 0.0000 0.0000
vn 0.0000 1.0000 0.0000
vn 0.0000 -1.0000 0.0000
vn 0.0000 0.0000 1.0000
vn 0.0000 0.0000 -1.0000
vn 1.0000 0.0000 0.0000
vn -1.0000 0.0000 0.0000
vn 0.0000 1.0000 0.0000
vn 0.0000 -1.0000 0.0000
vn 0.0000 0.0000 1.0000
vn 0.0000 0.0000 -1.0000
vn 1.0000 0.0000 0.0000
vn -1.0000 0.0000 0.0000
vn 0.0000 1.0000 0.0000
vn 0.0000 -1.0000 0.0000
f 1/1/1 2/2/1 3/3/1
f 1/1/1 3/3/1 4/4/1
f 5/1/2 6/2/2 7/3/2
f 5/1/2 7/3/2 8/4/2
f 9/1/3 10/2/3 11/3/3
f 9/1/3 11/3/3 12/4/3
f 13/1/4 14/2/4 15/3/4
f 13/1/4 15/3/4 16/4/4
f 17/1/5 18/2/5 19/3/5
f 17/1/5 19/3/5 20/4/5
f 21/1/6 22/2/6 23/3/6
f 21/1/6 23/3/6 24/4/6
f 25/5/7 26/6/7 27/7/7
f 25/5/7 27/7/7 28/8/7
f 29/5/8 30/6/8 31/7/8
f 29/5/8 31/7/8 32/8/8
f 33/5/9 34/6/9 35/7/9
f 33/5/9 35/7/9 36/8/9
f 37/5/10 38/6/10 39/7/10
f 37/5/10 39/7/10 40/8/10
f 41/5/11 42/6/11 43/7/11
f 41/5/11 43/7/11 44/8/11
f 45/5/12 46/6/12 47/7/12
f 45/5/12 47/7/12 48/8/12
f 49/9/13 50/10/13 51/11/13
f 49/9/13 51/11/13 52/12/13
f 53/9/14 54/10/14 55/11/14
f 53/9/14 55/11/14 56/12/14
f 57/9/15 58/10/15 59/11/15
f 57/9/15 59/11/15 60/12/15
f 61/9/16 62/10/16 63/11/16
f 61/9/16 63/11/16 64/12/16
f 65/9/17 66/10/17 67/11/17
f 65/9/17 67/11/17 68/12/17
f 69/9/18 70/10/18 71/11/18
f 69/9/18 71/11/18 72/12/18
f 73/13/19 74/14/19 75/15/19
f 73/13/19 75/15/19 76/16/19
f 77/13/20 78/14/20 79/15/20
f 77/13/20 79/15/20 80/16/20
f 81/13/21 82/14/21 83/15/21
f 81/13/21 83/15/21 84/16/21
f 85/13/22 86/14/22 87/15/22
f 85/13/22 87/15/22 88/16/22
f 89/13/23 90/14/23 91/15/23
f 89/13/23 91/15/23 92/16/23
f 93/13/24 94/14/24 95/15/24
f 93/13/24 95/15/24 96/16/24
f 97/17/25 98/18/25 99/19/25
f 97/17/25 99/19/25 100/20/25
f 101/17/26 102/18/26 103/19/26
f 101/17/26 103/19/26 104/20/26
f 105/17/27 106/18/27 107/19/27
f 105/17/27 107/19/27 108/20/27
f 109/17/28 110/18/28 111/19/28
f 109/17/28 111/19/28 112/20/28
f 113/17/29 114/18/29 115/19/29
f 113/17/29 115/19/29 116/20/29
f 117/17/30 118/18/30 119/19/30
f 117/17/30 119/19/30 120/20/30
