# Wavefront OBJ generated for Godot 4 3D
v -0.5700 0.0100 0.4000
v -0.4700 0.0100 0.4000
v -0.4700 0.0900 0.4000
v -0.5700 0.0900 0.4000
v -0.4700 0.0100 -0.4000
v -0.5700 0.0100 -0.4000
v -0.5700 0.0900 -0.4000
v -0.4700 0.0900 -0.4000
v -0.4700 0.0100 0.4000
v -0.4700 0.0100 -0.4000
v -0.4700 0.0900 -0.4000
v -0.4700 0.0900 0.4000
v -0.5700 0.0100 -0.4000
v -0.5700 0.0100 0.4000
v -0.5700 0.0900 0.4000
v -0.5700 0.0900 -0.4000
v -0.5700 0.0900 0.4000
v -0.4700 0.0900 0.4000
v -0.4700 0.0900 -0.4000
v -0.5700 0.0900 -0.4000
v -0.5700 0.0100 -0.4000
v -0.4700 0.0100 -0.4000
v -0.4700 0.0100 0.4000
v -0.5700 0.0100 0.4000
v -0.0500 0.0100 0.4000
v 0.0500 0.0100 0.4000
v 0.0500 0.0900 0.4000
v -0.0500 0.0900 0.4000
v 0.0500 0.0100 -0.4000
v -0.0500 0.0100 -0.4000
v -0.0500 0.0900 -0.4000
v 0.0500 0.0900 -0.4000
v 0.0500 0.0100 0.4000
v 0.0500 0.0100 -0.4000
v 0.0500 0.0900 -0.4000
v 0.0500 0.0900 0.4000
v -0.0500 0.0100 -0.4000
v -0.0500 0.0100 0.4000
v -0.0500 0.0900 0.4000
v -0.0500 0.0900 -0.4000
v -0.0500 0.0900 0.4000
v 0.0500 0.0900 0.4000
v 0.0500 0.0900 -0.4000
v -0.0500 0.0900 -0.4000
v -0.0500 0.0100 -0.4000
v 0.0500 0.0100 -0.4000
v 0.0500 0.0100 0.4000
v -0.0500 0.0100 0.4000
v 0.4700 0.0100 0.4000
v 0.5700 0.0100 0.4000
v 0.5700 0.0900 0.4000
v 0.4700 0.0900 0.4000
v 0.5700 0.0100 -0.4000
v 0.4700 0.0100 -0.4000
v 0.4700 0.0900 -0.4000
v 0.5700 0.0900 -0.4000
v 0.5700 0.0100 0.4000
v 0.5700 0.0100 -0.4000
v 0.5700 0.0900 -0.4000
v 0.5700 0.0900 0.4000
v 0.4700 0.0100 -0.4000
v 0.4700 0.0100 0.4000
v 0.4700 0.0900 0.4000
v 0.4700 0.0900 -0.4000
v 0.4700 0.0900 0.4000
v 0.5700 0.0900 0.4000
v 0.5700 0.0900 -0.4000
v 0.4700 0.0900 -0.4000
v 0.4700 0.0100 -0.4000
v 0.5700 0.0100 -0.4000
v 0.5700 0.0100 0.4000
v 0.4700 0.0100 0.4000
v -0.6000 0.0000 -0.2900
v 0.6000 0.0000 -0.2900
v 0.6000 0.0200 -0.2900
v -0.6000 0.0200 -0.2900
v 0.6000 0.0000 -0.3900
v -0.6000 0.0000 -0.3900
v -0.6000 0.0200 -0.3900
v 0.6000 0.0200 -0.3900
v 0.6000 0.0000 -0.2900
v 0.6000 0.0000 -0.3900
v 0.6000 0.0200 -0.3900
v 0.6000 0.0200 -0.2900
v -0.6000 0.0000 -0.3900
v -0.6000 0.0000 -0.2900
v -0.6000 0.0200 -0.2900
v -0.6000 0.0200 -0.3900
v -0.6000 0.0200 -0.2900
v 0.6000 0.0200 -0.2900
v 0.6000 0.0200 -0.3900
v -0.6000 0.0200 -0.3900
v -0.6000 0.0000 -0.3900
v 0.6000 0.0000 -0.3900
v 0.6000 0.0000 -0.2900
v -0.6000 0.0000 -0.2900
v -0.6000 0.0000 0.0500
v 0.6000 0.0000 0.0500
v 0.6000 0.0200 0.0500
v -0.6000 0.0200 0.0500
v 0.6000 0.0000 -0.0500
v -0.6000 0.0000 -0.0500
v -0.6000 0.0200 -0.0500
v 0.6000 0.0200 -0.0500
v 0.6000 0.0000 0.0500
v 0.6000 0.0000 -0.0500
v 0.6000 0.0200 -0.0500
v 0.6000 0.0200 0.0500
v -0.6000 0.0000 -0.0500
v -0.6000 0.0000 0.0500
v -0.6000 0.0200 0.0500
v -0.6000 0.0200 -0.0500
v -0.6000 0.0200 0.0500
v 0.6000 0.0200 0.0500
v 0.6000 0.0200 -0.0500
v -0.6000 0.0200 -0.0500
v -0.6000 0.0000 -0.0500
v 0.6000 0.0000 -0.0500
v 0.6000 0.0000 0.0500
v -0.6000 0.0000 0.0500
v -0.6000 0.0000 0.3900
v 0.6000 0.0000 0.3900
v 0.6000 0.0200 0.3900
v -0.6000 0.0200 0.3900
v 0.6000 0.0000 0.2900
v -0.6000 0.0000 0.2900
v -0.6000 0.0200 0.2900
v 0.6000 0.0200 0.2900
v 0.6000 0.0000 0.3900
v 0.6000 0.0000 0.2900
v 0.6000 0.0200 0.2900
v 0.6000 0.0200 0.3900
v -0.6000 0.0000 0.2900
v -0.6000 0.0000 0.3900
v -0.6000 0.0200 0.3900
v -0.6000 0.0200 0.2900
v -0.6000 0.0200 0.3900
v 0.6000 0.0200 0.3900
v 0.6000 0.0200 0.2900
v -0.6000 0.0200 0.2900
v -0.6000 0.0000 0.2900
v 0.6000 0.0000 0.2900
v 0.6000 0.0000 0.3900
v -0.6000 0.0000 0.3900
v -0.6000 0.0890 -0.2850
v 0.6000 0.0890 -0.2850
v 0.6000 0.1110 -0.2850
v -0.6000 0.1110 -0.2850
v 0.6000 0.0890 -0.3950
v -0.6000 0.0890 -0.3950
v -0.6000 0.1110 -0.3950
v 0.6000 0.1110 -0.3950
v 0.6000 0.0890 -0.2850
v 0.6000 0.0890 -0.3950
v 0.6000 0.1110 -0.3950
v 0.6000 0.1110 -0.2850
v -0.6000 0.0890 -0.3950
v -0.6000 0.0890 -0.2850
v -0.6000 0.1110 -0.2850
v -0.6000 0.1110 -0.3950
v -0.6000 0.1110 -0.2850
v 0.6000 0.1110 -0.2850
v 0.6000 0.1110 -0.3950
v -0.6000 0.1110 -0.3950
v -0.6000 0.0890 -0.3950
v 0.6000 0.0890 -0.3950
v 0.6000 0.0890 -0.2850
v -0.6000 0.0890 -0.2850
v -0.6000 0.0890 -0.1150
v 0.6000 0.0890 -0.1150
v 0.6000 0.1110 -0.1150
v -0.6000 0.1110 -0.1150
v 0.6000 0.0890 -0.2250
v -0.6000 0.0890 -0.2250
v -0.6000 0.1110 -0.2250
v 0.6000 0.1110 -0.2250
v 0.6000 0.0890 -0.1150
v 0.6000 0.0890 -0.2250
v 0.6000 0.1110 -0.2250
v 0.6000 0.1110 -0.1150
v -0.6000 0.0890 -0.2250
v -0.6000 0.0890 -0.1150
v -0.6000 0.1110 -0.1150
v -0.6000 0.1110 -0.2250
v -0.6000 0.1110 -0.1150
v 0.6000 0.1110 -0.1150
v 0.6000 0.1110 -0.2250
v -0.6000 0.1110 -0.2250
v -0.6000 0.0890 -0.2250
v 0.6000 0.0890 -0.2250
v 0.6000 0.0890 -0.1150
v -0.6000 0.0890 -0.1150
v -0.6000 0.0890 0.0550
v 0.6000 0.0890 0.0550
v 0.6000 0.1110 0.0550
v -0.6000 0.1110 0.0550
v 0.6000 0.0890 -0.0550
v -0.6000 0.0890 -0.0550
v -0.6000 0.1110 -0.0550
v 0.6000 0.1110 -0.0550
v 0.6000 0.0890 0.0550
v 0.6000 0.0890 -0.0550
v 0.6000 0.1110 -0.0550
v 0.6000 0.1110 0.0550
v -0.6000 0.0890 -0.0550
v -0.6000 0.0890 0.0550
v -0.6000 0.1110 0.0550
v -0.6000 0.1110 -0.0550
v -0.6000 0.1110 0.0550
v 0.6000 0.1110 0.0550
v 0.6000 0.1110 -0.0550
v -0.6000 0.1110 -0.0550
v -0.6000 0.0890 -0.0550
v 0.6000 0.0890 -0.0550
v 0.6000 0.0890 0.0550
v -0.6000 0.0890 0.0550
v -0.6000 0.0890 0.2250
v 0.6000 0.0890 0.2250
v 0.6000 0.1110 0.2250
v -0.6000 0.1110 0.2250
v 0.6000 0.0890 0.1150
v -0.6000 0.0890 0.1150
v -0.6000 0.1110 0.1150
v 0.6000 0.1110 0.1150
v 0.6000 0.0890 0.2250
v 0.6000 0.0890 0.1150
v 0.6000 0.1110 0.1150
v 0.6000 0.1110 0.2250
v -0.6000 0.0890 0.1150
v -0.6000 0.0890 0.2250
v -0.6000 0.1110 0.2250
v -0.6000 0.1110 0.1150
v -0.6000 0.1110 0.2250
v 0.6000 0.1110 0.2250
v 0.6000 0.1110 0.1150
v -0.6000 0.1110 0.1150
v -0.6000 0.0890 0.1150
v 0.6000 0.0890 0.1150
v 0.6000 0.0890 0.2250
v -0.6000 0.0890 0.2250
v -0.6000 0.0890 0.3950
v 0.6000 0.0890 0.3950
v 0.6000 0.1110 0.3950
v -0.6000 0.1110 0.3950
v 0.6000 0.0890 0.2850
v -0.6000 0.0890 0.2850
v -0.6000 0.1110 0.2850
v 0.6000 0.1110 0.2850
v 0.6000 0.0890 0.3950
v 0.6000 0.0890 0.2850
v 0.6000 0.1110 0.2850
v 0.6000 0.1110 0.3950
v -0.6000 0.0890 0.2850
v -0.6000 0.0890 0.3950
v -0.6000 0.1110 0.3950
v -0.6000 0.1110 0.2850
v -0.6000 0.1110 0.3950
v 0.6000 0.1110 0.3950
v 0.6000 0.1110 0.2850
v -0.6000 0.1110 0.2850
v -0.6000 0.0890 0.2850
v 0.6000 0.0890 0.2850
v 0.6000 0.0890 0.3950
v -0.6000 0.0890 0.3950
vt 0.0000 0.0000
vt 1.0000 0.0000
vt 1.0000 1.0000
vt 0.0000 1.0000
vt 0.0000 0.0000
vt 1.0000 0.0000
vt 1.0000 1.0000
vt 0.0000 1.0000
vt 0.0000 0.0000
vt 1.0000 0.0000
vt 1.0000 1.0000
vt 0.0000 1.0000
vt 0.0000 0.0000
vt 1.0000 0.0000
vt 1.0000 1.0000
vt 0.0000 1.0000
vt 0.0000 0.0000
vt 1.0000 0.0000
vt 1.0000 1.0000
vt 0.0000 1.0000
vt 0.0000 0.0000
vt 1.0000 0.0000
vt 1.0000 1.0000
vt 0.0000 1.0000
vt 0.0000 0.0000
vt 1.0000 0.0000
vt 1.0000 1.0000
vt 0.0000 1.0000
vt 0.0000 0.0000
vt 1.0000 0.0000
vt 1.0000 1.0000
vt 0.0000 1.0000
vt 0.0000 0.0000
vt 1.0000 0.0000
vt 1.0000 1.0000
vt 0.0000 1.0000
vt 0.0000 0.0000
vt 1.0000 0.0000
vt 1.0000 1.0000
vt 0.0000 1.0000
vt 0.0000 0.0000
vt 1.0000 0.0000
vt 1.0000 1.0000
vt 0.0000 1.0000
vn 0.0000 0.0000 1.0000
vn 0.0000 0.0000 -1.0000
vn 1.0000 0.0000 0.0000
vn -1.0000 0.0000 0.0000
vn 0.0000 1.0000 0.0000
vn 0.0000 -1.0000 0.0000
vn 0.0000 0.0000 1.0000
vn 0.0000 0.0000 -1.0000
vn 1.0000 0.0000 0.0000
vn -1.0000 0.0000 0.0000
vn 0.0000 1.0000 0.0000
vn 0.0000 -1.0000 0.0000
vn 0.0000 0.0000 1.0000
vn 0.0000 0.0000 -1.0000
vn 1.0000 0.0000 0.0000
vn -1.0000 0.0000 0.0000
vn 0.0000 1.0000 0.0000
vn 0.0000 -1.0000 0.0000
vn 0.0000 0.0000 1.0000
vn 0.0000 0.0000 -1.0000
vn 1.0000 0.0000 0.0000
vn -1.0000 0.0000 0.0000
vn 0.0000 1.0000 0.0000
vn 0.0000 -1.0000 0.0000
vn 0.0000 0.0000 1.0000
vn 0.0000 0.0000 -1.0000
vn 1.0000 0.0000 0.0000
vn -1.0000 0.0000 0.0000
vn 0.0000 1.0000 0.0000
vn 0.0000 -1.0000 0.0000
vn 0.0000 0.0000 1.0000
vn 0.0000 0.0000 -1.0000
vn 1.0000 0.0000 0.0000
vn -1.0000 0.0000 0.0000
vn 0.0000 1.0000 0.0000
vn 0.0000 -1.0000 0.0000
vn 0.0000 0.0000 1.0000
vn 0.0000 0.0000 -1.0000
vn 1.0000 0.0000 0.0000
vn -1.0000 0.0000 0.0000
vn 0.0000 1.0000 0.0000
vn 0.0000 -1.0000 0.0000
vn 0.0000 0.0000 1.0000
vn 0.0000 0.0000 -1.0000
vn 1.0000 0.0000 0.0000
vn -1.0000 0.0000 0.0000
vn 0.0000 1.0000 0.0000
vn 0.0000 -1.0000 0.0000
vn 0.0000 0.0000 1.0000
vn 0.0000 0.0000 -1.0000
vn 1.0000 0.0000 0.0000
vn -1.0000 0.0000 0.0000
vn 0.0000 1.0000 0.0000
vn 0.0000 -1.0000 0.0000
vn 0.0000 0.0000 1.0000
vn 0.0000 0.0000 -1.0000
vn 1.0000 0.0000 0.0000
vn -1.0000 0.0000 0.0000
vn 0.0000 1.0000 0.0000
vn 0.0000 -1.0000 0.0000
vn 0.0000 0.0000 1.0000
vn 0.0000 0.0000 -1.0000
vn 1.0000 0.0000 0.0000
vn -1.0000 0.0000 0.0000
vn 0.0000 1.0000 0.0000
vn 0.0000 -1.0000 0.0000
f 1/1/1 2/2/1 3/3/1
f 1/1/1 3/3/1 4/4/1
f 5/1/2 6/2/2 7/3/2
f 5/1/2 7/3/2 8/4/2
f 9/1/3 10/2/3 11/3/3
f 9/1/3 11/3/3 12/4/3
f 13/1/4 14/2/4 15/3/4
f 13/1/4 15/3/4 16/4/4
f 17/1/5 18/2/5 19/3/5
f 17/1/5 19/3/5 20/4/5
f 21/1/6 22/2/6 23/3/6
f 21/1/6 23/3/6 24/4/6
f 25/5/7 26/6/7 27/7/7
f 25/5/7 27/7/7 28/8/7
f 29/5/8 30/6/8 31/7/8
f 29/5/8 31/7/8 32/8/8
f 33/5/9 34/6/9 35/7/9
f 33/5/9 35/7/9 36/8/9
f 37/5/10 38/6/10 39/7/10
f 37/5/10 39/7/10 40/8/10
f 41/5/11 42/6/11 43/7/11
f 41/5/11 43/7/11 44/8/11
f 45/5/12 46/6/12 47/7/12
f 45/5/12 47/7/12 48/8/12
f 49/9/13 50/10/13 51/11/13
f 49/9/13 51/11/13 52/12/13
f 53/9/14 54/10/14 55/11/14
f 53/9/14 55/11/14 56/12/14
f 57/9/15 58/10/15 59/11/15
f 57/9/15 59/11/15 60/12/15
f 61/9/16 62/10/16 63/11/16
f 61/9/16 63/11/16 64/12/16
f 65/9/17 66/10/17 67/11/17
f 65/9/17 67/11/17 68/12/17
f 69/9/18 70/10/18 71/11/18
f 69/9/18 71/11/18 72/12/18
f 73/13/19 74/14/19 75/15/19
f 73/13/19 75/15/19 76/16/19
f 77/13/20 78/14/20 79/15/20
f 77/13/20 79/15/20 80/16/20
f 81/13/21 82/14/21 83/15/21
f 81/13/21 83/15/21 84/16/21
f 85/13/22 86/14/22 87/15/22
f 85/13/22 87/15/22 88/16/22
f 89/13/23 90/14/23 91/15/23
f 89/13/23 91/15/23 92/16/23
f 93/13/24 94/14/24 95/15/24
f 93/13/24 95/15/24 96/16/24
f 97/17/25 98/18/25 99/19/25
f 97/17/25 99/19/25 100/20/25
f 101/17/26 102/18/26 103/19/26
f 101/17/26 103/19/26 104/20/26
f 105/17/27 106/18/27 107/19/27
f 105/17/27 107/19/27 108/20/27
f 109/17/28 110/18/28 111/19/28
f 109/17/28 111/19/28 112/20/28
f 113/17/29 114/18/29 115/19/29
f 113/17/29 115/19/29 116/20/29
f 117/17/30 118/18/30 119/19/30
f 117/17/30 119/19/30 120/20/30
f 121/21/31 122/22/31 123/23/31
f 121/21/31 123/23/31 124/24/31
f 125/21/32 126/22/32 127/23/32
f 125/21/32 127/23/32 128/24/32
f 129/21/33 130/22/33 131/23/33
f 129/21/33 131/23/33 132/24/33
f 133/21/34 134/22/34 135/23/34
f 133/21/34 135/23/34 136/24/34
f 137/21/35 138/22/35 139/23/35
f 137/21/35 139/23/35 140/24/35
f 141/21/36 142/22/36 143/23/36
f 141/21/36 143/23/36 144/24/36
f 145/25/37 146/26/37 147/27/37
f 145/25/37 147/27/37 148/28/37
f 149/25/38 150/26/38 151/27/38
f 149/25/38 151/27/38 152/28/38
f 153/25/39 154/26/39 155/27/39
f 153/25/39 155/27/39 156/28/39
f 157/25/40 158/26/40 159/27/40
f 157/25/40 159/27/40 160/28/40
f 161/25/41 162/26/41 163/27/41
f 161/25/41 163/27/41 164/28/41
f 165/25/42 166/26/42 167/27/42
f 165/25/42 167/27/42 168/28/42
f 169/29/43 170/30/43 171/31/43
f 169/29/43 171/31/43 172/32/43
f 173/29/44 174/30/44 175/31/44
f 173/29/44 175/31/44 176/32/44
f 177/29/45 178/30/45 179/31/45
f 177/29/45 179/31/45 180/32/45
f 181/29/46 182/30/46 183/31/46
f 181/29/46 183/31/46 184/32/46
f 185/29/47 186/30/47 187/31/47
f 185/29/47 187/31/47 188/32/47
f 189/29/48 190/30/48 191/31/48
f 189/29/48 191/31/48 192/32/48
f 193/33/49 194/34/49 195/35/49
f 193/33/49 195/35/49 196/36/49
f 197/33/50 198/34/50 199/35/50
f 197/33/50 199/35/50 200/36/50
f 201/33/51 202/34/51 203/35/51
f 201/33/51 203/35/51 204/36/51
f 205/33/52 206/34/52 207/35/52
f 205/33/52 207/35/52 208/36/52
f 209/33/53 210/34/53 211/35/53
f 209/33/53 211/35/53 212/36/53
f 213/33/54 214/34/54 215/35/54
f 213/33/54 215/35/54 216/36/54
f 217/37/55 218/38/55 219/39/55
f 217/37/55 219/39/55 220/40/55
f 221/37/56 222/38/56 223/39/56
f 221/37/56 223/39/56 224/40/56
f 225/37/57 226/38/57 227/39/57
f 225/37/57 227/39/57 228/40/57
f 229/37/58 230/38/58 231/39/58
f 229/37/58 231/39/58 232/40/58
f 233/37/59 234/38/59 235/39/59
f 233/37/59 235/39/59 236/40/59
f 237/37/60 238/38/60 239/39/60
f 237/37/60 239/39/60 240/40/60
f 241/41/61 242/42/61 243/43/61
f 241/41/61 243/43/61 244/44/61
f 245/41/62 246/42/62 247/43/62
f 245/41/62 247/43/62 248/44/62
f 249/41/63 250/42/63 251/43/63
f 249/41/63 251/43/63 252/44/63
f 253/41/64 254/42/64 255/43/64
f 253/41/64 255/43/64 256/44/64
f 257/41/65 258/42/65 259/43/65
f 257/41/65 259/43/65 260/44/65
f 261/41/66 262/42/66 263/43/66
f 261/41/66 263/43/66 264/44/66
