# Generated Boss Asset
mtllib boss.mtl
v -1.3500 0.0000 0.4500
v -0.4500 0.0000 0.4500
v -0.4500 1.8000 0.4500
v -1.3500 1.8000 0.4500
v -0.4500 0.0000 -0.4500
v -1.3500 0.0000 -0.4500
v -1.3500 1.8000 -0.4500
v -0.4500 1.8000 -0.4500
v -0.4500 0.0000 0.4500
v -0.4500 0.0000 -0.4500
v -0.4500 1.8000 -0.4500
v -0.4500 1.8000 0.4500
v -1.3500 0.0000 -0.4500
v -1.3500 0.0000 0.4500
v -1.3500 1.8000 0.4500
v -1.3500 1.8000 -0.4500
v -1.3500 1.8000 0.4500
v -0.4500 1.8000 0.4500
v -0.4500 1.8000 -0.4500
v -1.3500 1.8000 -0.4500
v -1.3500 0.0000 -0.4500
v -0.4500 0.0000 -0.4500
v -0.4500 0.0000 0.4500
v -1.3500 0.0000 0.4500
v -1.4250 0.0000 0.8000
v -0.3750 0.0000 0.8000
v -0.3750 0.4000 0.8000
v -1.4250 0.4000 0.8000
v -0.3750 0.0000 -0.4000
v -1.4250 0.0000 -0.4000
v -1.4250 0.4000 -0.4000
v -0.3750 0.4000 -0.4000
v -0.3750 0.0000 0.8000
v -0.3750 0.0000 -0.4000
v -0.3750 0.4000 -0.4000
v -0.3750 0.4000 0.8000
v -1.4250 0.0000 -0.4000
v -1.4250 0.0000 0.8000
v -1.4250 0.4000 0.8000
v -1.4250 0.4000 -0.4000
v -1.4250 0.4000 0.8000
v -0.3750 0.4000 0.8000
v -0.3750 0.4000 -0.4000
v -1.4250 0.4000 -0.4000
v -1.4250 0.0000 -0.4000
v -0.3750 0.0000 -0.4000
v -0.3750 0.0000 0.8000
v -1.4250 0.0000 0.8000
v 0.4500 0.0000 0.4500
v 1.3500 0.0000 0.4500
v 1.3500 1.8000 0.4500
v 0.4500 1.8000 0.4500
v 1.3500 0.0000 -0.4500
v 0.4500 0.0000 -0.4500
v 0.4500 1.8000 -0.4500
v 1.3500 1.8000 -0.4500
v 1.3500 0.0000 0.4500
v 1.3500 0.0000 -0.4500
v 1.3500 1.8000 -0.4500
v 1.3500 1.8000 0.4500
v 0.4500 0.0000 -0.4500
v 0.4500 0.0000 0.4500
v 0.4500 1.8000 0.4500
v 0.4500 1.8000 -0.4500
v 0.4500 1.8000 0.4500
v 1.3500 1.8000 0.4500
v 1.3500 1.8000 -0.4500
v 0.4500 1.8000 -0.4500
v 0.4500 0.0000 -0.4500
v 1.3500 0.0000 -0.4500
v 1.3500 0.0000 0.4500
v 0.4500 0.0000 0.4500
v 0.3750 0.0000 0.8000
v 1.4250 0.0000 0.8000
v 1.4250 0.4000 0.8000
v 0.3750 0.4000 0.8000
v 1.4250 0.0000 -0.4000
v 0.3750 0.0000 -0.4000
v 0.3750 0.4000 -0.4000
v 1.4250 0.4000 -0.4000
v 1.4250 0.0000 0.8000
v 1.4250 0.0000 -0.4000
v 1.4250 0.4000 -0.4000
v 1.4250 0.4000 0.8000
v 0.3750 0.0000 -0.4000
v 0.3750 0.0000 0.8000
v 0.3750 0.4000 0.8000
v 0.3750 0.4000 -0.4000
v 0.3750 0.4000 0.8000
v 1.4250 0.4000 0.8000
v 1.4250 0.4000 -0.4000
v 0.3750 0.4000 -0.4000
v 0.3750 0.0000 -0.4000
v 1.4250 0.0000 -0.4000
v 1.4250 0.0000 0.8000
v 0.3750 0.0000 0.8000
v -1.1000 1.6500 0.7500
v 1.1000 1.6500 0.7500
v 1.1000 2.5500 0.7500
v -1.1000 2.5500 0.7500
v 1.1000 1.6500 -0.7500
v -1.1000 1.6500 -0.7500
v -1.1000 2.5500 -0.7500
v 1.1000 2.5500 -0.7500
v 1.1000 1.6500 0.7500
v 1.1000 1.6500 -0.7500
v 1.1000 2.5500 -0.7500
v 1.1000 2.5500 0.7500
v -1.1000 1.6500 -0.7500
v -1.1000 1.6500 0.7500
v -1.1000 2.5500 0.7500
v -1.1000 2.5500 -0.7500
v -1.1000 2.5500 0.7500
v 1.1000 2.5500 0.7500
v 1.1000 2.5500 -0.7500
v -1.1000 2.5500 -0.7500
v -1.1000 1.6500 -0.7500
v 1.1000 1.6500 -0.7500
v 1.1000 1.6500 0.7500
v -1.1000 1.6500 0.7500
v -1.3500 2.4000 1.1000
v 1.3500 2.4000 1.1000
v 1.3500 3.8000 1.1000
v -1.3500 3.8000 1.1000
v 1.3500 2.4000 -0.8000
v -1.3500 2.4000 -0.8000
v -1.3500 3.8000 -0.8000
v 1.3500 3.8000 -0.8000
v 1.3500 2.4000 1.1000
v 1.3500 2.4000 -0.8000
v 1.3500 3.8000 -0.8000
v 1.3500 3.8000 1.1000
v -1.3500 2.4000 -0.8000
v -1.3500 2.4000 1.1000
v -1.3500 3.8000 1.1000
v -1.3500 3.8000 -0.8000
v -1.3500 3.8000 1.1000
v 1.3500 3.8000 1.1000
v 1.3500 3.8000 -0.8000
v -1.3500 3.8000 -0.8000
v -1.3500 2.4000 -0.8000
v 1.3500 2.4000 -0.8000
v 1.3500 2.4000 1.1000
v -1.3500 2.4000 1.1000
v -1.2000 3.1500 0.3500
v 1.2000 3.1500 0.3500
v 1.2000 4.4500 0.3500
v -1.2000 4.4500 0.3500
v 1.2000 3.1500 -1.0500
v -1.2000 3.1500 -1.0500
v -1.2000 4.4500 -1.0500
v 1.2000 4.4500 -1.0500
v 1.2000 3.1500 0.3500
v 1.2000 3.1500 -1.0500
v 1.2000 4.4500 -1.0500
v 1.2000 4.4500 0.3500
v -1.2000 3.1500 -1.0500
v -1.2000 3.1500 0.3500
v -1.2000 4.4500 0.3500
v -1.2000 4.4500 -1.0500
v -1.2000 4.4500 0.3500
v 1.2000 4.4500 0.3500
v 1.2000 4.4500 -1.0500
v -1.2000 4.4500 -1.0500
v -1.2000 3.1500 -1.0500
v 1.2000 3.1500 -1.0500
v 1.2000 3.1500 0.3500
v -1.2000 3.1500 0.3500
v -0.1750 2.5250 -0.7000
v 0.1750 2.5250 -0.7000
v 0.1750 2.8750 -0.7000
v -0.1750 2.8750 -0.7000
v 0.1750 2.5250 -1.2000
v -0.1750 2.5250 -1.2000
v -0.1750 2.8750 -1.2000
v 0.1750 2.8750 -1.2000
v 0.1750 2.5250 -0.7000
v 0.1750 2.5250 -1.2000
v 0.1750 2.8750 -1.2000
v 0.1750 2.8750 -0.7000
v -0.1750 2.5250 -1.2000
v -0.1750 2.5250 -0.7000
v -0.1750 2.8750 -0.7000
v -0.1750 2.8750 -1.2000
v -0.1750 2.8750 -0.7000
v 0.1750 2.8750 -0.7000
v 0.1750 2.8750 -1.2000
v -0.1750 2.8750 -1.2000
v -0.1750 2.5250 -1.2000
v 0.1750 2.5250 -1.2000
v 0.1750 2.5250 -0.7000
v -0.1750 2.5250 -0.7000
v -0.1750 2.8750 -0.7000
v 0.1750 2.8750 -0.7000
v 0.1750 3.2250 -0.7000
v -0.1750 3.2250 -0.7000
v 0.1750 2.8750 -1.2000
v -0.1750 2.8750 -1.2000
v -0.1750 3.2250 -1.2000
v 0.1750 3.2250 -1.2000
v 0.1750 2.8750 -0.7000
v 0.1750 2.8750 -1.2000
v 0.1750 3.2250 -1.2000
v 0.1750 3.2250 -0.7000
v -0.1750 2.8750 -1.2000
v -0.1750 2.8750 -0.7000
v -0.1750 3.2250 -0.7000
v -0.1750 3.2250 -1.2000
v -0.1750 3.2250 -0.7000
v 0.1750 3.2250 -0.7000
v 0.1750 3.2250 -1.2000
v -0.1750 3.2250 -1.2000
v -0.1750 2.8750 -1.2000
v 0.1750 2.8750 -1.2000
v 0.1750 2.8750 -0.7000
v -0.1750 2.8750 -0.7000
v -0.1750 3.2250 -0.7000
v 0.1750 3.2250 -0.7000
v 0.1750 3.5750 -0.7000
v -0.1750 3.5750 -0.7000
v 0.1750 3.2250 -1.2000
v -0.1750 3.2250 -1.2000
v -0.1750 3.5750 -1.2000
v 0.1750 3.5750 -1.2000
v 0.1750 3.2250 -0.7000
v 0.1750 3.2250 -1.2000
v 0.1750 3.5750 -1.2000
v 0.1750 3.5750 -0.7000
v -0.1750 3.2250 -1.2000
v -0.1750 3.2250 -0.7000
v -0.1750 3.5750 -0.7000
v -0.1750 3.5750 -1.2000
v -0.1750 3.5750 -0.7000
v 0.1750 3.5750 -0.7000
v 0.1750 3.5750 -1.2000
v -0.1750 3.5750 -1.2000
v -0.1750 3.2250 -1.2000
v 0.1750 3.2250 -1.2000
v 0.1750 3.2250 -0.7000
v -0.1750 3.2250 -0.7000
v -0.1750 3.5750 -0.7000
v 0.1750 3.5750 -0.7000
v 0.1750 3.9250 -0.7000
v -0.1750 3.9250 -0.7000
v 0.1750 3.5750 -1.2000
v -0.1750 3.5750 -1.2000
v -0.1750 3.9250 -1.2000
v 0.1750 3.9250 -1.2000
v 0.1750 3.5750 -0.7000
v 0.1750 3.5750 -1.2000
v 0.1750 3.9250 -1.2000
v 0.1750 3.9250 -0.7000
v -0.1750 3.5750 -1.2000
v -0.1750 3.5750 -0.7000
v -0.1750 3.9250 -0.7000
v -0.1750 3.9250 -1.2000
v -0.1750 3.9250 -0.7000
v 0.1750 3.9250 -0.7000
v 0.1750 3.9250 -1.2000
v -0.1750 3.9250 -1.2000
v -0.1750 3.5750 -1.2000
v 0.1750 3.5750 -1.2000
v 0.1750 3.5750 -0.7000
v -0.1750 3.5750 -0.7000
v -0.1750 3.9250 -0.7000
v 0.1750 3.9250 -0.7000
v 0.1750 4.2750 -0.7000
v -0.1750 4.2750 -0.7000
v 0.1750 3.9250 -1.2000
v -0.1750 3.9250 -1.2000
v -0.1750 4.2750 -1.2000
v 0.1750 4.2750 -1.2000
v 0.1750 3.9250 -0.7000
v 0.1750 3.9250 -1.2000
v 0.1750 4.2750 -1.2000
v 0.1750 4.2750 -0.7000
v -0.1750 3.9250 -1.2000
v -0.1750 3.9250 -0.7000
v -0.1750 4.2750 -0.7000
v -0.1750 4.2750 -1.2000
v -0.1750 4.2750 -0.7000
v 0.1750 4.2750 -0.7000
v 0.1750 4.2750 -1.2000
v -0.1750 4.2750 -1.2000
v -0.1750 3.9250 -1.2000
v 0.1750 3.9250 -1.2000
v 0.1750 3.9250 -0.7000
v -0.1750 3.9250 -0.7000
v -0.5500 2.9500 -0.6500
v 0.5500 2.9500 -0.6500
v 0.5500 3.8500 -0.6500
v -0.5500 3.8500 -0.6500
v 0.5500 2.9500 -1.0500
v -0.5500 2.9500 -1.0500
v -0.5500 3.8500 -1.0500
v 0.5500 3.8500 -1.0500
v 0.5500 2.9500 -0.6500
v 0.5500 2.9500 -1.0500
v 0.5500 3.8500 -1.0500
v 0.5500 3.8500 -0.6500
v -0.5500 2.9500 -1.0500
v -0.5500 2.9500 -0.6500
v -0.5500 3.8500 -0.6500
v -0.5500 3.8500 -1.0500
v -0.5500 3.8500 -0.6500
v 0.5500 3.8500 -0.6500
v 0.5500 3.8500 -1.0500
v -0.5500 3.8500 -1.0500
v -0.5500 2.9500 -1.0500
v 0.5500 2.9500 -1.0500
v 0.5500 2.9500 -0.6500
v -0.5500 2.9500 -0.6500
v 0.4500 3.6000 -0.9000
v 0.4500 3.2000 -0.9000
v 0.3182 3.6000 -0.5818
v 0.3182 3.2000 -0.5818
v 0.0000 3.6000 -0.4500
v 0.0000 3.2000 -0.4500
v -0.3182 3.6000 -0.5818
v -0.3182 3.2000 -0.5818
v -0.4500 3.6000 -0.9000
v -0.4500 3.2000 -0.9000
v -0.3182 3.6000 -1.2182
v -0.3182 3.2000 -1.2182
v -0.0000 3.6000 -1.3500
v -0.0000 3.2000 -1.3500
v 0.3182 3.6000 -1.2182
v 0.3182 3.2000 -1.2182
v 0.0000 3.6000 -0.9000
v 0.0000 3.2000 -0.9000
v -0.5500 2.6500 1.2250
v 0.5500 2.6500 1.2250
v 0.5500 3.7500 1.2250
v -0.5500 3.7500 1.2250
v 0.5500 2.6500 0.8750
v -0.5500 2.6500 0.8750
v -0.5500 3.7500 0.8750
v 0.5500 3.7500 0.8750
v 0.5500 2.6500 1.2250
v 0.5500 2.6500 0.8750
v 0.5500 3.7500 0.8750
v 0.5500 3.7500 1.2250
v -0.5500 2.6500 0.8750
v -0.5500 2.6500 1.2250
v -0.5500 3.7500 1.2250
v -0.5500 3.7500 0.8750
v -0.5500 3.7500 1.2250
v 0.5500 3.7500 1.2250
v 0.5500 3.7500 0.8750
v -0.5500 3.7500 0.8750
v -0.5500 2.6500 0.8750
v 0.5500 2.6500 0.8750
v 0.5500 2.6500 1.2250
v -0.5500 2.6500 1.2250
v 0.4500 3.3250 1.1200
v 0.4500 3.0750 1.1200
v 0.3182 3.3250 1.4382
v 0.3182 3.0750 1.4382
v 0.0000 3.3250 1.5700
v 0.0000 3.0750 1.5700
v -0.3182 3.3250 1.4382
v -0.3182 3.0750 1.4382
v -0.4500 3.3250 1.1200
v -0.4500 3.0750 1.1200
v -0.3182 3.3250 0.8018
v -0.3182 3.0750 0.8018
v -0.0000 3.3250 0.6700
v -0.0000 3.0750 0.6700
v 0.3182 3.3250 0.8018
v 0.3182 3.0750 0.8018
v 0.0000 3.3250 1.1200
v 0.0000 3.0750 1.1200
v -0.5500 3.8000 1.1500
v 0.5500 3.8000 1.1500
v 0.5500 4.8000 1.1500
v -0.5500 4.8000 1.1500
v 0.5500 3.8000 -0.0500
v -0.5500 3.8000 -0.0500
v -0.5500 4.8000 -0.0500
v 0.5500 4.8000 -0.0500
v 0.5500 3.8000 1.1500
v 0.5500 3.8000 -0.0500
v 0.5500 4.8000 -0.0500
v 0.5500 4.8000 1.1500
v -0.5500 3.8000 -0.0500
v -0.5500 3.8000 1.1500
v -0.5500 4.8000 1.1500
v -0.5500 4.8000 -0.0500
v -0.5500 4.8000 1.1500
v 0.5500 4.8000 1.1500
v 0.5500 4.8000 -0.0500
v -0.5500 4.8000 -0.0500
v -0.5500 3.8000 -0.0500
v 0.5500 3.8000 -0.0500
v 0.5500 3.8000 1.1500
v -0.5500 3.8000 1.1500
v -0.3600 4.2750 1.2250
v -0.1400 4.2750 1.2250
v -0.1400 4.4250 1.2250
v -0.3600 4.4250 1.2250
v -0.1400 4.2750 1.0750
v -0.3600 4.2750 1.0750
v -0.3600 4.4250 1.0750
v -0.1400 4.4250 1.0750
v -0.1400 4.2750 1.2250
v -0.1400 4.2750 1.0750
v -0.1400 4.4250 1.0750
v -0.1400 4.4250 1.2250
v -0.3600 4.2750 1.0750
v -0.3600 4.2750 1.2250
v -0.3600 4.4250 1.2250
v -0.3600 4.4250 1.0750
v -0.3600 4.4250 1.2250
v -0.1400 4.4250 1.2250
v -0.1400 4.4250 1.0750
v -0.3600 4.4250 1.0750
v -0.3600 4.2750 1.0750
v -0.1400 4.2750 1.0750
v -0.1400 4.2750 1.2250
v -0.3600 4.2750 1.2250
v 0.1400 4.2750 1.2250
v 0.3600 4.2750 1.2250
v 0.3600 4.4250 1.2250
v 0.1400 4.4250 1.2250
v 0.3600 4.2750 1.0750
v 0.1400 4.2750 1.0750
v 0.1400 4.4250 1.0750
v 0.3600 4.4250 1.0750
v 0.3600 4.2750 1.2250
v 0.3600 4.2750 1.0750
v 0.3600 4.4250 1.0750
v 0.3600 4.4250 1.2250
v 0.1400 4.2750 1.0750
v 0.1400 4.2750 1.2250
v 0.1400 4.4250 1.2250
v 0.1400 4.4250 1.0750
v 0.1400 4.4250 1.2250
v 0.3600 4.4250 1.2250
v 0.3600 4.4250 1.0750
v 0.1400 4.4250 1.0750
v 0.1400 4.2750 1.0750
v 0.3600 4.2750 1.0750
v 0.3600 4.2750 1.2250
v 0.1400 4.2750 1.2250
v -0.3000 3.8750 1.2200
v 0.3000 3.8750 1.2200
v 0.3000 4.1250 1.2200
v -0.3000 4.1250 1.2200
v 0.3000 3.8750 1.0200
v -0.3000 3.8750 1.0200
v -0.3000 4.1250 1.0200
v 0.3000 4.1250 1.0200
v 0.3000 3.8750 1.2200
v 0.3000 3.8750 1.0200
v 0.3000 4.1250 1.0200
v 0.3000 4.1250 1.2200
v -0.3000 3.8750 1.0200
v -0.3000 3.8750 1.2200
v -0.3000 4.1250 1.2200
v -0.3000 4.1250 1.0200
v -0.3000 4.1250 1.2200
v 0.3000 4.1250 1.2200
v 0.3000 4.1250 1.0200
v -0.3000 4.1250 1.0200
v -0.3000 3.8750 1.0200
v 0.3000 3.8750 1.0200
v 0.3000 3.8750 1.2200
v -0.3000 3.8750 1.2200
v -0.6063 4.6107 0.5500
v -0.5468 4.6879 0.7013
v -0.3905 4.7772 0.7013
v -0.2937 4.7893 0.5500
v -0.3532 4.7121 0.3987
v -0.5095 4.6228 0.3987
v -0.8500 5.4000 0.3500
v 0.2937 4.7893 0.5500
v 0.3905 4.7772 0.7013
v 0.5468 4.6879 0.7013
v 0.6063 4.6107 0.5500
v 0.5095 4.6228 0.3987
v 0.3532 4.7121 0.3987
v 0.8500 5.4000 0.3500
v -2.2000 3.0500 0.6500
v -1.4000 3.0500 0.6500
v -1.4000 3.9500 0.6500
v -2.2000 3.9500 0.6500
v -1.4000 3.0500 -0.2500
v -2.2000 3.0500 -0.2500
v -2.2000 3.9500 -0.2500
v -1.4000 3.9500 -0.2500
v -1.4000 3.0500 0.6500
v -1.4000 3.0500 -0.2500
v -1.4000 3.9500 -0.2500
v -1.4000 3.9500 0.6500
v -2.2000 3.0500 -0.2500
v -2.2000 3.0500 0.6500
v -2.2000 3.9500 0.6500
v -2.2000 3.9500 -0.2500
v -2.2000 3.9500 0.6500
v -1.4000 3.9500 0.6500
v -1.4000 3.9500 -0.2500
v -2.2000 3.9500 -0.2500
v -2.2000 3.0500 -0.2500
v -1.4000 3.0500 -0.2500
v -1.4000 3.0500 0.6500
v -2.2000 3.0500 0.6500
v -2.4250 1.9500 0.7000
v -1.7750 1.9500 0.7000
v -1.7750 3.2500 0.7000
v -2.4250 3.2500 0.7000
v -1.7750 1.9500 0.0000
v -2.4250 1.9500 0.0000
v -2.4250 3.2500 0.0000
v -1.7750 3.2500 0.0000
v -1.7750 1.9500 0.7000
v -1.7750 1.9500 0.0000
v -1.7750 3.2500 0.0000
v -1.7750 3.2500 0.7000
v -2.4250 1.9500 0.0000
v -2.4250 1.9500 0.7000
v -2.4250 3.2500 0.7000
v -2.4250 3.2500 0.0000
v -2.4250 3.2500 0.7000
v -1.7750 3.2500 0.7000
v -1.7750 3.2500 0.0000
v -2.4250 3.2500 0.0000
v -2.4250 1.9500 0.0000
v -1.7750 1.9500 0.0000
v -1.7750 1.9500 0.7000
v -2.4250 1.9500 0.7000
v -2.1327 1.8749 0.4500
v -2.2088 1.9151 0.5617
v -2.3419 1.9345 0.5190
v -2.3480 1.9062 0.3810
v -2.2186 1.8693 0.3383
v -2.4000 1.2000 0.6000
v -1.9800 1.9000 0.5500
v -2.0629 1.9361 0.6583
v -2.1971 1.9223 0.6169
v -2.1971 1.8777 0.4831
v -2.0629 1.8639 0.4417
v -2.1000 1.1500 0.8000
v -1.8327 1.9251 0.4500
v -1.9186 1.9307 0.5617
v -2.0480 1.8938 0.5190
v -2.0419 1.8655 0.3810
v -1.9088 1.8849 0.3383
v -1.8000 1.2000 0.6000
v 1.3500 2.9500 0.9000
v 2.6500 2.9500 0.9000
v 2.6500 4.2500 0.9000
v 1.3500 4.2500 0.9000
v 2.6500 2.9500 -0.5000
v 1.3500 2.9500 -0.5000
v 1.3500 4.2500 -0.5000
v 2.6500 4.2500 -0.5000
v 2.6500 2.9500 0.9000
v 2.6500 2.9500 -0.5000
v 2.6500 4.2500 -0.5000
v 2.6500 4.2500 0.9000
v 1.3500 2.9500 -0.5000
v 1.3500 2.9500 0.9000
v 1.3500 4.2500 0.9000
v 1.3500 4.2500 -0.5000
v 1.3500 4.2500 0.9000
v 2.6500 4.2500 0.9000
v 2.6500 4.2500 -0.5000
v 1.3500 4.2500 -0.5000
v 1.3500 2.9500 -0.5000
v 2.6500 2.9500 -0.5000
v 2.6500 2.9500 0.9000
v 1.3500 2.9500 0.9000
v 2.1833 4.3773 0.2000
v 2.2809 4.2755 0.4419
v 2.4976 4.0982 0.4419
v 2.6167 4.0227 0.2000
v 2.5191 4.1245 -0.0419
v 2.3024 4.3018 -0.0419
v 3.3000 5.3000 0.3000
v 2.0406 4.3794 -0.4000
v 2.1578 4.3231 -0.1983
v 2.3173 4.1437 -0.1983
v 2.3594 4.0206 -0.4000
v 2.2422 4.0769 -0.6017
v 2.0827 4.2563 -0.6017
v 3.1000 5.0000 -0.7000
v 2.1406 4.2794 0.7000
v 2.1827 4.1563 0.9017
v 2.3422 3.9769 0.9017
v 2.4594 3.9206 0.7000
v 2.4173 4.0437 0.4983
v 2.2578 4.2231 0.4983
v 3.2000 4.9000 1.0000
v 1.8000 1.4500 1.1500
v 3.0000 1.4500 1.1500
v 3.0000 3.1500 1.1500
v 1.8000 3.1500 1.1500
v 3.0000 1.4500 -0.1500
v 1.8000 1.4500 -0.1500
v 1.8000 3.1500 -0.1500
v 3.0000 3.1500 -0.1500
v 3.0000 1.4500 1.1500
v 3.0000 1.4500 -0.1500
v 3.0000 3.1500 -0.1500
v 3.0000 3.1500 1.1500
v 1.8000 1.4500 -0.1500
v 1.8000 1.4500 1.1500
v 1.8000 3.1500 1.1500
v 1.8000 3.1500 -0.1500
v 1.8000 3.1500 1.1500
v 3.0000 3.1500 1.1500
v 3.0000 3.1500 -0.1500
v 1.8000 3.1500 -0.1500
v 1.8000 1.4500 -0.1500
v 3.0000 1.4500 -0.1500
v 3.0000 1.4500 1.1500
v 1.8000 1.4500 1.1500
v 2.2000 1.7000 1.2000
v 2.6000 1.7000 1.2000
v 2.6000 2.9000 1.2000
v 2.2000 2.9000 1.2000
v 2.6000 1.7000 1.1000
v 2.2000 1.7000 1.1000
v 2.2000 2.9000 1.1000
v 2.6000 2.9000 1.1000
v 2.6000 1.7000 1.2000
v 2.6000 1.7000 1.1000
v 2.6000 2.9000 1.1000
v 2.6000 2.9000 1.2000
v 2.2000 1.7000 1.1000
v 2.2000 1.7000 1.2000
v 2.2000 2.9000 1.2000
v 2.2000 2.9000 1.1000
v 2.2000 2.9000 1.2000
v 2.6000 2.9000 1.2000
v 2.6000 2.9000 1.1000
v 2.2000 2.9000 1.1000
v 2.2000 1.7000 1.1000
v 2.6000 1.7000 1.1000
v 2.6000 1.7000 1.2000
v 2.2000 1.7000 1.2000
v 2.8638 2.9170 0.5000
v 2.8665 2.8059 0.6899
v 2.9027 2.5889 0.6899
v 2.9362 2.4830 0.5000
v 2.9335 2.5941 0.3101
v 2.8973 2.8111 0.3101
v 4.1000 2.9000 0.6000
v 2.9199 2.3191 0.5000
v 2.8929 2.2111 0.6897
v 2.8729 1.9920 0.6897
v 2.8801 1.8809 0.5000
v 2.9071 1.9889 0.3103
v 2.9271 2.2080 0.3103
v 4.0000 2.0000 0.6000
v 2.9437 1.6746 0.5000
v 2.9036 1.5919 0.6548
v 2.8600 1.4172 0.6548
v 2.8563 1.3254 0.5000
v 2.8964 1.4081 0.3452
v 2.9400 1.5828 0.3452
v 3.7000 1.3000 0.6000
v 1.7500 0.6500 1.2500
v 3.0500 0.6500 1.2500
v 3.0500 1.5500 1.2500
v 1.7500 1.5500 1.2500
v 3.0500 0.6500 0.0500
v 1.7500 0.6500 0.0500
v 1.7500 1.5500 0.0500
v 3.0500 1.5500 0.0500
v 3.0500 0.6500 1.2500
v 3.0500 0.6500 0.0500
v 3.0500 1.5500 0.0500
v 3.0500 1.5500 1.2500
v 1.7500 0.6500 0.0500
v 1.7500 0.6500 1.2500
v 1.7500 1.5500 1.2500
v 1.7500 1.5500 0.0500
v 1.7500 1.5500 1.2500
v 3.0500 1.5500 1.2500
v 3.0500 1.5500 0.0500
v 1.7500 1.5500 0.0500
v 1.7500 0.6500 0.0500
v 3.0500 0.6500 0.0500
v 3.0500 0.6500 1.2500
v 1.7500 0.6500 1.2500
v 2.1600 0.8000 1.1000
v 2.0494 0.8884 1.2238
v 1.8706 0.8547 1.1765
v 1.8706 0.7453 1.0235
v 2.0494 0.7116 0.9762
v 2.0000 0.1000 1.6000
v 2.6000 0.8000 1.2000
v 2.4618 0.9141 1.3522
v 2.2382 0.8705 1.2940
v 2.2382 0.7295 1.1060
v 2.4618 0.6859 1.0478
v 2.4000 0.0000 1.8000
v 2.9600 0.8000 1.1000
v 2.8494 0.8884 1.2238
v 2.6706 0.8547 1.1765
v 2.6706 0.7453 1.0235
v 2.8494 0.7116 0.9762
v 2.8000 0.1000 1.6000
vt 0.0000 0.0000
vt 1.0000 0.0000
vt 1.0000 1.0000
vt 0.0000 1.0000
vt 0.0000 0.0000
vt 1.0000 0.0000
vt 1.0000 1.0000
vt 0.0000 1.0000
vt 0.0000 0.0000
vt 1.0000 0.0000
vt 1.0000 1.0000
vt 0.0000 1.0000
vt 0.0000 0.0000
vt 1.0000 0.0000
vt 1.0000 1.0000
vt 0.0000 1.0000
vt 0.0000 0.0000
vt 1.0000 0.0000
vt 1.0000 1.0000
vt 0.0000 1.0000
vt 0.0000 0.0000
vt 1.0000 0.0000
vt 1.0000 1.0000
vt 0.0000 1.0000
vt 0.0000 0.0000
vt 1.0000 0.0000
vt 1.0000 1.0000
vt 0.0000 1.0000
vt 0.0000 0.0000
vt 1.0000 0.0000
vt 1.0000 1.0000
vt 0.0000 1.0000
vt 0.0000 0.0000
vt 1.0000 0.0000
vt 1.0000 1.0000
vt 0.0000 1.0000
vt 0.0000 0.0000
vt 1.0000 0.0000
vt 1.0000 1.0000
vt 0.0000 1.0000
vt 0.0000 0.0000
vt 1.0000 0.0000
vt 1.0000 1.0000
vt 0.0000 1.0000
vt 0.0000 0.0000
vt 1.0000 0.0000
vt 1.0000 1.0000
vt 0.0000 1.0000
vt 0.0000 0.0000
vt 1.0000 0.0000
vt 1.0000 1.0000
vt 0.0000 1.0000
vt 0.0000 0.0000
vt 1.0000 0.0000
vt 1.0000 1.0000
vt 0.0000 1.0000
vt 0.0000 0.0000
vt 1.0000 0.0000
vt 1.0000 1.0000
vt 0.0000 1.0000
vt 0.0000 0.0000
vt 1.0000 0.0000
vt 1.0000 1.0000
vt 0.0000 1.0000
vt 0.0000 0.0000
vt 1.0000 0.0000
vt 1.0000 1.0000
vt 0.0000 1.0000
vt 0.0000 0.0000
vt 1.0000 0.0000
vt 1.0000 1.0000
vt 0.0000 1.0000
vt 0.0000 0.0000
vt 1.0000 0.0000
vt 1.0000 1.0000
vt 0.0000 1.0000
vt 0.0000 0.0000
vt 1.0000 0.0000
vt 1.0000 1.0000
vt 0.0000 1.0000
vt 0.0000 0.0000
vt 1.0000 0.0000
vt 1.0000 1.0000
vt 0.0000 1.0000
vt 0.0000 0.0000
vt 1.0000 0.0000
vt 1.0000 1.0000
vt 0.0000 1.0000
vt 0.0000 0.0000
vt 1.0000 0.0000
vt 1.0000 1.0000
vt 0.0000 1.0000
vt 0.0000 0.0000
vt 1.0000 0.0000
vt 1.0000 1.0000
vt 0.0000 1.0000
vt 0.0000 0.0000
vt 1.0000 0.0000
vt 1.0000 1.0000
vt 0.0000 1.0000
vt 0.0000 0.0000
vt 1.0000 0.0000
vt 1.0000 1.0000
vt 0.0000 1.0000
vt 0.0000 0.0000
vt 1.0000 0.0000
vt 1.0000 1.0000
vt 0.0000 1.0000
vt 0.0000 0.0000
vt 1.0000 0.0000
vt 1.0000 1.0000
vt 0.0000 1.0000
vt 0.0000 0.0000
vt 1.0000 0.0000
vt 1.0000 1.0000
vt 0.0000 1.0000
vt 0.0000 0.0000
vt 1.0000 0.0000
vt 1.0000 1.0000
vt 0.0000 1.0000
vt 0.0000 0.0000
vt 1.0000 0.0000
vt 1.0000 1.0000
vt 0.0000 1.0000
vt 0.0000 0.0000
vt 1.0000 0.0000
vt 1.0000 1.0000
vt 0.0000 1.0000
vt 0.0000 0.0000
vt 1.0000 0.0000
vt 1.0000 1.0000
vt 0.0000 1.0000
vt 0.0000 0.0000
vt 1.0000 0.0000
vt 1.0000 1.0000
vt 0.0000 1.0000
vt 0.0000 0.0000
vt 1.0000 0.0000
vt 1.0000 1.0000
vt 0.0000 1.0000
vt 0.0000 0.0000
vt 1.0000 0.0000
vt 1.0000 1.0000
vt 0.0000 1.0000
vt 0.0000 0.0000
vt 1.0000 0.0000
vt 1.0000 1.0000
vt 0.0000 1.0000
vt 0.0000 0.0000
vt 1.0000 0.0000
vt 1.0000 1.0000
vt 0.0000 1.0000
vt 0.0000 0.0000
vt 1.0000 0.0000
vt 1.0000 1.0000
vt 0.0000 1.0000
vt 0.0000 0.0000
vt 1.0000 0.0000
vt 1.0000 1.0000
vt 0.0000 1.0000
vt 0.0000 0.0000
vt 1.0000 0.0000
vt 1.0000 1.0000
vt 0.0000 1.0000
vt 0.0000 0.0000
vt 1.0000 0.0000
vt 1.0000 1.0000
vt 0.0000 1.0000
vt 0.0000 0.0000
vt 1.0000 0.0000
vt 1.0000 1.0000
vt 0.0000 1.0000
vt 0.0000 0.0000
vt 1.0000 0.0000
vt 1.0000 1.0000
vt 0.0000 1.0000
vt 0.0000 0.0000
vt 1.0000 0.0000
vt 1.0000 1.0000
vt 0.0000 1.0000
vt 0.0000 0.0000
vt 1.0000 0.0000
vt 1.0000 1.0000
vt 0.0000 1.0000
vt 0.0000 0.0000
vt 1.0000 0.0000
vt 1.0000 1.0000
vt 0.0000 1.0000
vt 0.0000 0.0000
vt 1.0000 0.0000
vt 1.0000 1.0000
vt 0.0000 1.0000
vt 0.0000 0.0000
vt 1.0000 0.0000
vt 1.0000 1.0000
vt 0.0000 1.0000
vt 0.0000 0.0000
vt 1.0000 0.0000
vt 1.0000 1.0000
vt 0.0000 1.0000
vt 0.0000 0.0000
vt 1.0000 0.0000
vt 1.0000 1.0000
vt 0.0000 1.0000
vt 0.0000 0.0000
vt 1.0000 0.0000
vt 1.0000 1.0000
vt 0.0000 1.0000
vt 0.0000 0.0000
vt 1.0000 0.0000
vt 1.0000 1.0000
vt 0.0000 1.0000
vt 0.0000 0.0000
vt 1.0000 0.0000
vt 1.0000 1.0000
vt 0.0000 1.0000
vt 0.0000 0.0000
vt 1.0000 0.0000
vt 1.0000 1.0000
vt 0.0000 1.0000
vt 0.0000 0.0000
vt 1.0000 0.0000
vt 1.0000 1.0000
vt 0.0000 1.0000
vt 0.0000 0.0000
vt 1.0000 0.0000
vt 1.0000 1.0000
vt 0.0000 1.0000
vt 0.0000 0.0000
vt 1.0000 0.0000
vt 1.0000 1.0000
vt 0.0000 1.0000
vt 0.0000 0.0000
vt 1.0000 0.0000
vt 1.0000 1.0000
vt 0.0000 1.0000
vt 0.0000 0.0000
vt 1.0000 0.0000
vt 1.0000 1.0000
vt 0.0000 1.0000
vt 0.0000 0.0000
vt 1.0000 0.0000
vt 1.0000 1.0000
vt 0.0000 1.0000
vt 0.0000 0.0000
vt 1.0000 0.0000
vt 1.0000 1.0000
vt 0.0000 1.0000
vt 0.0000 0.0000
vt 1.0000 0.0000
vt 1.0000 1.0000
vt 0.0000 1.0000
vt 0.0000 0.0000
vt 1.0000 0.0000
vt 1.0000 1.0000
vt 0.0000 1.0000
vt 0.0000 0.0000
vt 1.0000 0.0000
vt 1.0000 1.0000
vt 0.0000 1.0000
vt 0.0000 0.0000
vt 1.0000 0.0000
vt 1.0000 1.0000
vt 0.0000 1.0000
vt 0.0000 0.0000
vt 1.0000 0.0000
vt 1.0000 1.0000
vt 0.0000 1.0000
vt 0.0000 0.0000
vt 1.0000 0.0000
vt 1.0000 1.0000
vt 0.0000 1.0000
vt 0.0000 0.0000
vt 1.0000 0.0000
vt 1.0000 1.0000
vt 0.0000 1.0000
vt 0.0000 0.0000
vt 1.0000 0.0000
vt 1.0000 1.0000
vt 0.0000 1.0000
vt 0.0000 0.0000
vt 1.0000 0.0000
vt 1.0000 1.0000
vt 0.0000 1.0000
vt 0.0000 0.0000
vt 1.0000 0.0000
vt 1.0000 1.0000
vt 0.0000 1.0000
vt 0.0000 0.0000
vt 1.0000 0.0000
vt 1.0000 1.0000
vt 0.0000 1.0000
vt 0.0000 0.0000
vt 1.0000 0.0000
vt 1.0000 1.0000
vt 0.0000 1.0000
vt 0.0000 0.0000
vt 1.0000 0.0000
vt 1.0000 1.0000
vt 0.0000 1.0000
vt 0.0000 0.0000
vt 1.0000 0.0000
vt 1.0000 1.0000
vt 0.0000 1.0000
vt 0.0000 0.0000
vt 1.0000 0.0000
vt 1.0000 1.0000
vt 0.0000 1.0000
vt 0.0000 0.0000
vt 1.0000 0.0000
vt 1.0000 1.0000
vt 0.0000 1.0000
vt 0.0000 0.0000
vt 0.1250 0.0000
vt 0.1250 1.0000
vt 0.0000 1.0000
vt 0.1250 0.0000
vt 0.2500 0.0000
vt 0.2500 1.0000
vt 0.1250 1.0000
vt 0.2500 0.0000
vt 0.3750 0.0000
vt 0.3750 1.0000
vt 0.2500 1.0000
vt 0.3750 0.0000
vt 0.5000 0.0000
vt 0.5000 1.0000
vt 0.3750 1.0000
vt 0.5000 0.0000
vt 0.6250 0.0000
vt 0.6250 1.0000
vt 0.5000 1.0000
vt 0.6250 0.0000
vt 0.7500 0.0000
vt 0.7500 1.0000
vt 0.6250 1.0000
vt 0.7500 0.0000
vt 0.8750 0.0000
vt 0.8750 1.0000
vt 0.7500 1.0000
vt 0.8750 0.0000
vt 1.0000 0.0000
vt 1.0000 1.0000
vt 0.8750 1.0000
vt 0.5000 0.5000
vt 1.0000 0.5000
vt 0.8536 0.8536
vt 0.8536 0.8536
vt 0.5000 1.0000
vt 0.5000 1.0000
vt 0.1464 0.8536
vt 0.1464 0.8536
vt 0.0000 0.5000
vt 0.0000 0.5000
vt 0.1464 0.1464
vt 0.1464 0.1464
vt 0.5000 0.0000
vt 0.5000 0.0000
vt 0.8536 0.1464
vt 0.8536 0.1464
vt 1.0000 0.5000
vt 0.0000 0.0000
vt 1.0000 0.0000
vt 1.0000 1.0000
vt 0.0000 1.0000
vt 0.0000 0.0000
vt 1.0000 0.0000
vt 1.0000 1.0000
vt 0.0000 1.0000
vt 0.0000 0.0000
vt 1.0000 0.0000
vt 1.0000 1.0000
vt 0.0000 1.0000
vt 0.0000 0.0000
vt 1.0000 0.0000
vt 1.0000 1.0000
vt 0.0000 1.0000
vt 0.0000 0.0000
vt 1.0000 0.0000
vt 1.0000 1.0000
vt 0.0000 1.0000
vt 0.0000 0.0000
vt 1.0000 0.0000
vt 1.0000 1.0000
vt 0.0000 1.0000
vt 0.0000 0.0000
vt 0.1250 0.0000
vt 0.1250 1.0000
vt 0.0000 1.0000
vt 0.1250 0.0000
vt 0.2500 0.0000
vt 0.2500 1.0000
vt 0.1250 1.0000
vt 0.2500 0.0000
vt 0.3750 0.0000
vt 0.3750 1.0000
vt 0.2500 1.0000
vt 0.3750 0.0000
vt 0.5000 0.0000
vt 0.5000 1.0000
vt 0.3750 1.0000
vt 0.5000 0.0000
vt 0.6250 0.0000
vt 0.6250 1.0000
vt 0.5000 1.0000
vt 0.6250 0.0000
vt 0.7500 0.0000
vt 0.7500 1.0000
vt 0.6250 1.0000
vt 0.7500 0.0000
vt 0.8750 0.0000
vt 0.8750 1.0000
vt 0.7500 1.0000
vt 0.8750 0.0000
vt 1.0000 0.0000
vt 1.0000 1.0000
vt 0.8750 1.0000
vt 0.5000 0.5000
vt 1.0000 0.5000
vt 0.8536 0.8536
vt 0.8536 0.8536
vt 0.5000 1.0000
vt 0.5000 1.0000
vt 0.1464 0.8536
vt 0.1464 0.8536
vt 0.0000 0.5000
vt 0.0000 0.5000
vt 0.1464 0.1464
vt 0.1464 0.1464
vt 0.5000 0.0000
vt 0.5000 0.0000
vt 0.8536 0.1464
vt 0.8536 0.1464
vt 1.0000 0.5000
vt 0.0000 0.0000
vt 1.0000 0.0000
vt 1.0000 1.0000
vt 0.0000 1.0000
vt 0.0000 0.0000
vt 1.0000 0.0000
vt 1.0000 1.0000
vt 0.0000 1.0000
vt 0.0000 0.0000
vt 1.0000 0.0000
vt 1.0000 1.0000
vt 0.0000 1.0000
vt 0.0000 0.0000
vt 1.0000 0.0000
vt 1.0000 1.0000
vt 0.0000 1.0000
vt 0.0000 0.0000
vt 1.0000 0.0000
vt 1.0000 1.0000
vt 0.0000 1.0000
vt 0.0000 0.0000
vt 1.0000 0.0000
vt 1.0000 1.0000
vt 0.0000 1.0000
vt 0.0000 0.0000
vt 1.0000 0.0000
vt 1.0000 1.0000
vt 0.0000 1.0000
vt 0.0000 0.0000
vt 1.0000 0.0000
vt 1.0000 1.0000
vt 0.0000 1.0000
vt 0.0000 0.0000
vt 1.0000 0.0000
vt 1.0000 1.0000
vt 0.0000 1.0000
vt 0.0000 0.0000
vt 1.0000 0.0000
vt 1.0000 1.0000
vt 0.0000 1.0000
vt 0.0000 0.0000
vt 1.0000 0.0000
vt 1.0000 1.0000
vt 0.0000 1.0000
vt 0.0000 0.0000
vt 1.0000 0.0000
vt 1.0000 1.0000
vt 0.0000 1.0000
vt 0.0000 0.0000
vt 1.0000 0.0000
vt 1.0000 1.0000
vt 0.0000 1.0000
vt 0.0000 0.0000
vt 1.0000 0.0000
vt 1.0000 1.0000
vt 0.0000 1.0000
vt 0.0000 0.0000
vt 1.0000 0.0000
vt 1.0000 1.0000
vt 0.0000 1.0000
vt 0.0000 0.0000
vt 1.0000 0.0000
vt 1.0000 1.0000
vt 0.0000 1.0000
vt 0.0000 0.0000
vt 1.0000 0.0000
vt 1.0000 1.0000
vt 0.0000 1.0000
vt 0.0000 0.0000
vt 1.0000 0.0000
vt 1.0000 1.0000
vt 0.0000 1.0000
vt 0.0000 0.0000
vt 1.0000 0.0000
vt 1.0000 1.0000
vt 0.0000 1.0000
vt 0.0000 0.0000
vt 1.0000 0.0000
vt 1.0000 1.0000
vt 0.0000 1.0000
vt 0.0000 0.0000
vt 1.0000 0.0000
vt 1.0000 1.0000
vt 0.0000 1.0000
vt 0.0000 0.0000
vt 1.0000 0.0000
vt 1.0000 1.0000
vt 0.0000 1.0000
vt 0.0000 0.0000
vt 1.0000 0.0000
vt 1.0000 1.0000
vt 0.0000 1.0000
vt 0.0000 0.0000
vt 1.0000 0.0000
vt 1.0000 1.0000
vt 0.0000 1.0000
vt 0.5000 1.0000
vt 0.0000 0.0000
vt 0.1667 0.0000
vt 0.1667 0.0000
vt 0.3333 0.0000
vt 0.3333 0.0000
vt 0.5000 0.0000
vt 0.5000 0.0000
vt 0.6667 0.0000
vt 0.6667 0.0000
vt 0.8333 0.0000
vt 0.8333 0.0000
vt 1.0000 0.0000
vt 0.5000 1.0000
vt 0.0000 0.0000
vt 0.1667 0.0000
vt 0.1667 0.0000
vt 0.3333 0.0000
vt 0.3333 0.0000
vt 0.5000 0.0000
vt 0.5000 0.0000
vt 0.6667 0.0000
vt 0.6667 0.0000
vt 0.8333 0.0000
vt 0.8333 0.0000
vt 1.0000 0.0000
vt 0.0000 0.0000
vt 1.0000 0.0000
vt 1.0000 1.0000
vt 0.0000 1.0000
vt 0.0000 0.0000
vt 1.0000 0.0000
vt 1.0000 1.0000
vt 0.0000 1.0000
vt 0.0000 0.0000
vt 1.0000 0.0000
vt 1.0000 1.0000
vt 0.0000 1.0000
vt 0.0000 0.0000
vt 1.0000 0.0000
vt 1.0000 1.0000
vt 0.0000 1.0000
vt 0.0000 0.0000
vt 1.0000 0.0000
vt 1.0000 1.0000
vt 0.0000 1.0000
vt 0.0000 0.0000
vt 1.0000 0.0000
vt 1.0000 1.0000
vt 0.0000 1.0000
vt 0.0000 0.0000
vt 1.0000 0.0000
vt 1.0000 1.0000
vt 0.0000 1.0000
vt 0.0000 0.0000
vt 1.0000 0.0000
vt 1.0000 1.0000
vt 0.0000 1.0000
vt 0.0000 0.0000
vt 1.0000 0.0000
vt 1.0000 1.0000
vt 0.0000 1.0000
vt 0.0000 0.0000
vt 1.0000 0.0000
vt 1.0000 1.0000
vt 0.0000 1.0000
vt 0.0000 0.0000
vt 1.0000 0.0000
vt 1.0000 1.0000
vt 0.0000 1.0000
vt 0.0000 0.0000
vt 1.0000 0.0000
vt 1.0000 1.0000
vt 0.0000 1.0000
vt 0.5000 1.0000
vt 0.0000 0.0000
vt 0.2000 0.0000
vt 0.2000 0.0000
vt 0.4000 0.0000
vt 0.4000 0.0000
vt 0.6000 0.0000
vt 0.6000 0.0000
vt 0.8000 0.0000
vt 0.8000 0.0000
vt 1.0000 0.0000
vt 0.5000 1.0000
vt 0.0000 0.0000
vt 0.2000 0.0000
vt 0.2000 0.0000
vt 0.4000 0.0000
vt 0.4000 0.0000
vt 0.6000 0.0000
vt 0.6000 0.0000
vt 0.8000 0.0000
vt 0.8000 0.0000
vt 1.0000 0.0000
vt 0.5000 1.0000
vt 0.0000 0.0000
vt 0.2000 0.0000
vt 0.2000 0.0000
vt 0.4000 0.0000
vt 0.4000 0.0000
vt 0.6000 0.0000
vt 0.6000 0.0000
vt 0.8000 0.0000
vt 0.8000 0.0000
vt 1.0000 0.0000
vt 0.0000 0.0000
vt 1.0000 0.0000
vt 1.0000 1.0000
vt 0.0000 1.0000
vt 0.0000 0.0000
vt 1.0000 0.0000
vt 1.0000 1.0000
vt 0.0000 1.0000
vt 0.0000 0.0000
vt 1.0000 0.0000
vt 1.0000 1.0000
vt 0.0000 1.0000
vt 0.0000 0.0000
vt 1.0000 0.0000
vt 1.0000 1.0000
vt 0.0000 1.0000
vt 0.0000 0.0000
vt 1.0000 0.0000
vt 1.0000 1.0000
vt 0.0000 1.0000
vt 0.0000 0.0000
vt 1.0000 0.0000
vt 1.0000 1.0000
vt 0.0000 1.0000
vt 0.5000 1.0000
vt 0.0000 0.0000
vt 0.1667 0.0000
vt 0.1667 0.0000
vt 0.3333 0.0000
vt 0.3333 0.0000
vt 0.5000 0.0000
vt 0.5000 0.0000
vt 0.6667 0.0000
vt 0.6667 0.0000
vt 0.8333 0.0000
vt 0.8333 0.0000
vt 1.0000 0.0000
vt 0.5000 1.0000
vt 0.0000 0.0000
vt 0.1667 0.0000
vt 0.1667 0.0000
vt 0.3333 0.0000
vt 0.3333 0.0000
vt 0.5000 0.0000
vt 0.5000 0.0000
vt 0.6667 0.0000
vt 0.6667 0.0000
vt 0.8333 0.0000
vt 0.8333 0.0000
vt 1.0000 0.0000
vt 0.5000 1.0000
vt 0.0000 0.0000
vt 0.1667 0.0000
vt 0.1667 0.0000
vt 0.3333 0.0000
vt 0.3333 0.0000
vt 0.5000 0.0000
vt 0.5000 0.0000
vt 0.6667 0.0000
vt 0.6667 0.0000
vt 0.8333 0.0000
vt 0.8333 0.0000
vt 1.0000 0.0000
vt 0.0000 0.0000
vt 1.0000 0.0000
vt 1.0000 1.0000
vt 0.0000 1.0000
vt 0.0000 0.0000
vt 1.0000 0.0000
vt 1.0000 1.0000
vt 0.0000 1.0000
vt 0.0000 0.0000
vt 1.0000 0.0000
vt 1.0000 1.0000
vt 0.0000 1.0000
vt 0.0000 0.0000
vt 1.0000 0.0000
vt 1.0000 1.0000
vt 0.0000 1.0000
vt 0.0000 0.0000
vt 1.0000 0.0000
vt 1.0000 1.0000
vt 0.0000 1.0000
vt 0.0000 0.0000
vt 1.0000 0.0000
vt 1.0000 1.0000
vt 0.0000 1.0000
vt 0.0000 0.0000
vt 1.0000 0.0000
vt 1.0000 1.0000
vt 0.0000 1.0000
vt 0.0000 0.0000
vt 1.0000 0.0000
vt 1.0000 1.0000
vt 0.0000 1.0000
vt 0.0000 0.0000
vt 1.0000 0.0000
vt 1.0000 1.0000
vt 0.0000 1.0000
vt 0.0000 0.0000
vt 1.0000 0.0000
vt 1.0000 1.0000
vt 0.0000 1.0000
vt 0.0000 0.0000
vt 1.0000 0.0000
vt 1.0000 1.0000
vt 0.0000 1.0000
vt 0.0000 0.0000
vt 1.0000 0.0000
vt 1.0000 1.0000
vt 0.0000 1.0000
vt 0.5000 1.0000
vt 0.0000 0.0000
vt 0.1667 0.0000
vt 0.1667 0.0000
vt 0.3333 0.0000
vt 0.3333 0.0000
vt 0.5000 0.0000
vt 0.5000 0.0000
vt 0.6667 0.0000
vt 0.6667 0.0000
vt 0.8333 0.0000
vt 0.8333 0.0000
vt 1.0000 0.0000
vt 0.5000 1.0000
vt 0.0000 0.0000
vt 0.1667 0.0000
vt 0.1667 0.0000
vt 0.3333 0.0000
vt 0.3333 0.0000
vt 0.5000 0.0000
vt 0.5000 0.0000
vt 0.6667 0.0000
vt 0.6667 0.0000
vt 0.8333 0.0000
vt 0.8333 0.0000
vt 1.0000 0.0000
vt 0.5000 1.0000
vt 0.0000 0.0000
vt 0.1667 0.0000
vt 0.1667 0.0000
vt 0.3333 0.0000
vt 0.3333 0.0000
vt 0.5000 0.0000
vt 0.5000 0.0000
vt 0.6667 0.0000
vt 0.6667 0.0000
vt 0.8333 0.0000
vt 0.8333 0.0000
vt 1.0000 0.0000
vt 0.0000 0.0000
vt 1.0000 0.0000
vt 1.0000 1.0000
vt 0.0000 1.0000
vt 0.0000 0.0000
vt 1.0000 0.0000
vt 1.0000 1.0000
vt 0.0000 1.0000
vt 0.0000 0.0000
vt 1.0000 0.0000
vt 1.0000 1.0000
vt 0.0000 1.0000
vt 0.0000 0.0000
vt 1.0000 0.0000
vt 1.0000 1.0000
vt 0.0000 1.0000
vt 0.0000 0.0000
vt 1.0000 0.0000
vt 1.0000 1.0000
vt 0.0000 1.0000
vt 0.0000 0.0000
vt 1.0000 0.0000
vt 1.0000 1.0000
vt 0.0000 1.0000
vt 0.5000 1.0000
vt 0.0000 0.0000
vt 0.2000 0.0000
vt 0.2000 0.0000
vt 0.4000 0.0000
vt 0.4000 0.0000
vt 0.6000 0.0000
vt 0.6000 0.0000
vt 0.8000 0.0000
vt 0.8000 0.0000
vt 1.0000 0.0000
vt 0.5000 1.0000
vt 0.0000 0.0000
vt 0.2000 0.0000
vt 0.2000 0.0000
vt 0.4000 0.0000
vt 0.4000 0.0000
vt 0.6000 0.0000
vt 0.6000 0.0000
vt 0.8000 0.0000
vt 0.8000 0.0000
vt 1.0000 0.0000
vt 0.5000 1.0000
vt 0.0000 0.0000
vt 0.2000 0.0000
vt 0.2000 0.0000
vt 0.4000 0.0000
vt 0.4000 0.0000
vt 0.6000 0.0000
vt 0.6000 0.0000
vt 0.8000 0.0000
vt 0.8000 0.0000
vt 1.0000 0.0000
vn 0.0000 0.0000 1.0000
vn 0.0000 0.0000 -1.0000
vn 1.0000 0.0000 0.0000
vn -1.0000 0.0000 0.0000
vn 0.0000 1.0000 0.0000
vn 0.0000 -1.0000 0.0000
vn 0.0000 0.0000 1.0000
vn 0.0000 0.0000 -1.0000
vn 1.0000 0.0000 0.0000
vn -1.0000 0.0000 0.0000
vn 0.0000 1.0000 0.0000
vn 0.0000 -1.0000 0.0000
vn 0.0000 0.0000 1.0000
vn 0.0000 0.0000 -1.0000
vn 1.0000 0.0000 0.0000
vn -1.0000 0.0000 0.0000
vn 0.0000 1.0000 0.0000
vn 0.0000 -1.0000 0.0000
vn 0.0000 0.0000 1.0000
vn 0.0000 0.0000 -1.0000
vn 1.0000 0.0000 0.0000
vn -1.0000 0.0000 0.0000
vn 0.0000 1.0000 0.0000
vn 0.0000 -1.0000 0.0000
vn 0.0000 0.0000 1.0000
vn 0.0000 0.0000 -1.0000
vn 1.0000 0.0000 0.0000
vn -1.0000 0.0000 0.0000
vn 0.0000 1.0000 0.0000
vn 0.0000 -1.0000 0.0000
vn 0.0000 0.0000 1.0000
vn 0.0000 0.0000 -1.0000
vn 1.0000 0.0000 0.0000
vn -1.0000 0.0000 0.0000
vn 0.0000 1.0000 0.0000
vn 0.0000 -1.0000 0.0000
vn 0.0000 0.0000 1.0000
vn 0.0000 0.0000 -1.0000
vn 1.0000 0.0000 0.0000
vn -1.0000 0.0000 0.0000
vn 0.0000 1.0000 0.0000
vn 0.0000 -1.0000 0.0000
vn 0.0000 0.0000 1.0000
vn 0.0000 0.0000 -1.0000
vn 1.0000 0.0000 0.0000
vn -1.0000 0.0000 0.0000
vn 0.0000 1.0000 0.0000
vn 0.0000 -1.0000 0.0000
vn 0.0000 0.0000 1.0000
vn 0.0000 0.0000 -1.0000
vn 1.0000 0.0000 0.0000
vn -1.0000 0.0000 0.0000
vn 0.0000 1.0000 0.0000
vn 0.0000 -1.0000 0.0000
vn 0.0000 0.0000 1.0000
vn 0.0000 0.0000 -1.0000
vn 1.0000 0.0000 0.0000
vn -1.0000 0.0000 0.0000
vn 0.0000 1.0000 0.0000
vn 0.0000 -1.0000 0.0000
vn 0.0000 0.0000 1.0000
vn 0.0000 0.0000 -1.0000
vn 1.0000 0.0000 0.0000
vn -1.0000 0.0000 0.0000
vn 0.0000 1.0000 0.0000
vn 0.0000 -1.0000 0.0000
vn 0.0000 0.0000 1.0000
vn 0.0000 0.0000 -1.0000
vn 1.0000 0.0000 0.0000
vn -1.0000 0.0000 0.0000
vn 0.0000 1.0000 0.0000
vn 0.0000 -1.0000 0.0000
vn 0.0000 0.0000 1.0000
vn 0.0000 0.0000 -1.0000
vn 1.0000 0.0000 0.0000
vn -1.0000 0.0000 0.0000
vn 0.0000 1.0000 0.0000
vn 0.0000 -1.0000 0.0000
vn 0.9239 0.0000 0.3827
vn 0.3827 0.0000 0.9239
vn -0.3827 0.0000 0.9239
vn -0.9239 0.0000 0.3827
vn -0.9239 0.0000 -0.3827
vn -0.3827 0.0000 -0.9239
vn 0.3827 0.0000 -0.9239
vn 0.9239 0.0000 -0.3827
vn 0.0000 1.0000 0.0000
vn 0.0000 -1.0000 0.0000
vn 0.0000 0.0000 1.0000
vn 0.0000 0.0000 -1.0000
vn 1.0000 0.0000 0.0000
vn -1.0000 0.0000 0.0000
vn 0.0000 1.0000 0.0000
vn 0.0000 -1.0000 0.0000
vn 0.9239 0.0000 0.3827
vn 0.3827 0.0000 0.9239
vn -0.3827 0.0000 0.9239
vn -0.9239 0.0000 0.3827
vn -0.9239 0.0000 -0.3827
vn -0.3827 0.0000 -0.9239
vn 0.3827 0.0000 -0.9239
vn 0.9239 0.0000 -0.3827
vn 0.0000 1.0000 0.0000
vn 0.0000 -1.0000 0.0000
vn 0.0000 0.0000 1.0000
vn 0.0000 0.0000 -1.0000
vn 1.0000 0.0000 0.0000
vn -1.0000 0.0000 0.0000
vn 0.0000 1.0000 0.0000
vn 0.0000 -1.0000 0.0000
vn 0.0000 0.0000 1.0000
vn 0.0000 0.0000 -1.0000
vn 1.0000 0.0000 0.0000
vn -1.0000 0.0000 0.0000
vn 0.0000 1.0000 0.0000
vn 0.0000 -1.0000 0.0000
vn 0.0000 0.0000 1.0000
vn 0.0000 0.0000 -1.0000
vn 1.0000 0.0000 0.0000
vn -1.0000 0.0000 0.0000
vn 0.0000 1.0000 0.0000
vn 0.0000 -1.0000 0.0000
vn 0.0000 0.0000 1.0000
vn 0.0000 0.0000 -1.0000
vn 1.0000 0.0000 0.0000
vn -1.0000 0.0000 0.0000
vn 0.0000 1.0000 0.0000
vn 0.0000 -1.0000 0.0000
vn -0.9158 -0.0693 0.3956
vn -0.2528 0.4424 0.8605
vn 0.5246 0.7538 0.3956
vn 0.6390 0.5536 -0.5340
vn -0.0240 0.0419 -0.9988
vn -0.8014 -0.2695 -0.5340
vn -0.5246 0.7538 0.3956
vn 0.2528 0.4424 0.8605
vn 0.9158 -0.0693 0.3956
vn 0.8014 -0.2695 -0.5340
vn 0.0240 0.0419 -0.9988
vn -0.6390 0.5536 -0.5340
vn 0.0000 0.0000 1.0000
vn 0.0000 0.0000 -1.0000
vn 1.0000 0.0000 0.0000
vn -1.0000 0.0000 0.0000
vn 0.0000 1.0000 0.0000
vn 0.0000 -1.0000 0.0000
vn 0.0000 0.0000 1.0000
vn 0.0000 0.0000 -1.0000
vn 1.0000 0.0000 0.0000
vn -1.0000 0.0000 0.0000
vn 0.0000 1.0000 0.0000
vn 0.0000 -1.0000 0.0000
vn 0.7230 -0.3245 0.6100
vn -0.3092 -0.0303 0.9505
vn -0.9955 -0.0743 0.0589
vn -0.3875 -0.3956 -0.8327
vn 0.6746 -0.5503 -0.4921
vn 0.7749 -0.0946 0.6250
vn -0.2960 0.0155 0.9551
vn -0.9578 -0.2726 0.0909
vn -0.2960 -0.5607 -0.7733
vn 0.7749 -0.4506 -0.4432
vn 0.7924 0.0003 0.6100
vn -0.2696 -0.1543 0.9505
vn -0.8776 -0.4757 0.0589
vn -0.1913 -0.5197 -0.8327
vn 0.8408 -0.2255 -0.4921
vn 0.0000 0.0000 1.0000
vn 0.0000 0.0000 -1.0000
vn 1.0000 0.0000 0.0000
vn -1.0000 0.0000 0.0000
vn 0.0000 1.0000 0.0000
vn 0.0000 -1.0000 0.0000
vn -0.4818 0.7211 0.4979
vn 0.1389 0.1698 0.9756
vn 0.8022 -0.3294 0.4979
vn 0.8448 -0.2774 -0.4576
vn 0.2241 0.2739 -0.9353
vn -0.4392 0.7731 -0.4576
vn -0.2562 0.8821 0.3952
vn 0.3815 0.3391 0.8600
vn 0.8460 -0.3578 0.3952
vn 0.6730 -0.5117 -0.5342
vn 0.0353 0.0314 -0.9989
vn -0.4292 0.7283 -0.5342
vn -0.4292 0.7283 0.5342
vn 0.0353 0.0314 0.9989
vn 0.6730 -0.5117 0.5342
vn 0.8460 -0.3578 -0.3952
vn 0.3815 0.3391 -0.8600
vn -0.2562 0.8821 -0.3952
vn 0.0000 0.0000 1.0000
vn 0.0000 0.0000 -1.0000
vn 1.0000 0.0000 0.0000
vn -1.0000 0.0000 0.0000
vn 0.0000 1.0000 0.0000
vn 0.0000 -1.0000 0.0000
vn 0.0000 0.0000 1.0000
vn 0.0000 0.0000 -1.0000
vn 1.0000 0.0000 0.0000
vn -1.0000 0.0000 0.0000
vn 0.0000 1.0000 0.0000
vn 0.0000 -1.0000 0.0000
vn 0.1074 0.8588 0.5008
vn 0.2051 0.0342 0.9781
vn 0.3802 -0.7776 0.5008
vn 0.4576 -0.7647 -0.4538
vn 0.3599 0.0600 -0.9311
vn 0.1848 0.8717 -0.4538
vn 0.3171 0.8041 0.5029
vn 0.1990 -0.0181 0.9798
vn 0.1669 -0.8481 0.5029
vn 0.2529 -0.8559 -0.4511
vn 0.3710 -0.0337 -0.9280
vn 0.4031 0.7963 -0.4511
vn 0.4220 0.7495 0.5100
vn 0.1649 -0.0412 0.9855
vn 0.0196 -0.8599 0.5100
vn 0.1315 -0.8879 -0.4408
vn 0.3886 -0.0972 -0.9163
vn 0.5339 0.7216 -0.4408
vn 0.0000 0.0000 1.0000
vn 0.0000 0.0000 -1.0000
vn 1.0000 0.0000 0.0000
vn -1.0000 0.0000 0.0000
vn 0.0000 1.0000 0.0000
vn 0.0000 -1.0000 0.0000
vn 0.7749 0.0934 0.6251
vn -0.2960 0.2957 0.9083
vn -0.9578 -0.2338 0.1670
vn -0.2960 -0.7633 -0.5743
vn 0.7749 -0.5611 -0.2911
vn 0.7749 0.1079 0.6228
vn -0.2960 0.3167 0.9012
vn -0.9578 -0.2299 0.1724
vn -0.2960 -0.7764 -0.5563
vn 0.7749 -0.5677 -0.2780
vn 0.7749 0.0934 0.6251
vn -0.2960 0.2957 0.9083
vn -0.9578 -0.2338 0.1670
vn -0.2960 -0.7633 -0.5743
vn 0.7749 -0.5611 -0.2911
usemtl ChitinArmor
f 1/1/1 2/2/1 3/3/1
f 1/1/1 3/3/1 4/4/1
f 5/5/2 6/6/2 7/7/2
f 5/5/2 7/7/2 8/8/2
f 9/9/3 10/10/3 11/11/3
f 9/9/3 11/11/3 12/12/3
f 13/13/4 14/14/4 15/15/4
f 13/13/4 15/15/4 16/16/4
f 17/17/5 18/18/5 19/19/5
f 17/17/5 19/19/5 20/20/5
f 21/21/6 22/22/6 23/23/6
f 21/21/6 23/23/6 24/24/6
f 25/25/7 26/26/7 27/27/7
f 25/25/7 27/27/7 28/28/7
f 29/29/8 30/30/8 31/31/8
f 29/29/8 31/31/8 32/32/8
f 33/33/9 34/34/9 35/35/9
f 33/33/9 35/35/9 36/36/9
f 37/37/10 38/38/10 39/39/10
f 37/37/10 39/39/10 40/40/10
f 41/41/11 42/42/11 43/43/11
f 41/41/11 43/43/11 44/44/11
f 45/45/12 46/46/12 47/47/12
f 45/45/12 47/47/12 48/48/12
f 49/49/13 50/50/13 51/51/13
f 49/49/13 51/51/13 52/52/13
f 53/53/14 54/54/14 55/55/14
f 53/53/14 55/55/14 56/56/14
f 57/57/15 58/58/15 59/59/15
f 57/57/15 59/59/15 60/60/15
f 61/61/16 62/62/16 63/63/16
f 61/61/16 63/63/16 64/64/16
f 65/65/17 66/66/17 67/67/17
f 65/65/17 67/67/17 68/68/17
f 69/69/18 70/70/18 71/71/18
f 69/69/18 71/71/18 72/72/18
f 73/73/19 74/74/19 75/75/19
f 73/73/19 75/75/19 76/76/19
f 77/77/20 78/78/20 79/79/20
f 77/77/20 79/79/20 80/80/20
f 81/81/21 82/82/21 83/83/21
f 81/81/21 83/83/21 84/84/21
f 85/85/22 86/86/22 87/87/22
f 85/85/22 87/87/22 88/88/22
f 89/89/23 90/90/23 91/91/23
f 89/89/23 91/91/23 92/92/23
f 93/93/24 94/94/24 95/95/24
f 93/93/24 95/95/24 96/96/24
usemtl Flesh
f 97/97/25 98/98/25 99/99/25
f 97/97/25 99/99/25 100/100/25
f 101/101/26 102/102/26 103/103/26
f 101/101/26 103/103/26 104/104/26
f 105/105/27 106/106/27 107/107/27
f 105/105/27 107/107/27 108/108/27
f 109/109/28 110/110/28 111/111/28
f 109/109/28 111/111/28 112/112/28
f 113/113/29 114/114/29 115/115/29
f 113/113/29 115/115/29 116/116/29
f 117/117/30 118/118/30 119/119/30
f 117/117/30 119/119/30 120/120/30
f 121/121/31 122/122/31 123/123/31
f 121/121/31 123/123/31 124/124/31
f 125/125/32 126/126/32 127/127/32
f 125/125/32 127/127/32 128/128/32
f 129/129/33 130/130/33 131/131/33
f 129/129/33 131/131/33 132/132/33
f 133/133/34 134/134/34 135/135/34
f 133/133/34 135/135/34 136/136/34
f 137/137/35 138/138/35 139/139/35
f 137/137/35 139/139/35 140/140/35
f 141/141/36 142/142/36 143/143/36
f 141/141/36 143/143/36 144/144/36
usemtl ChitinArmor
f 145/145/37 146/146/37 147/147/37
f 145/145/37 147/147/37 148/148/37
f 149/149/38 150/150/38 151/151/38
f 149/149/38 151/151/38 152/152/38
f 153/153/39 154/154/39 155/155/39
f 153/153/39 155/155/39 156/156/39
f 157/157/40 158/158/40 159/159/40
f 157/157/40 159/159/40 160/160/40
f 161/161/41 162/162/41 163/163/41
f 161/161/41 163/163/41 164/164/41
f 165/165/42 166/166/42 167/167/42
f 165/165/42 167/167/42 168/168/42
f 169/169/43 170/170/43 171/171/43
f 169/169/43 171/171/43 172/172/43
f 173/173/44 174/174/44 175/175/44
f 173/173/44 175/175/44 176/176/44
f 177/177/45 178/178/45 179/179/45
f 177/177/45 179/179/45 180/180/45
f 181/181/46 182/182/46 183/183/46
f 181/181/46 183/183/46 184/184/46
f 185/185/47 186/186/47 187/187/47
f 185/185/47 187/187/47 188/188/47
f 189/189/48 190/190/48 191/191/48
f 189/189/48 191/191/48 192/192/48
f 193/193/49 194/194/49 195/195/49
f 193/193/49 195/195/49 196/196/49
f 197/197/50 198/198/50 199/199/50
f 197/197/50 199/199/50 200/200/50
f 201/201/51 202/202/51 203/203/51
f 201/201/51 203/203/51 204/204/51
f 205/205/52 206/206/52 207/207/52
f 205/205/52 207/207/52 208/208/52
f 209/209/53 210/210/53 211/211/53
f 209/209/53 211/211/53 212/212/53
f 213/213/54 214/214/54 215/215/54
f 213/213/54 215/215/54 216/216/54
f 217/217/55 218/218/55 219/219/55
f 217/217/55 219/219/55 220/220/55
f 221/221/56 222/222/56 223/223/56
f 221/221/56 223/223/56 224/224/56
f 225/225/57 226/226/57 227/227/57
f 225/225/57 227/227/57 228/228/57
f 229/229/58 230/230/58 231/231/58
f 229/229/58 231/231/58 232/232/58
f 233/233/59 234/234/59 235/235/59
f 233/233/59 235/235/59 236/236/59
f 237/237/60 238/238/60 239/239/60
f 237/237/60 239/239/60 240/240/60
f 241/241/61 242/242/61 243/243/61
f 241/241/61 243/243/61 244/244/61
f 245/245/62 246/246/62 247/247/62
f 245/245/62 247/247/62 248/248/62
f 249/249/63 250/250/63 251/251/63
f 249/249/63 251/251/63 252/252/63
f 253/253/64 254/254/64 255/255/64
f 253/253/64 255/255/64 256/256/64
f 257/257/65 258/258/65 259/259/65
f 257/257/65 259/259/65 260/260/65
f 261/261/66 262/262/66 263/263/66
f 261/261/66 263/263/66 264/264/66
f 265/265/67 266/266/67 267/267/67
f 265/265/67 267/267/67 268/268/67
f 269/269/68 270/270/68 271/271/68
f 269/269/68 271/271/68 272/272/68
f 273/273/69 274/274/69 275/275/69
f 273/273/69 275/275/69 276/276/69
f 277/277/70 278/278/70 279/279/70
f 277/277/70 279/279/70 280/280/70
f 281/281/71 282/282/71 283/283/71
f 281/281/71 283/283/71 284/284/71
f 285/285/72 286/286/72 287/287/72
f 285/285/72 287/287/72 288/288/72
usemtl WeakPoint
f 289/289/73 290/290/73 291/291/73
f 289/289/73 291/291/73 292/292/73
f 293/293/74 294/294/74 295/295/74
f 293/293/74 295/295/74 296/296/74
f 297/297/75 298/298/75 299/299/75
f 297/297/75 299/299/75 300/300/75
f 301/301/76 302/302/76 303/303/76
f 301/301/76 303/303/76 304/304/76
f 305/305/77 306/306/77 307/307/77
f 305/305/77 307/307/77 308/308/77
f 309/309/78 310/310/78 311/311/78
f 309/309/78 311/311/78 312/312/78
f 314/313/79 316/314/79 315/315/79
f 314/313/79 315/315/79 313/316/79
f 316/317/80 318/318/80 317/319/80
f 316/317/80 317/319/80 315/320/80
f 318/321/81 320/322/81 319/323/81
f 318/321/81 319/323/81 317/324/81
f 320/325/82 322/326/82 321/327/82
f 320/325/82 321/327/82 319/328/82
f 322/329/83 324/330/83 323/331/83
f 322/329/83 323/331/83 321/332/83
f 324/333/84 326/334/84 325/335/84
f 324/333/84 325/335/84 323/336/84
f 326/337/85 328/338/85 327/339/85
f 326/337/85 327/339/85 325/340/85
f 328/341/86 314/342/86 313/343/86
f 328/341/86 313/343/86 327/344/86
f 329/345/87 313/346/87 315/347/87
f 330/345/88 316/347/88 314/346/88
f 329/345/87 315/348/87 317/349/87
f 330/345/88 318/349/88 316/348/88
f 329/345/87 317/350/87 319/351/87
f 330/345/88 320/351/88 318/350/88
f 329/345/87 319/352/87 321/353/87
f 330/345/88 322/353/88 320/352/88
f 329/345/87 321/354/87 323/355/87
f 330/345/88 324/355/88 322/354/88
f 329/345/87 323/356/87 325/357/87
f 330/345/88 326/357/88 324/356/88
f 329/345/87 325/358/87 327/359/87
f 330/345/88 328/359/88 326/358/88
f 329/345/87 327/360/87 313/361/87
f 330/345/88 314/361/88 328/360/88
usemtl MoltenCore
f 331/362/89 332/363/89 333/364/89
f 331/362/89 333/364/89 334/365/89
f 335/366/90 336/367/90 337/368/90
f 335/366/90 337/368/90 338/369/90
f 339/370/91 340/371/91 341/372/91
f 339/370/91 341/372/91 342/373/91
f 343/374/92 344/375/92 345/376/92
f 343/374/92 345/376/92 346/377/92
f 347/378/93 348/379/93 349/380/93
f 347/378/93 349/380/93 350/381/93
f 351/382/94 352/383/94 353/384/94
f 351/382/94 353/384/94 354/385/94
f 356/386/95 358/387/95 357/388/95
f 356/386/95 357/388/95 355/389/95
f 358/390/96 360/391/96 359/392/96
f 358/390/96 359/392/96 357/393/96
f 360/394/97 362/395/97 361/396/97
f 360/394/97 361/396/97 359/397/97
f 362/398/98 364/399/98 363/400/98
f 362/398/98 363/400/98 361/401/98
f 364/402/99 366/403/99 365/404/99
f 364/402/99 365/404/99 363/405/99
f 366/406/100 368/407/100 367/408/100
f 366/406/100 367/408/100 365/409/100
f 368/410/101 370/411/101 369/412/101
f 368/410/101 369/412/101 367/413/101
f 370/414/102 356/415/102 355/416/102
f 370/414/102 355/416/102 369/417/102
f 371/418/103 355/419/103 357/420/103
f 372/418/104 358/420/104 356/419/104
f 371/418/103 357/421/103 359/422/103
f 372/418/104 360/422/104 358/421/104
f 371/418/103 359/423/103 361/424/103
f 372/418/104 362/424/104 360/423/104
f 371/418/103 361/425/103 363/426/103
f 372/418/104 364/426/104 362/425/104
f 371/418/103 363/427/103 365/428/103
f 372/418/104 366/428/104 364/427/104
f 371/418/103 365/429/103 367/430/103
f 372/418/104 368/430/104 366/429/104
f 371/418/103 367/431/103 369/432/103
f 372/418/104 370/432/104 368/431/104
f 371/418/103 369/433/103 355/434/103
f 372/418/104 356/434/104 370/433/104
usemtl ChitinArmor
f 373/435/105 374/436/105 375/437/105
f 373/435/105 375/437/105 376/438/105
f 377/439/106 378/440/106 379/441/106
f 377/439/106 379/441/106 380/442/106
f 381/443/107 382/444/107 383/445/107
f 381/443/107 383/445/107 384/446/107
f 385/447/108 386/448/108 387/449/108
f 385/447/108 387/449/108 388/450/108
f 389/451/109 390/452/109 391/453/109
f 389/451/109 391/453/109 392/454/109
f 393/455/110 394/456/110 395/457/110
f 393/455/110 395/457/110 396/458/110
usemtl MoltenCore
f 397/459/111 398/460/111 399/461/111
f 397/459/111 399/461/111 400/462/111
f 401/463/112 402/464/112 403/465/112
f 401/463/112 403/465/112 404/466/112
f 405/467/113 406/468/113 407/469/113
f 405/467/113 407/469/113 408/470/113
f 409/471/114 410/472/114 411/473/114
f 409/471/114 411/473/114 412/474/114
f 413/475/115 414/476/115 415/477/115
f 413/475/115 415/477/115 416/478/115
f 417/479/116 418/480/116 419/481/116
f 417/479/116 419/481/116 420/482/116
f 421/483/117 422/484/117 423/485/117
f 421/483/117 423/485/117 424/486/117
f 425/487/118 426/488/118 427/489/118
f 425/487/118 427/489/118 428/490/118
f 429/491/119 430/492/119 431/493/119
f 429/491/119 431/493/119 432/494/119
f 433/495/120 434/496/120 435/497/120
f 433/495/120 435/497/120 436/498/120
f 437/499/121 438/500/121 439/501/121
f 437/499/121 439/501/121 440/502/121
f 441/503/122 442/504/122 443/505/122
f 441/503/122 443/505/122 444/506/122
f 445/507/123 446/508/123 447/509/123
f 445/507/123 447/509/123 448/510/123
f 449/511/124 450/512/124 451/513/124
f 449/511/124 451/513/124 452/514/124
f 453/515/125 454/516/125 455/517/125
f 453/515/125 455/517/125 456/518/125
f 457/519/126 458/520/126 459/521/126
f 457/519/126 459/521/126 460/522/126
f 461/523/127 462/524/127 463/525/127
f 461/523/127 463/525/127 464/526/127
f 465/527/128 466/528/128 467/529/128
f 465/527/128 467/529/128 468/530/128
usemtl BoneSpikes
f 469/532/129 470/533/129 475/531/129
f 470/534/130 471/535/130 475/531/130
f 471/536/131 472/537/131 475/531/131
f 472/538/132 473/539/132 475/531/132
f 473/540/133 474/541/133 475/531/133
f 474/542/134 469/543/134 475/531/134
f 476/545/135 477/546/135 482/544/135
f 477/547/136 478/548/136 482/544/136
f 478/549/137 479/550/137 482/544/137
f 479/551/138 480/552/138 482/544/138
f 480/553/139 481/554/139 482/544/139
f 481/555/140 476/556/140 482/544/140
usemtl Flesh
f 483/557/141 484/558/141 485/559/141
f 483/557/141 485/559/141 486/560/141
f 487/561/142 488/562/142 489/563/142
f 487/561/142 489/563/142 490/564/142
f 491/565/143 492/566/143 493/567/143
f 491/565/143 493/567/143 494/568/143
f 495/569/144 496/570/144 497/571/144
f 495/569/144 497/571/144 498/572/144
f 499/573/145 500/574/145 501/575/145
f 499/573/145 501/575/145 502/576/145
f 503/577/146 504/578/146 505/579/146
f 503/577/146 505/579/146 506/580/146
f 507/581/147 508/582/147 509/583/147
f 507/581/147 509/583/147 510/584/147
f 511/585/148 512/586/148 513/587/148
f 511/585/148 513/587/148 514/588/148
f 515/589/149 516/590/149 517/591/149
f 515/589/149 517/591/149 518/592/149
f 519/593/150 520/594/150 521/595/150
f 519/593/150 521/595/150 522/596/150
f 523/597/151 524/598/151 525/599/151
f 523/597/151 525/599/151 526/600/151
f 527/601/152 528/602/152 529/603/152
f 527/601/152 529/603/152 530/604/152
usemtl BoneSpikes
f 531/606/153 532/607/153 536/605/153
f 532/608/154 533/609/154 536/605/154
f 533/610/155 534/611/155 536/605/155
f 534/612/156 535/613/156 536/605/156
f 535/614/157 531/615/157 536/605/157
f 537/617/158 538/618/158 542/616/158
f 538/619/159 539/620/159 542/616/159
f 539/621/160 540/622/160 542/616/160
f 540/623/161 541/624/161 542/616/161
f 541/625/162 537/626/162 542/616/162
f 543/628/163 544/629/163 548/627/163
f 544/630/164 545/631/164 548/627/164
f 545/632/165 546/633/165 548/627/165
f 546/634/166 547/635/166 548/627/166
f 547/636/167 543/637/167 548/627/167
usemtl ChitinArmor
f 549/638/168 550/639/168 551/640/168
f 549/638/168 551/640/168 552/641/168
f 553/642/169 554/643/169 555/644/169
f 553/642/169 555/644/169 556/645/169
f 557/646/170 558/647/170 559/648/170
f 557/646/170 559/648/170 560/649/170
f 561/650/171 562/651/171 563/652/171
f 561/650/171 563/652/171 564/653/171
f 565/654/172 566/655/172 567/656/172
f 565/654/172 567/656/172 568/657/172
f 569/658/173 570/659/173 571/660/173
f 569/658/173 571/660/173 572/661/173
usemtl BoneSpikes
f 573/663/174 574/664/174 579/662/174
f 574/665/175 575/666/175 579/662/175
f 575/667/176 576/668/176 579/662/176
f 576/669/177 577/670/177 579/662/177
f 577/671/178 578/672/178 579/662/178
f 578/673/179 573/674/179 579/662/179
f 580/676/180 581/677/180 586/675/180
f 581/678/181 582/679/181 586/675/181
f 582/680/182 583/681/182 586/675/182
f 583/682/183 584/683/183 586/675/183
f 584/684/184 585/685/184 586/675/184
f 585/686/185 580/687/185 586/675/185
f 587/689/186 588/690/186 593/688/186
f 588/691/187 589/692/187 593/688/187
f 589/693/188 590/694/188 593/688/188
f 590/695/189 591/696/189 593/688/189
f 591/697/190 592/698/190 593/688/190
f 592/699/191 587/700/191 593/688/191
usemtl Flesh
f 594/701/192 595/702/192 596/703/192
f 594/701/192 596/703/192 597/704/192
f 598/705/193 599/706/193 600/707/193
f 598/705/193 600/707/193 601/708/193
f 602/709/194 603/710/194 604/711/194
f 602/709/194 604/711/194 605/712/194
f 606/713/195 607/714/195 608/715/195
f 606/713/195 608/715/195 609/716/195
f 610/717/196 611/718/196 612/719/196
f 610/717/196 612/719/196 613/720/196
f 614/721/197 615/722/197 616/723/197
f 614/721/197 616/723/197 617/724/197
usemtl MoltenCore
f 618/725/198 619/726/198 620/727/198
f 618/725/198 620/727/198 621/728/198
f 622/729/199 623/730/199 624/731/199
f 622/729/199 624/731/199 625/732/199
f 626/733/200 627/734/200 628/735/200
f 626/733/200 628/735/200 629/736/200
f 630/737/201 631/738/201 632/739/201
f 630/737/201 632/739/201 633/740/201
f 634/741/202 635/742/202 636/743/202
f 634/741/202 636/743/202 637/744/202
f 638/745/203 639/746/203 640/747/203
f 638/745/203 640/747/203 641/748/203
usemtl BoneSpikes
f 642/750/204 643/751/204 648/749/204
f 643/752/205 644/753/205 648/749/205
f 644/754/206 645/755/206 648/749/206
f 645/756/207 646/757/207 648/749/207
f 646/758/208 647/759/208 648/749/208
f 647/760/209 642/761/209 648/749/209
f 649/763/210 650/764/210 655/762/210
f 650/765/211 651/766/211 655/762/211
f 651/767/212 652/768/212 655/762/212
f 652/769/213 653/770/213 655/762/213
f 653/771/214 654/772/214 655/762/214
f 654/773/215 649/774/215 655/762/215
f 656/776/216 657/777/216 662/775/216
f 657/778/217 658/779/217 662/775/217
f 658/780/218 659/781/218 662/775/218
f 659/782/219 660/783/219 662/775/219
f 660/784/220 661/785/220 662/775/220
f 661/786/221 656/787/221 662/775/221
usemtl ChitinArmor
f 663/788/222 664/789/222 665/790/222
f 663/788/222 665/790/222 666/791/222
f 667/792/223 668/793/223 669/794/223
f 667/792/223 669/794/223 670/795/223
f 671/796/224 672/797/224 673/798/224
f 671/796/224 673/798/224 674/799/224
f 675/800/225 676/801/225 677/802/225
f 675/800/225 677/802/225 678/803/225
f 679/804/226 680/805/226 681/806/226
f 679/804/226 681/806/226 682/807/226
f 683/808/227 684/809/227 685/810/227
f 683/808/227 685/810/227 686/811/227
usemtl BoneSpikes
f 687/813/228 688/814/228 692/812/228
f 688/815/229 689/816/229 692/812/229
f 689/817/230 690/818/230 692/812/230
f 690/819/231 691/820/231 692/812/231
f 691/821/232 687/822/232 692/812/232
f 693/824/233 694/825/233 698/823/233
f 694/826/234 695/827/234 698/823/234
f 695/828/235 696/829/235 698/823/235
f 696/830/236 697/831/236 698/823/236
f 697/832/237 693/833/237 698/823/237
f 699/835/238 700/836/238 704/834/238
f 700/837/239 701/838/239 704/834/239
f 701/839/240 702/840/240 704/834/240
f 702/841/241 703/842/241 704/834/241
f 703/843/242 699/844/242 704/834/242
