# Generated Boss Asset
mtllib boss.mtl
v -0.2250 0.3400 0.5500
v 0.2250 0.3400 0.5500
v 0.2250 0.7600 0.5500
v -0.2250 0.7600 0.5500
v 0.2250 0.3400 -0.5500
v -0.2250 0.3400 -0.5500
v -0.2250 0.7600 -0.5500
v 0.2250 0.7600 -0.5500
v 0.2250 0.3400 0.5500
v 0.2250 0.3400 -0.5500
v 0.2250 0.7600 -0.5500
v 0.2250 0.7600 0.5500
v -0.2250 0.3400 -0.5500
v -0.2250 0.3400 0.5500
v -0.2250 0.7600 0.5500
v -0.2250 0.7600 -0.5500
v -0.2250 0.7600 0.5500
v 0.2250 0.7600 0.5500
v 0.2250 0.7600 -0.5500
v -0.2250 0.7600 -0.5500
v -0.2250 0.3400 -0.5500
v 0.2250 0.3400 -0.5500
v 0.2250 0.3400 0.5500
v -0.2250 0.3400 0.5500
v -0.2600 0.4800 0.6500
v 0.2600 0.4800 0.6500
v 0.2600 0.9600 0.6500
v -0.2600 0.9600 0.6500
v 0.2600 0.4800 0.0500
v -0.2600 0.4800 0.0500
v -0.2600 0.9600 0.0500
v 0.2600 0.9600 0.0500
v 0.2600 0.4800 0.6500
v 0.2600 0.4800 0.0500
v 0.2600 0.9600 0.0500
v 0.2600 0.9600 0.6500
v -0.2600 0.4800 0.0500
v -0.2600 0.4800 0.6500
v -0.2600 0.9600 0.6500
v -0.2600 0.9600 0.0500
v -0.2600 0.9600 0.6500
v 0.2600 0.9600 0.6500
v 0.2600 0.9600 0.0500
v -0.2600 0.9600 0.0500
v -0.2600 0.4800 0.0500
v 0.2600 0.4800 0.0500
v 0.2600 0.4800 0.6500
v -0.2600 0.4800 0.6500
v -0.2077 0.8835 0.4000
v -0.1522 0.9079 0.4594
v -0.0923 0.9165 0.4000
v -0.1478 0.8921 0.3406
v -0.2500 1.2500 0.3500
v 0.0923 0.9165 0.4000
v 0.1522 0.9079 0.4594
v 0.2077 0.8835 0.4000
v 0.1478 0.8921 0.3406
v 0.2500 1.2500 0.3500
v -0.0500 0.8000 0.0000
v -0.0000 0.8071 0.0495
v 0.0500 0.8000 0.0000
v 0.0000 0.7929 -0.0495
v 0.0000 1.1500 -0.0500
v -0.0500 0.7500 -0.3000
v -0.0000 0.7582 -0.2507
v 0.0500 0.7500 -0.3000
v 0.0000 0.7418 -0.3493
v 0.0000 1.0500 -0.3500
v -0.1600 0.5500 1.1000
v 0.1600 0.5500 1.1000
v 0.1600 0.8500 1.1000
v -0.1600 0.8500 1.1000
v 0.1600 0.5500 0.6000
v -0.1600 0.5500 0.6000
v -0.1600 0.8500 0.6000
v 0.1600 0.8500 0.6000
v 0.1600 0.5500 1.1000
v 0.1600 0.5500 0.6000
v 0.1600 0.8500 0.6000
v 0.1600 0.8500 1.1000
v -0.1600 0.5500 0.6000
v -0.1600 0.5500 1.1000
v -0.1600 0.8500 1.1000
v -0.1600 0.8500 0.6000
v -0.1600 0.8500 1.1000
v 0.1600 0.8500 1.1000
v 0.1600 0.8500 0.6000
v -0.1600 0.8500 0.6000
v -0.1600 0.5500 0.6000
v 0.1600 0.5500 0.6000
v 0.1600 0.5500 1.1000
v -0.1600 0.5500 1.1000
v -0.1100 0.5300 1.3500
v 0.1100 0.5300 1.3500
v 0.1100 0.7100 1.3500
v -0.1100 0.7100 1.3500
v 0.1100 0.5300 0.9500
v -0.1100 0.5300 0.9500
v -0.1100 0.7100 0.9500
v 0.1100 0.7100 0.9500
v 0.1100 0.5300 1.3500
v 0.1100 0.5300 0.9500
v 0.1100 0.7100 0.9500
v 0.1100 0.7100 1.3500
v -0.1100 0.5300 0.9500
v -0.1100 0.5300 1.3500
v -0.1100 0.7100 1.3500
v -0.1100 0.7100 0.9500
v -0.1100 0.7100 1.3500
v 0.1100 0.7100 1.3500
v 0.1100 0.7100 0.9500
v -0.1100 0.7100 0.9500
v -0.1100 0.5300 0.9500
v 0.1100 0.5300 0.9500
v 0.1100 0.5300 1.3500
v -0.1100 0.5300 1.3500
v -0.1600 0.7200 0.9900
v -0.0800 0.7200 0.9900
v -0.0800 0.8000 0.9900
v -0.1600 0.8000 0.9900
v -0.0800 0.7200 0.9100
v -0.1600 0.7200 0.9100
v -0.1600 0.8000 0.9100
v -0.0800 0.8000 0.9100
v -0.0800 0.7200 0.9900
v -0.0800 0.7200 0.9100
v -0.0800 0.8000 0.9100
v -0.0800 0.8000 0.9900
v -0.1600 0.7200 0.9100
v -0.1600 0.7200 0.9900
v -0.1600 0.8000 0.9900
v -0.1600 0.8000 0.9100
v -0.1600 0.8000 0.9900
v -0.0800 0.8000 0.9900
v -0.0800 0.8000 0.9100
v -0.1600 0.8000 0.9100
v -0.1600 0.7200 0.9100
v -0.0800 0.7200 0.9100
v -0.0800 0.7200 0.9900
v -0.1600 0.7200 0.9900
v 0.0800 0.7200 0.9900
v 0.1600 0.7200 0.9900
v 0.1600 0.8000 0.9900
v 0.0800 0.8000 0.9900
v 0.1600 0.7200 0.9100
v 0.0800 0.7200 0.9100
v 0.0800 0.8000 0.9100
v 0.1600 0.8000 0.9100
v 0.1600 0.7200 0.9900
v 0.1600 0.7200 0.9100
v 0.1600 0.8000 0.9100
v 0.1600 0.8000 0.9900
v 0.0800 0.7200 0.9100
v 0.0800 0.7200 0.9900
v 0.0800 0.8000 0.9900
v 0.0800 0.8000 0.9100
v 0.0800 0.8000 0.9900
v 0.1600 0.8000 0.9900
v 0.1600 0.8000 0.9100
v 0.0800 0.8000 0.9100
v 0.0800 0.7200 0.9100
v 0.1600 0.7200 0.9100
v 0.1600 0.7200 0.9900
v 0.0800 0.7200 0.9900
v -0.0600 0.5800 1.2500
v -0.0900 0.5833 1.2798
v -0.1200 0.5800 1.2500
v -0.0900 0.5767 1.2202
v -0.0900 0.4000 1.2700
v 0.1200 0.5800 1.2500
v 0.0900 0.5833 1.2798
v 0.0600 0.5800 1.2500
v 0.0900 0.5767 1.2202
v 0.0900 0.4000 1.2700
v -0.3150 0.0000 0.4900
v -0.1650 0.0000 0.4900
v -0.1650 0.6000 0.4900
v -0.3150 0.6000 0.4900
v -0.1650 0.0000 0.3100
v -0.3150 0.0000 0.3100
v -0.3150 0.6000 0.3100
v -0.1650 0.6000 0.3100
v -0.1650 0.0000 0.4900
v -0.1650 0.0000 0.3100
v -0.1650 0.6000 0.3100
v -0.1650 0.6000 0.4900
v -0.3150 0.0000 0.3100
v -0.3150 0.0000 0.4900
v -0.3150 0.6000 0.4900
v -0.3150 0.6000 0.3100
v -0.3150 0.6000 0.4900
v -0.1650 0.6000 0.4900
v -0.1650 0.6000 0.3100
v -0.3150 0.6000 0.3100
v -0.3150 0.0000 0.3100
v -0.1650 0.0000 0.3100
v -0.1650 0.0000 0.4900
v -0.3150 0.0000 0.4900
v 0.1650 0.0000 0.4900
v 0.3150 0.0000 0.4900
v 0.3150 0.6000 0.4900
v 0.1650 0.6000 0.4900
v 0.3150 0.0000 0.3100
v 0.1650 0.0000 0.3100
v 0.1650 0.6000 0.3100
v 0.3150 0.6000 0.3100
v 0.3150 0.0000 0.4900
v 0.3150 0.0000 0.3100
v 0.3150 0.6000 0.3100
v 0.3150 0.6000 0.4900
v 0.1650 0.0000 0.3100
v 0.1650 0.0000 0.4900
v 0.1650 0.6000 0.4900
v 0.1650 0.6000 0.3100
v 0.1650 0.6000 0.4900
v 0.3150 0.6000 0.4900
v 0.3150 0.6000 0.3100
v 0.1650 0.6000 0.3100
v 0.1650 0.0000 0.3100
v 0.3150 0.0000 0.3100
v 0.3150 0.0000 0.4900
v 0.1650 0.0000 0.4900
v -0.3000 0.0000 -0.2900
v -0.1400 0.0000 -0.2900
v -0.1400 0.6400 -0.2900
v -0.3000 0.6400 -0.2900
v -0.1400 0.0000 -0.5100
v -0.3000 0.0000 -0.5100
v -0.3000 0.6400 -0.5100
v -0.1400 0.6400 -0.5100
v -0.1400 0.0000 -0.2900
v -0.1400 0.0000 -0.5100
v -0.1400 0.6400 -0.5100
v -0.1400 0.6400 -0.2900
v -0.3000 0.0000 -0.5100
v -0.3000 0.0000 -0.2900
v -0.3000 0.6400 -0.2900
v -0.3000 0.6400 -0.5100
v -0.3000 0.6400 -0.2900
v -0.1400 0.6400 -0.2900
v -0.1400 0.6400 -0.5100
v -0.3000 0.6400 -0.5100
v -0.3000 0.0000 -0.5100
v -0.1400 0.0000 -0.5100
v -0.1400 0.0000 -0.2900
v -0.3000 0.0000 -0.2900
v 0.1400 0.0000 -0.2900
v 0.3000 0.0000 -0.2900
v 0.3000 0.6400 -0.2900
v 0.1400 0.6400 -0.2900
v 0.3000 0.0000 -0.5100
v 0.1400 0.0000 -0.5100
v 0.1400 0.6400 -0.5100
v 0.3000 0.6400 -0.5100
v 0.3000 0.0000 -0.2900
v 0.3000 0.0000 -0.5100
v 0.3000 0.6400 -0.5100
v 0.3000 0.6400 -0.2900
v 0.1400 0.0000 -0.5100
v 0.1400 0.0000 -0.2900
v 0.1400 0.6400 -0.2900
v 0.1400 0.6400 -0.5100
v 0.1400 0.6400 -0.2900
v 0.3000 0.6400 -0.2900
v 0.3000 0.6400 -0.5100
v 0.1400 0.6400 -0.5100
v 0.1400 0.0000 -0.5100
v 0.3000 0.0000 -0.5100
v 0.3000 0.0000 -0.2900
v 0.1400 0.0000 -0.2900
vt 0.0000 0.0000
vt 1.0000 0.0000
vt 1.0000 1.0000
vt 0.0000 1.0000
vt 0.0000 0.0000
vt 1.0000 0.0000
vt 1.0000 1.0000
vt 0.0000 1.0000
vt 0.0000 0.0000
vt 1.0000 0.0000
vt 1.0000 1.0000
vt 0.0000 1.0000
vt 0.0000 0.0000
vt 1.0000 0.0000
vt 1.0000 1.0000
vt 0.0000 1.0000
vt 0.0000 0.0000
vt 1.0000 0.0000
vt 1.0000 1.0000
vt 0.0000 1.0000
vt 0.0000 0.0000
vt 1.0000 0.0000
vt 1.0000 1.0000
vt 0.0000 1.0000
vt 0.0000 0.0000
vt 1.0000 0.0000
vt 1.0000 1.0000
vt 0.0000 1.0000
vt 0.0000 0.0000
vt 1.0000 0.0000
vt 1.0000 1.0000
vt 0.0000 1.0000
vt 0.0000 0.0000
vt 1.0000 0.0000
vt 1.0000 1.0000
vt 0.0000 1.0000
vt 0.0000 0.0000
vt 1.0000 0.0000
vt 1.0000 1.0000
vt 0.0000 1.0000
vt 0.0000 0.0000
vt 1.0000 0.0000
vt 1.0000 1.0000
vt 0.0000 1.0000
vt 0.0000 0.0000
vt 1.0000 0.0000
vt 1.0000 1.0000
vt 0.0000 1.0000
vt 0.5000 1.0000
vt 0.0000 0.0000
vt 0.2500 0.0000
vt 0.2500 0.0000
vt 0.5000 0.0000
vt 0.5000 0.0000
vt 0.7500 0.0000
vt 0.7500 0.0000
vt 1.0000 0.0000
vt 0.5000 1.0000
vt 0.0000 0.0000
vt 0.2500 0.0000
vt 0.2500 0.0000
vt 0.5000 0.0000
vt 0.5000 0.0000
vt 0.7500 0.0000
vt 0.7500 0.0000
vt 1.0000 0.0000
vt 0.5000 1.0000
vt 0.0000 0.0000
vt 0.2500 0.0000
vt 0.2500 0.0000
vt 0.5000 0.0000
vt 0.5000 0.0000
vt 0.7500 0.0000
vt 0.7500 0.0000
vt 1.0000 0.0000
vt 0.5000 1.0000
vt 0.0000 0.0000
vt 0.2500 0.0000
vt 0.2500 0.0000
vt 0.5000 0.0000
vt 0.5000 0.0000
vt 0.7500 0.0000
vt 0.7500 0.0000
vt 1.0000 0.0000
vt 0.0000 0.0000
vt 1.0000 0.0000
vt 1.0000 1.0000
vt 0.0000 1.0000
vt 0.0000 0.0000
vt 1.0000 0.0000
vt 1.0000 1.0000
vt 0.0000 1.0000
vt 0.0000 0.0000
vt 1.0000 0.0000
vt 1.0000 1.0000
vt 0.0000 1.0000
vt 0.0000 0.0000
vt 1.0000 0.0000
vt 1.0000 1.0000
vt 0.0000 1.0000
vt 0.0000 0.0000
vt 1.0000 0.0000
vt 1.0000 1.0000
vt 0.0000 1.0000
vt 0.0000 0.0000
vt 1.0000 0.0000
vt 1.0000 1.0000
vt 0.0000 1.0000
vt 0.0000 0.0000
vt 1.0000 0.0000
vt 1.0000 1.0000
vt 0.0000 1.0000
vt 0.0000 0.0000
vt 1.0000 0.0000
vt 1.0000 1.0000
vt 0.0000 1.0000
vt 0.0000 0.0000
vt 1.0000 0.0000
vt 1.0000 1.0000
vt 0.0000 1.0000
vt 0.0000 0.0000
vt 1.0000 0.0000
vt 1.0000 1.0000
vt 0.0000 1.0000
vt 0.0000 0.0000
vt 1.0000 0.0000
vt 1.0000 1.0000
vt 0.0000 1.0000
vt 0.0000 0.0000
vt 1.0000 0.0000
vt 1.0000 1.0000
vt 0.0000 1.0000
vt 0.0000 0.0000
vt 1.0000 0.0000
vt 1.0000 1.0000
vt 0.0000 1.0000
vt 0.0000 0.0000
vt 1.0000 0.0000
vt 1.0000 1.0000
vt 0.0000 1.0000
vt 0.0000 0.0000
vt 1.0000 0.0000
vt 1.0000 1.0000
vt 0.0000 1.0000
vt 0.0000 0.0000
vt 1.0000 0.0000
vt 1.0000 1.0000
vt 0.0000 1.0000
vt 0.0000 0.0000
vt 1.0000 0.0000
vt 1.0000 1.0000
vt 0.0000 1.0000
vt 0.0000 0.0000
vt 1.0000 0.0000
vt 1.0000 1.0000
vt 0.0000 1.0000
vt 0.0000 0.0000
vt 1.0000 0.0000
vt 1.0000 1.0000
vt 0.0000 1.0000
vt 0.0000 0.0000
vt 1.0000 0.0000
vt 1.0000 1.0000
vt 0.0000 1.0000
vt 0.0000 0.0000
vt 1.0000 0.0000
vt 1.0000 1.0000
vt 0.0000 1.0000
vt 0.0000 0.0000
vt 1.0000 0.0000
vt 1.0000 1.0000
vt 0.0000 1.0000
vt 0.0000 0.0000
vt 1.0000 0.0000
vt 1.0000 1.0000
vt 0.0000 1.0000
vt 0.0000 0.0000
vt 1.0000 0.0000
vt 1.0000 1.0000
vt 0.0000 1.0000
vt 0.5000 1.0000
vt 0.0000 0.0000
vt 0.2500 0.0000
vt 0.2500 0.0000
vt 0.5000 0.0000
vt 0.5000 0.0000
vt 0.7500 0.0000
vt 0.7500 0.0000
vt 1.0000 0.0000
vt 0.5000 1.0000
vt 0.0000 0.0000
vt 0.2500 0.0000
vt 0.2500 0.0000
vt 0.5000 0.0000
vt 0.5000 0.0000
vt 0.7500 0.0000
vt 0.7500 0.0000
vt 1.0000 0.0000
vt 0.0000 0.0000
vt 1.0000 0.0000
vt 1.0000 1.0000
vt 0.0000 1.0000
vt 0.0000 0.0000
vt 1.0000 0.0000
vt 1.0000 1.0000
vt 0.0000 1.0000
vt 0.0000 0.0000
vt 1.0000 0.0000
vt 1.0000 1.0000
vt 0.0000 1.0000
vt 0.0000 0.0000
vt 1.0000 0.0000
vt 1.0000 1.0000
vt 0.0000 1.0000
vt 0.0000 0.0000
vt 1.0000 0.0000
vt 1.0000 1.0000
vt 0.0000 1.0000
vt 0.0000 0.0000
vt 1.0000 0.0000
vt 1.0000 1.0000
vt 0.0000 1.0000
vt 0.0000 0.0000
vt 1.0000 0.0000
vt 1.0000 1.0000
vt 0.0000 1.0000
vt 0.0000 0.0000
vt 1.0000 0.0000
vt 1.0000 1.0000
vt 0.0000 1.0000
vt 0.0000 0.0000
vt 1.0000 0.0000
vt 1.0000 1.0000
vt 0.0000 1.0000
vt 0.0000 0.0000
vt 1.0000 0.0000
vt 1.0000 1.0000
vt 0.0000 1.0000
vt 0.0000 0.0000
vt 1.0000 0.0000
vt 1.0000 1.0000
vt 0.0000 1.0000
vt 0.0000 0.0000
vt 1.0000 0.0000
vt 1.0000 1.0000
vt 0.0000 1.0000
vt 0.0000 0.0000
vt 1.0000 0.0000
vt 1.0000 1.0000
vt 0.0000 1.0000
vt 0.0000 0.0000
vt 1.0000 0.0000
vt 1.0000 1.0000
vt 0.0000 1.0000
vt 0.0000 0.0000
vt 1.0000 0.0000
vt 1.0000 1.0000
vt 0.0000 1.0000
vt 0.0000 0.0000
vt 1.0000 0.0000
vt 1.0000 1.0000
vt 0.0000 1.0000
vt 0.0000 0.0000
vt 1.0000 0.0000
vt 1.0000 1.0000
vt 0.0000 1.0000
vt 0.0000 0.0000
vt 1.0000 0.0000
vt 1.0000 1.0000
vt 0.0000 1.0000
vt 0.0000 0.0000
vt 1.0000 0.0000
vt 1.0000 1.0000
vt 0.0000 1.0000
vt 0.0000 0.0000
vt 1.0000 0.0000
vt 1.0000 1.0000
vt 0.0000 1.0000
vt 0.0000 0.0000
vt 1.0000 0.0000
vt 1.0000 1.0000
vt 0.0000 1.0000
vt 0.0000 0.0000
vt 1.0000 0.0000
vt 1.0000 1.0000
vt 0.0000 1.0000
vt 0.0000 0.0000
vt 1.0000 0.0000
vt 1.0000 1.0000
vt 0.0000 1.0000
vt 0.0000 0.0000
vt 1.0000 0.0000
vt 1.0000 1.0000
vt 0.0000 1.0000
vn 0.0000 0.0000 1.0000
vn 0.0000 0.0000 -1.0000
vn 1.0000 0.0000 0.0000
vn -1.0000 0.0000 0.0000
vn 0.0000 1.0000 0.0000
vn 0.0000 -1.0000 0.0000
vn 0.0000 0.0000 1.0000
vn 0.0000 0.0000 -1.0000
vn 1.0000 0.0000 0.0000
vn -1.0000 0.0000 0.0000
vn 0.0000 1.0000 0.0000
vn 0.0000 -1.0000 0.0000
vn -0.7548 0.1763 0.6319
vn 0.5477 0.5484 0.6319
vn 0.5983 0.3712 -0.7101
vn -0.7041 -0.0010 -0.7101
vn -0.5477 0.5484 0.6319
vn 0.7548 0.1763 0.6319
vn 0.7041 -0.0010 -0.7101
vn -0.5983 0.3712 -0.7101
vn -0.6773 0.3802 0.6298
vn 0.6773 0.3802 0.6298
vn 0.6773 0.1887 -0.7111
vn -0.6773 0.1887 -0.7111
vn -0.6773 0.3948 0.6208
vn 0.6773 0.3948 0.6208
vn 0.6773 0.1721 -0.7153
vn -0.6773 0.1721 -0.7153
vn 0.0000 0.0000 1.0000
vn 0.0000 0.0000 -1.0000
vn 1.0000 0.0000 0.0000
vn -1.0000 0.0000 0.0000
vn 0.0000 1.0000 0.0000
vn 0.0000 -1.0000 0.0000
vn 0.0000 0.0000 1.0000
vn 0.0000 0.0000 -1.0000
vn 1.0000 0.0000 0.0000
vn -1.0000 0.0000 0.0000
vn 0.0000 1.0000 0.0000
vn 0.0000 -1.0000 0.0000
vn 0.0000 0.0000 1.0000
vn 0.0000 0.0000 -1.0000
vn 1.0000 0.0000 0.0000
vn -1.0000 0.0000 0.0000
vn 0.0000 1.0000 0.0000
vn 0.0000 -1.0000 0.0000
vn 0.0000 0.0000 1.0000
vn 0.0000 0.0000 -1.0000
vn 1.0000 0.0000 0.0000
vn -1.0000 0.0000 0.0000
vn 0.0000 1.0000 0.0000
vn 0.0000 -1.0000 0.0000
vn 0.6773 -0.2108 0.7049
vn -0.6773 -0.2108 0.7049
vn -0.6773 -0.3604 -0.6414
vn 0.6773 -0.3604 -0.6414
vn 0.6773 -0.2108 0.7049
vn -0.6773 -0.2108 0.7049
vn -0.6773 -0.3604 -0.6414
vn 0.6773 -0.3604 -0.6414
vn 0.0000 0.0000 1.0000
vn 0.0000 0.0000 -1.0000
vn 1.0000 0.0000 0.0000
vn -1.0000 0.0000 0.0000
vn 0.0000 1.0000 0.0000
vn 0.0000 -1.0000 0.0000
vn 0.0000 0.0000 1.0000
vn 0.0000 0.0000 -1.0000
vn 1.0000 0.0000 0.0000
vn -1.0000 0.0000 0.0000
vn 0.0000 1.0000 0.0000
vn 0.0000 -1.0000 0.0000
vn 0.0000 0.0000 1.0000
vn 0.0000 0.0000 -1.0000
vn 1.0000 0.0000 0.0000
vn -1.0000 0.0000 0.0000
vn 0.0000 1.0000 0.0000
vn 0.0000 -1.0000 0.0000
vn 0.0000 0.0000 1.0000
vn 0.0000 0.0000 -1.0000
vn 1.0000 0.0000 0.0000
vn -1.0000 0.0000 0.0000
vn 0.0000 1.0000 0.0000
vn 0.0000 -1.0000 0.0000
usemtl HoundSkin
f 1/1/1 2/2/1 3/3/1
f 1/1/1 3/3/1 4/4/1
f 5/5/2 6/6/2 7/7/2
f 5/5/2 7/7/2 8/8/2
f 9/9/3 10/10/3 11/11/3
f 9/9/3 11/11/3 12/12/3
f 13/13/4 14/14/4 15/15/4
f 13/13/4 15/15/4 16/16/4
f 17/17/5 18/18/5 19/19/5
f 17/17/5 19/19/5 20/20/5
f 21/21/6 22/22/6 23/23/6
f 21/21/6 23/23/6 24/24/6
f 25/25/7 26/26/7 27/27/7
f 25/25/7 27/27/7 28/28/7
f 29/29/8 30/30/8 31/31/8
f 29/29/8 31/31/8 32/32/8
f 33/33/9 34/34/9 35/35/9
f 33/33/9 35/35/9 36/36/9
f 37/37/10 38/38/10 39/39/10
f 37/37/10 39/39/10 40/40/10
f 41/41/11 42/42/11 43/43/11
f 41/41/11 43/43/11 44/44/11
f 45/45/12 46/46/12 47/47/12
f 45/45/12 47/47/12 48/48/12
usemtl HoundBones
f 49/50/13 50/51/13 53/49/13
f 50/52/14 51/53/14 53/49/14
f 51/54/15 52/55/15 53/49/15
f 52/56/16 49/57/16 53/49/16
f 54/59/17 55/60/17 58/58/17
f 55/61/18 56/62/18 58/58/18
f 56/63/19 57/64/19 58/58/19
f 57/65/20 54/66/20 58/58/20
f 59/68/21 60/69/21 63/67/21
f 60/70/22 61/71/22 63/67/22
f 61/72/23 62/73/23 63/67/23
f 62/74/24 59/75/24 63/67/24
f 64/77/25 65/78/25 68/76/25
f 65/79/26 66/80/26 68/76/26
f 66/81/27 67/82/27 68/76/27
f 67/83/28 64/84/28 68/76/28
usemtl HoundSkin
f 69/85/29 70/86/29 71/87/29
f 69/85/29 71/87/29 72/88/29
f 73/89/30 74/90/30 75/91/30
f 73/89/30 75/91/30 76/92/30
f 77/93/31 78/94/31 79/95/31
f 77/93/31 79/95/31 80/96/31
f 81/97/32 82/98/32 83/99/32
f 81/97/32 83/99/32 84/100/32
f 85/101/33 86/102/33 87/103/33
f 85/101/33 87/103/33 88/104/33
f 89/105/34 90/106/34 91/107/34
f 89/105/34 91/107/34 92/108/34
f 93/109/35 94/110/35 95/111/35
f 93/109/35 95/111/35 96/112/35
f 97/113/36 98/114/36 99/115/36
f 97/113/36 99/115/36 100/116/36
f 101/117/37 102/118/37 103/119/37
f 101/117/37 103/119/37 104/120/37
f 105/121/38 106/122/38 107/123/38
f 105/121/38 107/123/38 108/124/38
f 109/125/39 110/126/39 111/127/39
f 109/125/39 111/127/39 112/128/39
f 113/129/40 114/130/40 115/131/40
f 113/129/40 115/131/40 116/132/40
usemtl HoundEyes
f 117/133/41 118/134/41 119/135/41
f 117/133/41 119/135/41 120/136/41
f 121/137/42 122/138/42 123/139/42
f 121/137/42 123/139/42 124/140/42
f 125/141/43 126/142/43 127/143/43
f 125/141/43 127/143/43 128/144/43
f 129/145/44 130/146/44 131/147/44
f 129/145/44 131/147/44 132/148/44
f 133/149/45 134/150/45 135/151/45
f 133/149/45 135/151/45 136/152/45
f 137/153/46 138/154/46 139/155/46
f 137/153/46 139/155/46 140/156/46
f 141/157/47 142/158/47 143/159/47
f 141/157/47 143/159/47 144/160/47
f 145/161/48 146/162/48 147/163/48
f 145/161/48 147/163/48 148/164/48
f 149/165/49 150/166/49 151/167/49
f 149/165/49 151/167/49 152/168/49
f 153/169/50 154/170/50 155/171/50
f 153/169/50 155/171/50 156/172/50
f 157/173/51 158/174/51 159/175/51
f 157/173/51 159/175/51 160/176/51
f 161/177/52 162/178/52 163/179/52
f 161/177/52 163/179/52 164/180/52
usemtl HoundBones
f 165/182/53 166/183/53 169/181/53
f 166/184/54 167/185/54 169/181/54
f 167/186/55 168/187/55 169/181/55
f 168/188/56 165/189/56 169/181/56
f 170/191/57 171/192/57 174/190/57
f 171/193/58 172/194/58 174/190/58
f 172/195/59 173/196/59 174/190/59
f 173/197/60 170/198/60 174/190/60
usemtl HoundSkin
f 175/199/61 176/200/61 177/201/61
f 175/199/61 177/201/61 178/202/61
f 179/203/62 180/204/62 181/205/62
f 179/203/62 181/205/62 182/206/62
f 183/207/63 184/208/63 185/209/63
f 183/207/63 185/209/63 186/210/63
f 187/211/64 188/212/64 189/213/64
f 187/211/64 189/213/64 190/214/64
f 191/215/65 192/216/65 193/217/65
f 191/215/65 193/217/65 194/218/65
f 195/219/66 196/220/66 197/221/66
f 195/219/66 197/221/66 198/222/66
f 199/223/67 200/224/67 201/225/67
f 199/223/67 201/225/67 202/226/67
f 203/227/68 204/228/68 205/229/68
f 203/227/68 205/229/68 206/230/68
f 207/231/69 208/232/69 209/233/69
f 207/231/69 209/233/69 210/234/69
f 211/235/70 212/236/70 213/237/70
f 211/235/70 213/237/70 214/238/70
f 215/239/71 216/240/71 217/241/71
f 215/239/71 217/241/71 218/242/71
f 219/243/72 220/244/72 221/245/72
f 219/243/72 221/245/72 222/246/72
f 223/247/73 224/248/73 225/249/73
f 223/247/73 225/249/73 226/250/73
f 227/251/74 228/252/74 229/253/74
f 227/251/74 229/253/74 230/254/74
f 231/255/75 232/256/75 233/257/75
f 231/255/75 233/257/75 234/258/75
f 235/259/76 236/260/76 237/261/76
f 235/259/76 237/261/76 238/262/76
f 239/263/77 240/264/77 241/265/77
f 239/263/77 241/265/77 242/266/77
f 243/267/78 244/268/78 245/269/78
f 243/267/78 245/269/78 246/270/78
f 247/271/79 248/272/79 249/273/79
f 247/271/79 249/273/79 250/274/79
f 251/275/80 252/276/80 253/277/80
f 251/275/80 253/277/80 254/278/80
f 255/279/81 256/280/81 257/281/81
f 255/279/81 257/281/81 258/282/81
f 259/283/82 260/284/82 261/285/82
f 259/283/82 261/285/82 262/286/82
f 263/287/83 264/288/83 265/289/83
f 263/287/83 265/289/83 266/290/83
f 267/291/84 268/292/84 269/293/84
f 267/291/84 269/293/84 270/294/84
