# Cyber-Mercenary 3D Mesh
mtllib mercenary.mtl

v -0.1750 0.3900 -0.0750
v -0.0450 0.3900 -0.0750
v -0.0450 0.7700 -0.0750
v -0.1750 0.7700 -0.0750
v -0.1750 0.3900 0.0750
v -0.0450 0.3900 0.0750
v -0.0450 0.7700 0.0750
v -0.1750 0.7700 0.0750
v 0.0450 0.3900 -0.0750
v 0.1750 0.3900 -0.0750
v 0.1750 0.7700 -0.0750
v 0.0450 0.7700 -0.0750
v 0.0450 0.3900 0.0750
v 0.1750 0.3900 0.0750
v 0.1750 0.7700 0.0750
v 0.0450 0.7700 0.0750
v -0.1700 0.0800 -0.0700
v -0.0500 0.0800 -0.0700
v -0.0500 0.4200 -0.0700
v -0.1700 0.4200 -0.0700
v -0.1700 0.0800 0.0700
v -0.0500 0.0800 0.0700
v -0.0500 0.4200 0.0700
v -0.1700 0.4200 0.0700
v 0.0500 0.0800 -0.0700
v 0.1700 0.0800 -0.0700
v 0.1700 0.4200 -0.0700
v 0.0500 0.4200 -0.0700
v 0.0500 0.0800 0.0700
v 0.1700 0.0800 0.0700
v 0.1700 0.4200 0.0700
v 0.0500 0.4200 0.0700
v -0.1650 0.3250 0.0550
v -0.0550 0.3250 0.0550
v -0.0550 0.4350 0.0550
v -0.1650 0.4350 0.0550
v -0.1650 0.3250 0.0950
v -0.0550 0.3250 0.0950
v -0.0550 0.4350 0.0950
v -0.1650 0.4350 0.0950
v 0.0550 0.3250 0.0550
v 0.1650 0.3250 0.0550
v 0.1650 0.4350 0.0550
v 0.0550 0.4350 0.0550
v 0.0550 0.3250 0.0950
v 0.1650 0.3250 0.0950
v 0.1650 0.4350 0.0950
v 0.0550 0.4350 0.0950
v -0.1975 0.4800 -0.0500
v -0.1625 0.4800 -0.0500
v -0.1625 0.6200 -0.0500
v -0.1975 0.6200 -0.0500
v -0.1975 0.4800 0.0500
v -0.1625 0.4800 0.0500
v -0.1625 0.6200 0.0500
v -0.1975 0.6200 0.0500
v 0.1625 0.4800 -0.0500
v 0.1975 0.4800 -0.0500
v 0.1975 0.6200 -0.0500
v 0.1625 0.6200 -0.0500
v 0.1625 0.4800 0.0500
v 0.1975 0.4800 0.0500
v 0.1975 0.6200 0.0500
v 0.1625 0.6200 0.0500
v 0.1725 0.5600 -0.0050
v 0.1975 0.5600 -0.0050
v 0.1975 0.6800 -0.0050
v 0.1725 0.6800 -0.0050
v 0.1725 0.5600 0.0450
v 0.1975 0.5600 0.0450
v 0.1975 0.6800 0.0450
v 0.1725 0.6800 0.0450
v -0.1750 0.0600 -0.0600
v -0.0450 0.0600 -0.0600
v -0.0450 0.1800 -0.0600
v -0.1750 0.1800 -0.0600
v -0.1750 0.0600 0.1000
v -0.0450 0.0600 0.1000
v -0.0450 0.1800 0.1000
v -0.1750 0.1800 0.1000
v -0.1800 0.0050 -0.0600
v -0.0400 0.0050 -0.0600
v -0.0400 0.0950 -0.0600
v -0.1800 0.0950 -0.0600
v -0.1800 0.0050 0.1600
v -0.0400 0.0050 0.1600
v -0.0400 0.0950 0.1600
v -0.1800 0.0950 0.1600
v -0.1850 0.0000 -0.0700
v -0.0350 0.0000 -0.0700
v -0.0350 0.0300 -0.0700
v -0.1850 0.0300 -0.0700
v -0.1850 0.0000 0.1700
v -0.0350 0.0000 0.1700
v -0.0350 0.0300 0.1700
v -0.1850 0.0300 0.1700
v -0.1750 0.0150 0.1100
v -0.0450 0.0150 0.1100
v -0.0450 0.0850 0.1100
v -0.1750 0.0850 0.1100
v -0.1750 0.0150 0.1700
v -0.0450 0.0150 0.1700
v -0.0450 0.0850 0.1700
v -0.1750 0.0850 0.1700
v 0.0450 0.0600 -0.0600
v 0.1750 0.0600 -0.0600
v 0.1750 0.1800 -0.0600
v 0.0450 0.1800 -0.0600
v 0.0450 0.0600 0.1000
v 0.1750 0.0600 0.1000
v 0.1750 0.1800 0.1000
v 0.0450 0.1800 0.1000
v 0.0400 0.0050 -0.0600
v 0.1800 0.0050 -0.0600
v 0.1800 0.0950 -0.0600
v 0.0400 0.0950 -0.0600
v 0.0400 0.0050 0.1600
v 0.1800 0.0050 0.1600
v 0.1800 0.0950 0.1600
v 0.0400 0.0950 0.1600
v 0.0350 0.0000 -0.0700
v 0.1850 0.0000 -0.0700
v 0.1850 0.0300 -0.0700
v 0.0350 0.0300 -0.0700
v 0.0350 0.0000 0.1700
v 0.1850 0.0000 0.1700
v 0.1850 0.0300 0.1700
v 0.0350 0.0300 0.1700
v 0.0450 0.0150 0.1100
v 0.1750 0.0150 0.1100
v 0.1750 0.0850 0.1100
v 0.0450 0.0850 0.1100
v 0.0450 0.0150 0.1700
v 0.1750 0.0150 0.1700
v 0.1750 0.0850 0.1700
v 0.0450 0.0850 0.1700
v -0.1650 0.7200 -0.1100
v 0.1650 0.7200 -0.1100
v 0.1650 0.8800 -0.1100
v -0.1650 0.8800 -0.1100
v -0.1650 0.7200 0.1100
v 0.1650 0.7200 0.1100
v 0.1650 0.8800 0.1100
v -0.1650 0.8800 0.1100
v -0.1800 0.8350 -0.1200
v 0.1800 0.8350 -0.1200
v 0.1800 0.9050 -0.1200
v -0.1800 0.9050 -0.1200
v -0.1800 0.8350 0.1200
v 0.1800 0.8350 0.1200
v 0.1800 0.9050 0.1200
v -0.1800 0.9050 0.1200
v 0.0320 0.8700 0.1150
v 0.0320 0.8700 0.1300
v 0.0277 0.8860 0.1150
v 0.0277 0.8860 0.1300
v 0.0160 0.8977 0.1150
v 0.0160 0.8977 0.1300
v 0.0000 0.9020 0.1150
v 0.0000 0.9020 0.1300
v -0.0160 0.8977 0.1150
v -0.0160 0.8977 0.1300
v -0.0277 0.8860 0.1150
v -0.0277 0.8860 0.1300
v -0.0320 0.8700 0.1150
v -0.0320 0.8700 0.1300
v -0.0277 0.8540 0.1150
v -0.0277 0.8540 0.1300
v -0.0160 0.8423 0.1150
v -0.0160 0.8423 0.1300
v -0.0000 0.8380 0.1150
v -0.0000 0.8380 0.1300
v 0.0160 0.8423 0.1150
v 0.0160 0.8423 0.1300
v 0.0277 0.8540 0.1150
v 0.0277 0.8540 0.1300
v -0.2200 0.8000 -0.0250
v -0.1600 0.8000 -0.0250
v -0.1600 0.9000 -0.0250
v -0.2200 0.9000 -0.0250
v -0.2200 0.8000 0.0850
v -0.1600 0.8000 0.0850
v -0.1600 0.9000 0.0850
v -0.2200 0.9000 0.0850
v 0.1600 0.8000 -0.0250
v 0.2200 0.8000 -0.0250
v 0.2200 0.9000 -0.0250
v 0.1600 0.9000 -0.0250
v 0.1600 0.8000 0.0850
v 0.2200 0.8000 0.0850
v 0.2200 0.9000 0.0850
v 0.1600 0.9000 0.0850
v -0.0960 0.7900 0.1300
v -0.0960 0.9100 0.1300
v -0.1006 0.7900 0.1441
v -0.1006 0.9100 0.1441
v -0.1126 0.7900 0.1528
v -0.1126 0.9100 0.1528
v -0.1274 0.7900 0.1528
v -0.1274 0.9100 0.1528
v -0.1394 0.7900 0.1441
v -0.1394 0.9100 0.1441
v -0.1440 0.7900 0.1300
v -0.1440 0.9100 0.1300
v -0.1394 0.7900 0.1159
v -0.1394 0.9100 0.1159
v -0.1274 0.7900 0.1072
v -0.1274 0.9100 0.1072
v -0.1126 0.7900 0.1072
v -0.1126 0.9100 0.1072
v -0.1006 0.7900 0.1159
v -0.1006 0.9100 0.1159
v -0.0940 0.8300 0.1300
v -0.0940 0.8700 0.1300
v -0.0990 0.8300 0.1453
v -0.0990 0.8700 0.1453
v -0.1120 0.8300 0.1547
v -0.1120 0.8700 0.1547
v -0.1280 0.8300 0.1547
v -0.1280 0.8700 0.1547
v -0.1410 0.8300 0.1453
v -0.1410 0.8700 0.1453
v -0.1460 0.8300 0.1300
v -0.1460 0.8700 0.1300
v -0.1410 0.8300 0.1147
v -0.1410 0.8700 0.1147
v -0.1280 0.8300 0.1053
v -0.1280 0.8700 0.1053
v -0.1120 0.8300 0.1053
v -0.1120 0.8700 0.1053
v -0.0990 0.8300 0.1147
v -0.0990 0.8700 0.1147
v -0.1600 0.8900 -0.1050
v 0.1600 0.8900 -0.1050
v 0.1600 1.3100 -0.1050
v -0.1600 1.3100 -0.1050
v -0.1600 0.8900 0.1050
v 0.1600 0.8900 0.1050
v 0.1600 1.3100 0.1050
v -0.1600 1.3100 0.1050
v -0.1150 0.9200 -0.0550
v 0.1150 0.9200 -0.0550
v 0.1150 1.1400 -0.0550
v -0.1150 1.1400 -0.0550
v -0.1150 0.9200 0.1150
v 0.1150 0.9200 0.1150
v 0.1150 1.1400 0.1150
v -0.1150 1.1400 0.1150
v -0.1750 1.0700 -0.0700
v 0.1750 1.0700 -0.0700
v 0.1750 1.3500 -0.0700
v -0.1750 1.3500 -0.0700
v -0.1750 1.0700 0.1400
v 0.1750 1.0700 0.1400
v 0.1750 1.3500 0.1400
v -0.1750 1.3500 0.1400
v -0.1650 1.2950 -0.0900
v 0.1650 1.2950 -0.0900
v 0.1650 1.3650 -0.0900
v -0.1650 1.3650 -0.0900
v -0.1650 1.2950 0.1300
v 0.1650 1.2950 0.1300
v 0.1650 1.3650 0.1300
v -0.1650 1.3650 0.1300
v -0.1650 1.0300 -0.1200
v 0.1650 1.0300 -0.1200
v 0.1650 1.3500 -0.1200
v -0.1650 1.3500 -0.1200
v -0.1650 1.0300 -0.0600
v 0.1650 1.0300 -0.0600
v 0.1650 1.3500 -0.0600
v -0.1650 1.3500 -0.0600
v -0.1850 1.0500 -0.0800
v -0.1450 1.0500 -0.0800
v -0.1450 1.2700 -0.0800
v -0.1850 1.2700 -0.0800
v -0.1850 1.0500 0.1000
v -0.1450 1.0500 0.1000
v -0.1450 1.2700 0.1000
v -0.1850 1.2700 0.1000
v 0.1450 1.0500 -0.0800
v 0.1850 1.0500 -0.0800
v 0.1850 1.2700 -0.0800
v 0.1450 1.2700 -0.0800
v 0.1450 1.0500 0.1000
v 0.1850 1.0500 0.1000
v 0.1850 1.2700 0.1000
v 0.1450 1.2700 0.1000
v -0.0280 1.2200 0.1350
v -0.0280 1.2200 0.1650
v -0.0331 1.2426 0.1350
v -0.0331 1.2426 0.1650
v -0.0476 1.2607 0.1350
v -0.0476 1.2607 0.1650
v -0.0684 1.2707 0.1350
v -0.0684 1.2707 0.1650
v -0.0916 1.2707 0.1350
v -0.0916 1.2707 0.1650
v -0.1124 1.2607 0.1350
v -0.1124 1.2607 0.1650
v -0.1269 1.2426 0.1350
v -0.1269 1.2426 0.1650
v -0.1320 1.2200 0.1350
v -0.1320 1.2200 0.1650
v -0.1269 1.1974 0.1350
v -0.1269 1.1974 0.1650
v -0.1124 1.1793 0.1350
v -0.1124 1.1793 0.1650
v -0.0916 1.1693 0.1350
v -0.0916 1.1693 0.1650
v -0.0684 1.1693 0.1350
v -0.0684 1.1693 0.1650
v -0.0476 1.1793 0.1350
v -0.0476 1.1793 0.1650
v -0.0331 1.1974 0.1350
v -0.0331 1.1974 0.1650
v -0.0400 1.2200 0.1400
v -0.0400 1.2200 0.1700
v -0.0440 1.2374 0.1400
v -0.0440 1.2374 0.1700
v -0.0551 1.2513 0.1400
v -0.0551 1.2513 0.1700
v -0.0711 1.2590 0.1400
v -0.0711 1.2590 0.1700
v -0.0889 1.2590 0.1400
v -0.0889 1.2590 0.1700
v -0.1049 1.2513 0.1400
v -0.1049 1.2513 0.1700
v -0.1160 1.2374 0.1400
v -0.1160 1.2374 0.1700
v -0.1200 1.2200 0.1400
v -0.1200 1.2200 0.1700
v -0.1160 1.2026 0.1400
v -0.1160 1.2026 0.1700
v -0.1049 1.1887 0.1400
v -0.1049 1.1887 0.1700
v -0.0889 1.1810 0.1400
v -0.0889 1.1810 0.1700
v -0.0711 1.1810 0.1400
v -0.0711 1.1810 0.1700
v -0.0551 1.1887 0.1400
v -0.0551 1.1887 0.1700
v -0.0440 1.2026 0.1400
v -0.0440 1.2026 0.1700
v -0.1025 1.2130 0.1695
v -0.0575 1.2130 0.1695
v -0.0575 1.2270 0.1695
v -0.1025 1.2270 0.1695
v -0.1025 1.2130 0.1745
v -0.0575 1.2130 0.1745
v -0.0575 1.2270 0.1745
v -0.1025 1.2270 0.1745
v 0.0230 1.2300 0.1350
v 0.0230 1.2300 0.1550
v 0.0192 1.2392 0.1350
v 0.0192 1.2392 0.1550
v 0.0100 1.2430 0.1350
v 0.0100 1.2430 0.1550
v 0.0008 1.2392 0.1350
v 0.0008 1.2392 0.1550
v -0.0030 1.2300 0.1350
v -0.0030 1.2300 0.1550
v 0.0008 1.2208 0.1350
v 0.0008 1.2208 0.1550
v 0.0100 1.2170 0.1350
v 0.0100 1.2170 0.1550
v 0.0192 1.2208 0.1350
v 0.0192 1.2208 0.1550
v 0.0100 1.2375 0.1275
v 0.0900 1.2375 0.1275
v 0.0900 1.2625 0.1275
v 0.0100 1.2625 0.1275
v 0.0100 1.2375 0.1525
v 0.0900 1.2375 0.1525
v 0.0900 1.2625 0.1525
v 0.0100 1.2625 0.1525
v 0.0775 1.2550 0.1175
v 0.1025 1.2550 0.1175
v 0.1025 1.3250 0.1175
v 0.0775 1.3250 0.1175
v 0.0775 1.2550 0.1425
v 0.1025 1.2550 0.1425
v 0.1025 1.3250 0.1425
v 0.0775 1.3250 0.1425
v -0.1745 1.0900 0.0525
v -0.1495 1.0900 0.0525
v -0.1495 1.1500 0.0525
v -0.1745 1.1500 0.0525
v -0.1745 1.0900 0.0875
v -0.1495 1.0900 0.0875
v -0.1495 1.1500 0.0875
v -0.1745 1.1500 0.0875
v 0.1495 1.0900 0.0525
v 0.1745 1.0900 0.0525
v 0.1745 1.1500 0.0525
v 0.1495 1.1500 0.0525
v 0.1495 1.0900 0.0875
v 0.1745 1.0900 0.0875
v 0.1745 1.1500 0.0875
v 0.1495 1.1500 0.0875
v 0.1000 1.3400 0.0000
v 0.1000 1.3900 0.0000
v 0.0901 1.3400 0.0434
v 0.0901 1.3900 0.0434
v 0.0623 1.3400 0.0782
v 0.0623 1.3900 0.0782
v 0.0223 1.3400 0.0975
v 0.0223 1.3900 0.0975
v -0.0223 1.3400 0.0975
v -0.0223 1.3900 0.0975
v -0.0623 1.3400 0.0782
v -0.0623 1.3900 0.0782
v -0.0901 1.3400 0.0434
v -0.0901 1.3900 0.0434
v -0.1000 1.3400 0.0000
v -0.1000 1.3900 0.0000
v -0.0901 1.3400 -0.0434
v -0.0901 1.3900 -0.0434
v -0.0623 1.3400 -0.0782
v -0.0623 1.3900 -0.0782
v -0.0223 1.3400 -0.0975
v -0.0223 1.3900 -0.0975
v 0.0223 1.3400 -0.0975
v 0.0223 1.3900 -0.0975
v 0.0623 1.3400 -0.0782
v 0.0623 1.3900 -0.0782
v 0.0901 1.3400 -0.0434
v 0.0901 1.3900 -0.0434
v 0.1080 1.3500 0.0000
v 0.1080 1.3800 0.0000
v 0.0973 1.3500 0.0469
v 0.0973 1.3800 0.0469
v 0.0673 1.3500 0.0844
v 0.0673 1.3800 0.0844
v 0.0240 1.3500 0.1053
v 0.0240 1.3800 0.1053
v -0.0240 1.3500 0.1053
v -0.0240 1.3800 0.1053
v -0.0673 1.3500 0.0844
v -0.0673 1.3800 0.0844
v -0.0973 1.3500 0.0469
v -0.0973 1.3800 0.0469
v -0.1080 1.3500 0.0000
v -0.1080 1.3800 0.0000
v -0.0973 1.3500 -0.0469
v -0.0973 1.3800 -0.0469
v -0.0673 1.3500 -0.0844
v -0.0673 1.3800 -0.0844
v -0.0240 1.3500 -0.1053
v -0.0240 1.3800 -0.1053
v 0.0240 1.3500 -0.1053
v 0.0240 1.3800 -0.1053
v 0.0673 1.3500 -0.0844
v 0.0673 1.3800 -0.0844
v 0.0973 1.3500 -0.0469
v 0.0973 1.3800 -0.0469
v 0.0650 1.4900 0.0000
v 0.0650 1.6100 0.0000
v 0.0563 1.4900 0.0325
v 0.0563 1.6100 0.0325
v 0.0325 1.4900 0.0563
v 0.0325 1.6100 0.0563
v 0.0000 1.4900 0.0650
v 0.0000 1.6100 0.0650
v -0.0325 1.4900 0.0563
v -0.0325 1.6100 0.0563
v -0.0563 1.4900 0.0325
v -0.0563 1.6100 0.0325
v -0.0650 1.4900 0.0000
v -0.0650 1.6100 0.0000
v -0.0563 1.4900 -0.0325
v -0.0563 1.6100 -0.0325
v -0.0325 1.4900 -0.0563
v -0.0325 1.6100 -0.0563
v -0.0000 1.4900 -0.0650
v -0.0000 1.6100 -0.0650
v 0.0325 1.4900 -0.0563
v 0.0325 1.6100 -0.0563
v 0.0563 1.4900 -0.0325
v 0.0563 1.6100 -0.0325
v -0.0800 1.5800 -0.0750
v 0.0800 1.5800 -0.0750
v 0.0800 1.7600 -0.0750
v -0.0800 1.7600 -0.0750
v -0.0800 1.5800 0.0950
v 0.0800 1.5800 0.0950
v 0.0800 1.7600 0.0950
v -0.0800 1.7600 0.0950
v -0.0875 1.7200 -0.1100
v 0.0875 1.7200 -0.1100
v 0.0875 1.7800 -0.1100
v -0.0875 1.7800 -0.1100
v -0.0875 1.7200 0.0700
v 0.0875 1.7200 0.0700
v 0.0875 1.7800 0.0700
v -0.0875 1.7800 0.0700
v -0.0350 1.7600 -0.0300
v 0.0350 1.7600 -0.0300
v 0.0350 1.8200 -0.0300
v -0.0350 1.8200 -0.0300
v -0.0350 1.7600 0.0500
v 0.0350 1.7600 0.0500
v 0.0350 1.8200 0.0500
v -0.0350 1.8200 0.0500
v -0.0750 1.7550 -0.0350
v -0.0250 1.7550 -0.0350
v -0.0250 1.8050 -0.0350
v -0.0750 1.8050 -0.0350
v -0.0750 1.7550 0.0350
v -0.0250 1.7550 0.0350
v -0.0250 1.8050 0.0350
v -0.0750 1.8050 0.0350
v 0.0250 1.7550 -0.0350
v 0.0750 1.7550 -0.0350
v 0.0750 1.8050 -0.0350
v 0.0250 1.8050 -0.0350
v 0.0250 1.7550 0.0350
v 0.0750 1.7550 0.0350
v 0.0750 1.8050 0.0350
v 0.0250 1.8050 0.0350
v -0.0550 1.7300 0.0600
v 0.0550 1.7300 0.0600
v 0.0550 1.7700 0.0600
v -0.0550 1.7700 0.0600
v -0.0550 1.7300 0.1000
v 0.0550 1.7300 0.1000
v 0.0550 1.7700 0.1000
v -0.0550 1.7700 0.1000
v -0.0520 1.6730 0.0870
v -0.0280 1.6730 0.0870
v -0.0280 1.6870 0.0870
v -0.0520 1.6870 0.0870
v -0.0520 1.6730 0.0970
v -0.0280 1.6730 0.0970
v -0.0280 1.6870 0.0970
v -0.0520 1.6870 0.0970
v 0.0280 1.6730 0.0870
v 0.0520 1.6730 0.0870
v 0.0520 1.6870 0.0870
v 0.0280 1.6870 0.0870
v 0.0280 1.6730 0.0970
v 0.0520 1.6730 0.0970
v 0.0520 1.6870 0.0970
v 0.0280 1.6870 0.0970
v -0.0775 1.5600 0.0025
v 0.0775 1.5600 0.0025
v 0.0775 1.6600 0.0025
v -0.0775 1.6600 0.0025
v -0.0775 1.5600 0.1275
v 0.0775 1.5600 0.1275
v 0.0775 1.6600 0.1275
v -0.0775 1.6600 0.1275
v -0.0550 1.5350 0.0450
v 0.0550 1.5350 0.0450
v 0.0550 1.5850 0.0450
v -0.0550 1.5850 0.0450
v -0.0550 1.5350 0.1250
v 0.0550 1.5350 0.1250
v 0.0550 1.5850 0.1250
v -0.0550 1.5850 0.1250
v -0.0175 1.6375 0.0830
v 0.0175 1.6375 0.0830
v 0.0175 1.6825 0.0830
v -0.0175 1.6825 0.0830
v -0.0175 1.6375 0.1130
v 0.0175 1.6375 0.1130
v 0.0175 1.6825 0.1130
v -0.0175 1.6825 0.1130
v -0.0375 1.5775 0.1260
v -0.0265 1.5775 0.1260
v -0.0265 1.6425 0.1260
v -0.0375 1.6425 0.1260
v -0.0375 1.5775 0.1380
v -0.0265 1.5775 0.1380
v -0.0265 1.6425 0.1380
v -0.0375 1.6425 0.1380
v -0.0055 1.5775 0.1260
v 0.0055 1.5775 0.1260
v 0.0055 1.6425 0.1260
v -0.0055 1.6425 0.1260
v -0.0055 1.5775 0.1380
v 0.0055 1.5775 0.1380
v 0.0055 1.6425 0.1380
v -0.0055 1.6425 0.1380
v 0.0265 1.5775 0.1260
v 0.0375 1.5775 0.1260
v 0.0375 1.6425 0.1260
v 0.0265 1.6425 0.1260
v 0.0265 1.5775 0.1380
v 0.0375 1.5775 0.1380
v 0.0375 1.6425 0.1380
v 0.0265 1.6425 0.1380
v -0.0700 1.6200 0.0700
v -0.0700 1.6200 0.0880
v -0.0740 1.6269 0.0700
v -0.0740 1.6269 0.0880
v -0.0820 1.6269 0.0700
v -0.0820 1.6269 0.0880
v -0.0860 1.6200 0.0700
v -0.0860 1.6200 0.0880
v -0.0820 1.6131 0.0700
v -0.0820 1.6131 0.0880
v -0.0740 1.6131 0.0700
v -0.0740 1.6131 0.0880
v 0.0860 1.6200 0.0700
v 0.0860 1.6200 0.0880
v 0.0820 1.6269 0.0700
v 0.0820 1.6269 0.0880
v 0.0740 1.6269 0.0700
v 0.0740 1.6269 0.0880
v 0.0700 1.6200 0.0700
v 0.0700 1.6200 0.0880
v 0.0740 1.6131 0.0700
v 0.0740 1.6131 0.0880
v 0.0820 1.6131 0.0700
v 0.0820 1.6131 0.0880
v -0.2950 1.1900 0.0050
v -0.1850 1.1900 0.0050
v -0.1850 1.2700 0.0050
v -0.2950 1.2700 0.0050
v -0.2950 1.1900 0.1150
v -0.1850 1.1900 0.1150
v -0.1850 1.2700 0.1150
v -0.2950 1.2700 0.1150
v -0.2625 1.0200 0.0750
v -0.1775 1.0200 0.0750
v -0.1775 1.2000 0.0750
v -0.2625 1.2000 0.0750
v -0.2625 1.0200 0.1650
v -0.1775 1.0200 0.1650
v -0.1775 1.2000 0.1650
v -0.2625 1.2000 0.1650
v -0.2540 1.0300 0.1450
v -0.2540 1.1900 0.1450
v -0.2570 1.0300 0.1502
v -0.2570 1.1900 0.1502
v -0.2630 1.0300 0.1502
v -0.2630 1.1900 0.1502
v -0.2660 1.0300 0.1450
v -0.2660 1.1900 0.1450
v -0.2630 1.0300 0.1398
v -0.2630 1.1900 0.1398
v -0.2570 1.0300 0.1398
v -0.2570 1.1900 0.1398
v -0.2400 0.9800 0.1500
v -0.1600 0.9800 0.1500
v -0.1600 1.0600 0.1500
v -0.2400 1.0600 0.1500
v -0.2400 0.9800 0.2300
v -0.1600 0.9800 0.2300
v -0.1600 1.0600 0.2300
v -0.2400 1.0600 0.2300
v -0.2075 1.0225 0.2200
v -0.1325 1.0225 0.2200
v -0.1325 1.0975 0.2200
v -0.2075 1.0975 0.2200
v -0.2075 1.0225 0.4200
v -0.1325 1.0225 0.4200
v -0.1325 1.0975 0.4200
v -0.2075 1.0975 0.4200
v -0.1750 1.0875 0.2500
v -0.1550 1.0875 0.2500
v -0.1550 1.1025 0.2500
v -0.1750 1.1025 0.2500
v -0.1750 1.0875 0.3900
v -0.1550 1.0875 0.3900
v -0.1550 1.1025 0.3900
v -0.1750 1.1025 0.3900
v -0.1850 1.0675 0.4000
v -0.1150 1.0675 0.4000
v -0.1150 1.1325 0.4000
v -0.1850 1.1325 0.4000
v -0.1850 1.0675 0.4800
v -0.1150 1.0675 0.4800
v -0.1150 1.1325 0.4800
v -0.1850 1.1325 0.4800
v -0.1825 1.0725 0.4600
v -0.1175 1.0725 0.4600
v -0.1175 1.1275 0.4600
v -0.1825 1.1275 0.4600
v -0.1825 1.0725 0.5000
v -0.1175 1.0725 0.5000
v -0.1175 1.1275 0.5000
v -0.1825 1.1275 0.5000
v 0.1850 1.1900 0.0050
v 0.2950 1.1900 0.0050
v 0.2950 1.2700 0.0050
v 0.1850 1.2700 0.0050
v 0.1850 1.1900 0.1150
v 0.2950 1.1900 0.1150
v 0.2950 1.2700 0.1150
v 0.1850 1.2700 0.1150
v 0.1775 1.0200 0.0750
v 0.2625 1.0200 0.0750
v 0.2625 1.2000 0.0750
v 0.1775 1.2000 0.0750
v 0.1775 1.0200 0.1650
v 0.2625 1.0200 0.1650
v 0.2625 1.2000 0.1650
v 0.1775 1.2000 0.1650
v 0.2660 1.0300 0.1450
v 0.2660 1.1900 0.1450
v 0.2630 1.0300 0.1502
v 0.2630 1.1900 0.1502
v 0.2570 1.0300 0.1502
v 0.2570 1.1900 0.1502
v 0.2540 1.0300 0.1450
v 0.2540 1.1900 0.1450
v 0.2570 1.0300 0.1398
v 0.2570 1.1900 0.1398
v 0.2630 1.0300 0.1398
v 0.2630 1.1900 0.1398
v 0.1725 1.1025 0.0700
v 0.2675 1.1025 0.0700
v 0.2675 1.1375 0.0700
v 0.1725 1.1375 0.0700
v 0.1725 1.1025 0.1700
v 0.2675 1.1025 0.1700
v 0.2675 1.1375 0.1700
v 0.1725 1.1375 0.1700
v 0.1700 0.9800 0.1500
v 0.2500 0.9800 0.1500
v 0.2500 1.0600 0.1500
v 0.1700 1.0600 0.1500
v 0.1700 0.9800 0.2300
v 0.2500 0.9800 0.2300
v 0.2500 1.0600 0.2300
v 0.1700 1.0600 0.2300
v 0.1525 1.0225 0.2200
v 0.2275 1.0225 0.2200
v 0.2275 1.0975 0.2200
v 0.1525 1.0975 0.2200
v 0.1525 1.0225 0.4200
v 0.2275 1.0225 0.4200
v 0.2275 1.0975 0.4200
v 0.1525 1.0975 0.4200
v 0.1375 1.0675 0.2750
v 0.1625 1.0675 0.2750
v 0.1625 1.1125 0.2750
v 0.1375 1.1125 0.2750
v 0.1375 1.0675 0.3450
v 0.1625 1.0675 0.3450
v 0.1625 1.1125 0.3450
v 0.1375 1.1125 0.3450
v 0.1325 1.0750 0.2875
v 0.1375 1.0750 0.2875
v 0.1375 1.1050 0.2875
v 0.1325 1.1050 0.2875
v 0.1325 1.0750 0.3325
v 0.1375 1.0750 0.3325
v 0.1375 1.1050 0.3325
v 0.1325 1.1050 0.3325
v 0.1450 1.0650 0.4000
v 0.2150 1.0650 0.4000
v 0.2150 1.1350 0.4000
v 0.1450 1.1350 0.4000
v 0.1450 1.0650 0.4800
v 0.2150 1.0650 0.4800
v 0.2150 1.1350 0.4800
v 0.1450 1.1350 0.4800
v 0.1475 1.0700 0.4600
v 0.2125 1.0700 0.4600
v 0.2125 1.1300 0.4600
v 0.1475 1.1300 0.4600
v 0.1475 1.0700 0.5000
v 0.2125 1.0700 0.5000
v 0.2125 1.1300 0.5000
v 0.1475 1.1300 0.5000

vn 0.0000 0.0000 -1.0000
vn 0.0000 0.0000 1.0000
vn -1.0000 0.0000 0.0000
vn 1.0000 0.0000 0.0000
vn 0.0000 1.0000 0.0000
vn 0.0000 -1.0000 0.0000
vn 0.0000 0.0000 -1.0000
vn 0.0000 0.0000 1.0000
vn -1.0000 0.0000 0.0000
vn 1.0000 0.0000 0.0000
vn 0.0000 1.0000 0.0000
vn 0.0000 -1.0000 0.0000
vn 0.0000 0.0000 -1.0000
vn 0.0000 0.0000 1.0000
vn -1.0000 0.0000 0.0000
vn 1.0000 0.0000 0.0000
vn 0.0000 1.0000 0.0000
vn 0.0000 -1.0000 0.0000
vn 0.0000 0.0000 -1.0000
vn 0.0000 0.0000 1.0000
vn -1.0000 0.0000 0.0000
vn 1.0000 0.0000 0.0000
vn 0.0000 1.0000 0.0000
vn 0.0000 -1.0000 0.0000
vn 0.0000 0.0000 -1.0000
vn 0.0000 0.0000 1.0000
vn -1.0000 0.0000 0.0000
vn 1.0000 0.0000 0.0000
vn 0.0000 1.0000 0.0000
vn 0.0000 -1.0000 0.0000
vn 0.0000 0.0000 -1.0000
vn 0.0000 0.0000 1.0000
vn -1.0000 0.0000 0.0000
vn 1.0000 0.0000 0.0000
vn 0.0000 1.0000 0.0000
vn 0.0000 -1.0000 0.0000
vn 0.0000 0.0000 -1.0000
vn 0.0000 0.0000 1.0000
vn -1.0000 0.0000 0.0000
vn 1.0000 0.0000 0.0000
vn 0.0000 1.0000 0.0000
vn 0.0000 -1.0000 0.0000
vn 0.0000 0.0000 -1.0000
vn 0.0000 0.0000 1.0000
vn -1.0000 0.0000 0.0000
vn 1.0000 0.0000 0.0000
vn 0.0000 1.0000 0.0000
vn 0.0000 -1.0000 0.0000
vn 0.0000 0.0000 -1.0000
vn 0.0000 0.0000 1.0000
vn -1.0000 0.0000 0.0000
vn 1.0000 0.0000 0.0000
vn 0.0000 1.0000 0.0000
vn 0.0000 -1.0000 0.0000
vn 0.0000 0.0000 -1.0000
vn 0.0000 0.0000 1.0000
vn -1.0000 0.0000 0.0000
vn 1.0000 0.0000 0.0000
vn 0.0000 1.0000 0.0000
vn 0.0000 -1.0000 0.0000
vn 0.0000 0.0000 -1.0000
vn 0.0000 0.0000 1.0000
vn -1.0000 0.0000 0.0000
vn 1.0000 0.0000 0.0000
vn 0.0000 1.0000 0.0000
vn 0.0000 -1.0000 0.0000
vn 0.0000 0.0000 -1.0000
vn 0.0000 0.0000 1.0000
vn -1.0000 0.0000 0.0000
vn 1.0000 0.0000 0.0000
vn 0.0000 1.0000 0.0000
vn 0.0000 -1.0000 0.0000
vn 0.0000 0.0000 -1.0000
vn 0.0000 0.0000 1.0000
vn -1.0000 0.0000 0.0000
vn 1.0000 0.0000 0.0000
vn 0.0000 1.0000 0.0000
vn 0.0000 -1.0000 0.0000
vn 0.0000 0.0000 -1.0000
vn 0.0000 0.0000 1.0000
vn -1.0000 0.0000 0.0000
vn 1.0000 0.0000 0.0000
vn 0.0000 1.0000 0.0000
vn 0.0000 -1.0000 0.0000
vn 0.0000 0.0000 -1.0000
vn 0.0000 0.0000 1.0000
vn -1.0000 0.0000 0.0000
vn 1.0000 0.0000 0.0000
vn 0.0000 1.0000 0.0000
vn 0.0000 -1.0000 0.0000
vn 0.0000 0.0000 -1.0000
vn 0.0000 0.0000 1.0000
vn -1.0000 0.0000 0.0000
vn 1.0000 0.0000 0.0000
vn 0.0000 1.0000 0.0000
vn 0.0000 -1.0000 0.0000
vn 0.0000 0.0000 -1.0000
vn 0.0000 0.0000 1.0000
vn -1.0000 0.0000 0.0000
vn 1.0000 0.0000 0.0000
vn 0.0000 1.0000 0.0000
vn 0.0000 -1.0000 0.0000
vn 0.0000 0.0000 -1.0000
vn 0.0000 0.0000 1.0000
vn -1.0000 0.0000 0.0000
vn 1.0000 0.0000 0.0000
vn 0.0000 1.0000 0.0000
vn 0.0000 -1.0000 0.0000
vn 0.0000 0.0000 -1.0000
vn 0.0000 0.0000 1.0000
vn -1.0000 0.0000 0.0000
vn 1.0000 0.0000 0.0000
vn 0.0000 1.0000 0.0000
vn 0.0000 -1.0000 0.0000
vn 1.0000 0.0000 0.0000
vn 0.8660 0.5000 0.0000
vn 0.5000 0.8660 0.0000
vn 0.0000 1.0000 0.0000
vn -0.5000 0.8660 0.0000
vn -0.8660 0.5000 0.0000
vn -1.0000 0.0000 0.0000
vn -0.8660 -0.5000 0.0000
vn -0.5000 -0.8660 0.0000
vn -0.0000 -1.0000 0.0000
vn 0.5000 -0.8660 0.0000
vn 0.8660 -0.5000 0.0000
vn 0.0000 0.0000 -1.0000
vn 0.0000 0.0000 1.0000
vn 0.0000 0.0000 -1.0000
vn 0.0000 0.0000 1.0000
vn -1.0000 0.0000 0.0000
vn 1.0000 0.0000 0.0000
vn 0.0000 1.0000 0.0000
vn 0.0000 -1.0000 0.0000
vn 0.0000 0.0000 -1.0000
vn 0.0000 0.0000 1.0000
vn -1.0000 0.0000 0.0000
vn 1.0000 0.0000 0.0000
vn 0.0000 1.0000 0.0000
vn 0.0000 -1.0000 0.0000
vn 1.0000 0.0000 0.0000
vn 0.8090 0.0000 0.5878
vn 0.3090 0.0000 0.9511
vn -0.3090 0.0000 0.9511
vn -0.8090 0.0000 0.5878
vn -1.0000 0.0000 0.0000
vn -0.8090 0.0000 -0.5878
vn -0.3090 0.0000 -0.9511
vn 0.3090 0.0000 -0.9511
vn 0.8090 0.0000 -0.5878
vn 0.0000 -1.0000 0.0000
vn 0.0000 1.0000 0.0000
vn 1.0000 0.0000 0.0000
vn 0.8090 0.0000 0.5878
vn 0.3090 0.0000 0.9511
vn -0.3090 0.0000 0.9511
vn -0.8090 0.0000 0.5878
vn -1.0000 0.0000 0.0000
vn -0.8090 0.0000 -0.5878
vn -0.3090 0.0000 -0.9511
vn 0.3090 0.0000 -0.9511
vn 0.8090 0.0000 -0.5878
vn 0.0000 -1.0000 0.0000
vn 0.0000 1.0000 0.0000
vn 0.0000 0.0000 -1.0000
vn 0.0000 0.0000 1.0000
vn -1.0000 0.0000 0.0000
vn 1.0000 0.0000 0.0000
vn 0.0000 1.0000 0.0000
vn 0.0000 -1.0000 0.0000
vn 0.0000 0.0000 -1.0000
vn 0.0000 0.0000 1.0000
vn -1.0000 0.0000 0.0000
vn 1.0000 0.0000 0.0000
vn 0.0000 1.0000 0.0000
vn 0.0000 -1.0000 0.0000
vn 0.0000 0.0000 -1.0000
vn 0.0000 0.0000 1.0000
vn -1.0000 0.0000 0.0000
vn 1.0000 0.0000 0.0000
vn 0.0000 1.0000 0.0000
vn 0.0000 -1.0000 0.0000
vn 0.0000 0.0000 -1.0000
vn 0.0000 0.0000 1.0000
vn -1.0000 0.0000 0.0000
vn 1.0000 0.0000 0.0000
vn 0.0000 1.0000 0.0000
vn 0.0000 -1.0000 0.0000
vn 0.0000 0.0000 -1.0000
vn 0.0000 0.0000 1.0000
vn -1.0000 0.0000 0.0000
vn 1.0000 0.0000 0.0000
vn 0.0000 1.0000 0.0000
vn 0.0000 -1.0000 0.0000
vn 0.0000 0.0000 -1.0000
vn 0.0000 0.0000 1.0000
vn -1.0000 0.0000 0.0000
vn 1.0000 0.0000 0.0000
vn 0.0000 1.0000 0.0000
vn 0.0000 -1.0000 0.0000
vn 0.0000 0.0000 -1.0000
vn 0.0000 0.0000 1.0000
vn -1.0000 0.0000 0.0000
vn 1.0000 0.0000 0.0000
vn 0.0000 1.0000 0.0000
vn 0.0000 -1.0000 0.0000
vn 1.0000 0.0000 0.0000
vn 0.9010 0.4339 0.0000
vn 0.6235 0.7818 0.0000
vn 0.2225 0.9749 0.0000
vn -0.2225 0.9749 0.0000
vn -0.6235 0.7818 0.0000
vn -0.9010 0.4339 0.0000
vn -1.0000 0.0000 0.0000
vn -0.9010 -0.4339 0.0000
vn -0.6235 -0.7818 0.0000
vn -0.2225 -0.9749 0.0000
vn 0.2225 -0.9749 0.0000
vn 0.6235 -0.7818 0.0000
vn 0.9010 -0.4339 0.0000
vn 0.0000 0.0000 -1.0000
vn 0.0000 0.0000 1.0000
vn 1.0000 0.0000 0.0000
vn 0.9010 0.4339 0.0000
vn 0.6235 0.7818 0.0000
vn 0.2225 0.9749 0.0000
vn -0.2225 0.9749 0.0000
vn -0.6235 0.7818 0.0000
vn -0.9010 0.4339 0.0000
vn -1.0000 0.0000 0.0000
vn -0.9010 -0.4339 0.0000
vn -0.6235 -0.7818 0.0000
vn -0.2225 -0.9749 0.0000
vn 0.2225 -0.9749 0.0000
vn 0.6235 -0.7818 0.0000
vn 0.9010 -0.4339 0.0000
vn 0.0000 0.0000 -1.0000
vn 0.0000 0.0000 1.0000
vn 0.0000 0.0000 -1.0000
vn 0.0000 0.0000 1.0000
vn -1.0000 0.0000 0.0000
vn 1.0000 0.0000 0.0000
vn 0.0000 1.0000 0.0000
vn 0.0000 -1.0000 0.0000
vn 1.0000 0.0000 0.0000
vn 0.7071 0.7071 0.0000
vn 0.0000 1.0000 0.0000
vn -0.7071 0.7071 0.0000
vn -1.0000 0.0000 0.0000
vn -0.7071 -0.7071 0.0000
vn -0.0000 -1.0000 0.0000
vn 0.7071 -0.7071 0.0000
vn 0.0000 0.0000 -1.0000
vn 0.0000 0.0000 1.0000
vn 0.0000 0.0000 -1.0000
vn 0.0000 0.0000 1.0000
vn -1.0000 0.0000 0.0000
vn 1.0000 0.0000 0.0000
vn 0.0000 1.0000 0.0000
vn 0.0000 -1.0000 0.0000
vn 0.0000 0.0000 -1.0000
vn 0.0000 0.0000 1.0000
vn -1.0000 0.0000 0.0000
vn 1.0000 0.0000 0.0000
vn 0.0000 1.0000 0.0000
vn 0.0000 -1.0000 0.0000
vn 0.0000 0.0000 -1.0000
vn 0.0000 0.0000 1.0000
vn -1.0000 0.0000 0.0000
vn 1.0000 0.0000 0.0000
vn 0.0000 1.0000 0.0000
vn 0.0000 -1.0000 0.0000
vn 0.0000 0.0000 -1.0000
vn 0.0000 0.0000 1.0000
vn -1.0000 0.0000 0.0000
vn 1.0000 0.0000 0.0000
vn 0.0000 1.0000 0.0000
vn 0.0000 -1.0000 0.0000
vn 1.0000 0.0000 0.0000
vn 0.9010 0.0000 0.4339
vn 0.6235 0.0000 0.7818
vn 0.2225 0.0000 0.9749
vn -0.2225 0.0000 0.9749
vn -0.6235 0.0000 0.7818
vn -0.9010 0.0000 0.4339
vn -1.0000 0.0000 0.0000
vn -0.9010 0.0000 -0.4339
vn -0.6235 0.0000 -0.7818
vn -0.2225 0.0000 -0.9749
vn 0.2225 0.0000 -0.9749
vn 0.6235 0.0000 -0.7818
vn 0.9010 0.0000 -0.4339
vn 0.0000 -1.0000 0.0000
vn 0.0000 1.0000 0.0000
vn 1.0000 0.0000 0.0000
vn 0.9010 0.0000 0.4339
vn 0.6235 0.0000 0.7818
vn 0.2225 0.0000 0.9749
vn -0.2225 0.0000 0.9749
vn -0.6235 0.0000 0.7818
vn -0.9010 0.0000 0.4339
vn -1.0000 0.0000 0.0000
vn -0.9010 0.0000 -0.4339
vn -0.6235 0.0000 -0.7818
vn -0.2225 0.0000 -0.9749
vn 0.2225 0.0000 -0.9749
vn 0.6235 0.0000 -0.7818
vn 0.9010 0.0000 -0.4339
vn 0.0000 -1.0000 0.0000
vn 0.0000 1.0000 0.0000
vn 1.0000 0.0000 0.0000
vn 0.8660 0.0000 0.5000
vn 0.5000 0.0000 0.8660
vn 0.0000 0.0000 1.0000
vn -0.5000 0.0000 0.8660
vn -0.8660 0.0000 0.5000
vn -1.0000 0.0000 0.0000
vn -0.8660 0.0000 -0.5000
vn -0.5000 0.0000 -0.8660
vn -0.0000 0.0000 -1.0000
vn 0.5000 0.0000 -0.8660
vn 0.8660 0.0000 -0.5000
vn 0.0000 -1.0000 0.0000
vn 0.0000 1.0000 0.0000
vn 0.0000 0.0000 -1.0000
vn 0.0000 0.0000 1.0000
vn -1.0000 0.0000 0.0000
vn 1.0000 0.0000 0.0000
vn 0.0000 1.0000 0.0000
vn 0.0000 -1.0000 0.0000
vn 0.0000 0.0000 -1.0000
vn 0.0000 0.0000 1.0000
vn -1.0000 0.0000 0.0000
vn 1.0000 0.0000 0.0000
vn 0.0000 1.0000 0.0000
vn 0.0000 -1.0000 0.0000
vn 0.0000 0.0000 -1.0000
vn 0.0000 0.0000 1.0000
vn -1.0000 0.0000 0.0000
vn 1.0000 0.0000 0.0000
vn 0.0000 1.0000 0.0000
vn 0.0000 -1.0000 0.0000
vn 0.0000 0.0000 -1.0000
vn 0.0000 0.0000 1.0000
vn -1.0000 0.0000 0.0000
vn 1.0000 0.0000 0.0000
vn 0.0000 1.0000 0.0000
vn 0.0000 -1.0000 0.0000
vn 0.0000 0.0000 -1.0000
vn 0.0000 0.0000 1.0000
vn -1.0000 0.0000 0.0000
vn 1.0000 0.0000 0.0000
vn 0.0000 1.0000 0.0000
vn 0.0000 -1.0000 0.0000
vn 0.0000 0.0000 -1.0000
vn 0.0000 0.0000 1.0000
vn -1.0000 0.0000 0.0000
vn 1.0000 0.0000 0.0000
vn 0.0000 1.0000 0.0000
vn 0.0000 -1.0000 0.0000
vn 0.0000 0.0000 -1.0000
vn 0.0000 0.0000 1.0000
vn -1.0000 0.0000 0.0000
vn 1.0000 0.0000 0.0000
vn 0.0000 1.0000 0.0000
vn 0.0000 -1.0000 0.0000
vn 0.0000 0.0000 -1.0000
vn 0.0000 0.0000 1.0000
vn -1.0000 0.0000 0.0000
vn 1.0000 0.0000 0.0000
vn 0.0000 1.0000 0.0000
vn 0.0000 -1.0000 0.0000
vn 0.0000 0.0000 -1.0000
vn 0.0000 0.0000 1.0000
vn -1.0000 0.0000 0.0000
vn 1.0000 0.0000 0.0000
vn 0.0000 1.0000 0.0000
vn 0.0000 -1.0000 0.0000
vn 0.0000 0.0000 -1.0000
vn 0.0000 0.0000 1.0000
vn -1.0000 0.0000 0.0000
vn 1.0000 0.0000 0.0000
vn 0.0000 1.0000 0.0000
vn 0.0000 -1.0000 0.0000
vn 0.0000 0.0000 -1.0000
vn 0.0000 0.0000 1.0000
vn -1.0000 0.0000 0.0000
vn 1.0000 0.0000 0.0000
vn 0.0000 1.0000 0.0000
vn 0.0000 -1.0000 0.0000
vn 0.0000 0.0000 -1.0000
vn 0.0000 0.0000 1.0000
vn -1.0000 0.0000 0.0000
vn 1.0000 0.0000 0.0000
vn 0.0000 1.0000 0.0000
vn 0.0000 -1.0000 0.0000
vn 0.0000 0.0000 -1.0000
vn 0.0000 0.0000 1.0000
vn -1.0000 0.0000 0.0000
vn 1.0000 0.0000 0.0000
vn 0.0000 1.0000 0.0000
vn 0.0000 -1.0000 0.0000
vn 0.0000 0.0000 -1.0000
vn 0.0000 0.0000 1.0000
vn -1.0000 0.0000 0.0000
vn 1.0000 0.0000 0.0000
vn 0.0000 1.0000 0.0000
vn 0.0000 -1.0000 0.0000
vn 1.0000 0.0000 0.0000
vn 0.5000 0.8660 0.0000
vn -0.5000 0.8660 0.0000
vn -1.0000 0.0000 0.0000
vn -0.5000 -0.8660 0.0000
vn 0.5000 -0.8660 0.0000
vn 0.0000 0.0000 -1.0000
vn 0.0000 0.0000 1.0000
vn 1.0000 0.0000 0.0000
vn 0.5000 0.8660 0.0000
vn -0.5000 0.8660 0.0000
vn -1.0000 0.0000 0.0000
vn -0.5000 -0.8660 0.0000
vn 0.5000 -0.8660 0.0000
vn 0.0000 0.0000 -1.0000
vn 0.0000 0.0000 1.0000
vn 0.0000 0.0000 -1.0000
vn 0.0000 0.0000 1.0000
vn -1.0000 0.0000 0.0000
vn 1.0000 0.0000 0.0000
vn 0.0000 1.0000 0.0000
vn 0.0000 -1.0000 0.0000
vn 0.0000 0.0000 -1.0000
vn 0.0000 0.0000 1.0000
vn -1.0000 0.0000 0.0000
vn 1.0000 0.0000 0.0000
vn 0.0000 1.0000 0.0000
vn 0.0000 -1.0000 0.0000
vn 1.0000 0.0000 0.0000
vn 0.5000 0.0000 0.8660
vn -0.5000 0.0000 0.8660
vn -1.0000 0.0000 0.0000
vn -0.5000 0.0000 -0.8660
vn 0.5000 0.0000 -0.8660
vn 0.0000 -1.0000 0.0000
vn 0.0000 1.0000 0.0000
vn 0.0000 0.0000 -1.0000
vn 0.0000 0.0000 1.0000
vn -1.0000 0.0000 0.0000
vn 1.0000 0.0000 0.0000
vn 0.0000 1.0000 0.0000
vn 0.0000 -1.0000 0.0000
vn 0.0000 0.0000 -1.0000
vn 0.0000 0.0000 1.0000
vn -1.0000 0.0000 0.0000
vn 1.0000 0.0000 0.0000
vn 0.0000 1.0000 0.0000
vn 0.0000 -1.0000 0.0000
vn 0.0000 0.0000 -1.0000
vn 0.0000 0.0000 1.0000
vn -1.0000 0.0000 0.0000
vn 1.0000 0.0000 0.0000
vn 0.0000 1.0000 0.0000
vn 0.0000 -1.0000 0.0000
vn 0.0000 0.0000 -1.0000
vn 0.0000 0.0000 1.0000
vn -1.0000 0.0000 0.0000
vn 1.0000 0.0000 0.0000
vn 0.0000 1.0000 0.0000
vn 0.0000 -1.0000 0.0000
vn 0.0000 0.0000 -1.0000
vn 0.0000 0.0000 1.0000
vn -1.0000 0.0000 0.0000
vn 1.0000 0.0000 0.0000
vn 0.0000 1.0000 0.0000
vn 0.0000 -1.0000 0.0000
vn 0.0000 0.0000 -1.0000
vn 0.0000 0.0000 1.0000
vn -1.0000 0.0000 0.0000
vn 1.0000 0.0000 0.0000
vn 0.0000 1.0000 0.0000
vn 0.0000 -1.0000 0.0000
vn 0.0000 0.0000 -1.0000
vn 0.0000 0.0000 1.0000
vn -1.0000 0.0000 0.0000
vn 1.0000 0.0000 0.0000
vn 0.0000 1.0000 0.0000
vn 0.0000 -1.0000 0.0000
vn 1.0000 0.0000 0.0000
vn 0.5000 0.0000 0.8660
vn -0.5000 0.0000 0.8660
vn -1.0000 0.0000 0.0000
vn -0.5000 0.0000 -0.8660
vn 0.5000 0.0000 -0.8660
vn 0.0000 -1.0000 0.0000
vn 0.0000 1.0000 0.0000
vn 0.0000 0.0000 -1.0000
vn 0.0000 0.0000 1.0000
vn -1.0000 0.0000 0.0000
vn 1.0000 0.0000 0.0000
vn 0.0000 1.0000 0.0000
vn 0.0000 -1.0000 0.0000
vn 0.0000 0.0000 -1.0000
vn 0.0000 0.0000 1.0000
vn -1.0000 0.0000 0.0000
vn 1.0000 0.0000 0.0000
vn 0.0000 1.0000 0.0000
vn 0.0000 -1.0000 0.0000
vn 0.0000 0.0000 -1.0000
vn 0.0000 0.0000 1.0000
vn -1.0000 0.0000 0.0000
vn 1.0000 0.0000 0.0000
vn 0.0000 1.0000 0.0000
vn 0.0000 -1.0000 0.0000
vn 0.0000 0.0000 -1.0000
vn 0.0000 0.0000 1.0000
vn -1.0000 0.0000 0.0000
vn 1.0000 0.0000 0.0000
vn 0.0000 1.0000 0.0000
vn 0.0000 -1.0000 0.0000
vn 0.0000 0.0000 -1.0000
vn 0.0000 0.0000 1.0000
vn -1.0000 0.0000 0.0000
vn 1.0000 0.0000 0.0000
vn 0.0000 1.0000 0.0000
vn 0.0000 -1.0000 0.0000
vn 0.0000 0.0000 -1.0000
vn 0.0000 0.0000 1.0000
vn -1.0000 0.0000 0.0000
vn 1.0000 0.0000 0.0000
vn 0.0000 1.0000 0.0000
vn 0.0000 -1.0000 0.0000
vn 0.0000 0.0000 -1.0000
vn 0.0000 0.0000 1.0000
vn -1.0000 0.0000 0.0000
vn 1.0000 0.0000 0.0000
vn 0.0000 1.0000 0.0000
vn 0.0000 -1.0000 0.0000

vt 0.0000 0.0000
vt 1.0000 0.0000
vt 1.0000 1.0000
vt 0.0000 1.0000

usemtl PantsBrown
f 1/1/1 4/4/1 3/3/1 2/2/1
f 5/1/2 6/2/2 7/3/2 8/4/2
f 1/1/3 5/2/3 8/3/3 4/4/3
f 2/1/4 3/4/4 7/3/4 6/2/4
f 4/1/5 8/2/5 7/3/5 3/4/5
f 1/1/6 2/2/6 6/3/6 5/4/6
f 9/1/7 12/4/7 11/3/7 10/2/7
f 13/1/8 14/2/8 15/3/8 16/4/8
f 9/1/9 13/2/9 16/3/9 12/4/9
f 10/1/10 11/4/10 15/3/10 14/2/10
f 12/1/11 16/2/11 15/3/11 11/4/11
f 9/1/12 10/2/12 14/3/12 13/4/12
f 17/1/13 20/4/13 19/3/13 18/2/13
f 21/1/14 22/2/14 23/3/14 24/4/14
f 17/1/15 21/2/15 24/3/15 20/4/15
f 18/1/16 19/4/16 23/3/16 22/2/16
f 20/1/17 24/2/17 23/3/17 19/4/17
f 17/1/18 18/2/18 22/3/18 21/4/18
f 25/1/19 28/4/19 27/3/19 26/2/19
f 29/1/20 30/2/20 31/3/20 32/4/20
f 25/1/21 29/2/21 32/3/21 28/4/21
f 26/1/22 27/4/22 31/3/22 30/2/22
f 28/1/23 32/2/23 31/3/23 27/4/23
f 25/1/24 26/2/24 30/3/24 29/4/24
f 49/1/37 52/4/37 51/3/37 50/2/37
f 53/1/38 54/2/38 55/3/38 56/4/38
f 49/1/39 53/2/39 56/3/39 52/4/39
f 50/1/40 51/4/40 55/3/40 54/2/40
f 52/1/41 56/2/41 55/3/41 51/4/41
f 49/1/42 50/2/42 54/3/42 53/4/42
f 57/1/43 60/4/43 59/3/43 58/2/43
f 61/1/44 62/2/44 63/3/44 64/4/44
f 57/1/45 61/2/45 64/3/45 60/4/45
f 58/1/46 59/4/46 63/3/46 62/2/46
f 60/1/47 64/2/47 63/3/47 59/4/47
f 57/1/48 58/2/48 62/3/48 61/4/48
f 137/1/103 140/4/103 139/3/103 138/2/103
f 141/1/104 142/2/104 143/3/104 144/4/104
f 137/1/105 141/2/105 144/3/105 140/4/105
f 138/1/106 139/4/106 143/3/106 142/2/106
f 140/1/107 144/2/107 143/3/107 139/4/107
f 137/1/108 138/2/108 142/3/108 141/4/108

usemtl ExoCuirass
f 33/1/25 36/4/25 35/3/25 34/2/25
f 37/1/26 38/2/26 39/3/26 40/4/26
f 33/1/27 37/2/27 40/3/27 36/4/27
f 34/1/28 35/4/28 39/3/28 38/2/28
f 36/1/29 40/2/29 39/3/29 35/4/29
f 33/1/30 34/2/30 38/3/30 37/4/30
f 41/1/31 44/4/31 43/3/31 42/2/31
f 45/1/32 46/2/32 47/3/32 48/4/32
f 41/1/33 45/2/33 48/3/33 44/4/33
f 42/1/34 43/4/34 47/3/34 46/2/34
f 44/1/35 48/2/35 47/3/35 43/4/35
f 41/1/36 42/2/36 46/3/36 45/4/36
f 65/1/49 68/4/49 67/3/49 66/2/49
f 69/1/50 70/2/50 71/3/50 72/4/50
f 65/1/51 69/2/51 72/3/51 68/4/51
f 66/1/52 67/4/52 71/3/52 70/2/52
f 68/1/53 72/2/53 71/3/53 67/4/53
f 65/1/54 66/2/54 70/3/54 69/4/54
f 249/1/177 252/4/177 251/3/177 250/2/177
f 253/1/178 254/2/178 255/3/178 256/4/178
f 249/1/179 253/2/179 256/3/179 252/4/179
f 250/1/180 251/4/180 255/3/180 254/2/180
f 252/1/181 256/2/181 255/3/181 251/4/181
f 249/1/182 250/2/182 254/3/182 253/4/182
f 257/1/183 260/4/183 259/3/183 258/2/183
f 261/1/184 262/2/184 263/3/184 264/4/184
f 257/1/185 261/2/185 264/3/185 260/4/185
f 258/1/186 259/4/186 263/3/186 262/2/186
f 260/1/187 264/2/187 263/3/187 259/4/187
f 257/1/188 258/2/188 262/3/188 261/4/188
f 265/1/189 268/4/189 267/3/189 266/2/189
f 269/1/190 270/2/190 271/3/190 272/4/190
f 265/1/191 269/2/191 272/3/191 268/4/191
f 266/1/192 267/4/192 271/3/192 270/2/192
f 268/1/193 272/2/193 271/3/193 267/4/193
f 265/1/194 266/2/194 270/3/194 269/4/194
f 273/1/195 276/4/195 275/3/195 274/2/195
f 277/1/196 278/2/196 279/3/196 280/4/196
f 273/1/197 277/2/197 280/3/197 276/4/197
f 274/1/198 275/4/198 279/3/198 278/2/198
f 276/1/199 280/2/199 279/3/199 275/4/199
f 273/1/200 274/2/200 278/3/200 277/4/200
f 281/1/201 284/4/201 283/3/201 282/2/201
f 285/1/202 286/2/202 287/3/202 288/4/202
f 281/1/203 285/2/203 288/3/203 284/4/203
f 282/1/204 283/4/204 287/3/204 286/2/204
f 284/1/205 288/2/205 287/3/205 283/4/205
f 281/1/206 282/2/206 286/3/206 285/4/206
f 289/1/207 290/2/207 292/3/208 291/4/208
f 291/1/208 292/2/208 294/3/209 293/4/209
f 293/1/209 294/2/209 296/3/210 295/4/210
f 295/1/210 296/2/210 298/3/211 297/4/211
f 297/1/211 298/2/211 300/3/212 299/4/212
f 299/1/212 300/2/212 302/3/213 301/4/213
f 301/1/213 302/2/213 304/3/214 303/4/214
f 303/1/214 304/2/214 306/3/215 305/4/215
f 305/1/215 306/2/215 308/3/216 307/4/216
f 307/1/216 308/2/216 310/3/217 309/4/217
f 309/1/217 310/2/217 312/3/218 311/4/218
f 311/1/218 312/2/218 314/3/219 313/4/219
f 313/1/219 314/2/219 316/3/220 315/4/220
f 315/1/220 316/2/220 290/3/207 289/4/207
f 315/1/221 313/1/221 311/1/221 309/1/221 307/1/221 305/1/221 303/1/221 301/1/221 299/1/221 297/1/221 295/1/221 293/1/221 291/1/221 289/1/221
f 290/1/222 292/1/222 294/1/222 296/1/222 298/1/222 300/1/222 302/1/222 304/1/222 306/1/222 308/1/222 310/1/222 312/1/222 314/1/222 316/1/222
f 401/1/279 402/2/279 404/3/280 403/4/280
f 403/1/280 404/2/280 406/3/281 405/4/281
f 405/1/281 406/2/281 408/3/282 407/4/282
f 407/1/282 408/2/282 410/3/283 409/4/283
f 409/1/283 410/2/283 412/3/284 411/4/284
f 411/1/284 412/2/284 414/3/285 413/4/285
f 413/1/285 414/2/285 416/3/286 415/4/286
f 415/1/286 416/2/286 418/3/287 417/4/287
f 417/1/287 418/2/287 420/3/288 419/4/288
f 419/1/288 420/2/288 422/3/289 421/4/289
f 421/1/289 422/2/289 424/3/290 423/4/290
f 423/1/290 424/2/290 426/3/291 425/4/291
f 425/1/291 426/2/291 428/3/292 427/4/292
f 427/1/292 428/2/292 402/3/279 401/4/279
f 427/1/293 425/1/293 423/1/293 421/1/293 419/1/293 417/1/293 415/1/293 413/1/293 411/1/293 409/1/293 407/1/293 405/1/293 403/1/293 401/1/293
f 402/1/294 404/1/294 406/1/294 408/1/294 410/1/294 412/1/294 414/1/294 416/1/294 418/1/294 420/1/294 422/1/294 424/1/294 426/1/294 428/1/294
f 569/1/391 572/4/391 571/3/391 570/2/391
f 573/1/392 574/2/392 575/3/392 576/4/392
f 569/1/393 573/2/393 576/3/393 572/4/393
f 570/1/394 571/4/394 575/3/394 574/2/394
f 572/1/395 576/2/395 575/3/395 571/4/395
f 569/1/396 570/2/396 574/3/396 573/4/396
f 577/1/397 580/4/397 579/3/397 578/2/397
f 581/1/398 582/2/398 583/3/398 584/4/398
f 577/1/399 581/2/399 584/3/399 580/4/399
f 578/1/400 579/4/400 583/3/400 582/2/400
f 580/1/401 584/2/401 583/3/401 579/4/401
f 577/1/402 578/2/402 582/3/402 581/4/402
f 585/1/403 588/4/403 587/3/403 586/2/403
f 589/1/404 590/2/404 591/3/404 592/4/404
f 585/1/405 589/2/405 592/3/405 588/4/405
f 586/1/406 587/4/406 591/3/406 590/2/406
f 588/1/407 592/2/407 591/3/407 587/4/407
f 585/1/408 586/2/408 590/3/408 589/4/408
f 617/1/425 620/4/425 619/3/425 618/2/425
f 621/1/426 622/2/426 623/3/426 624/4/426
f 617/1/427 621/2/427 624/3/427 620/4/427
f 618/1/428 619/4/428 623/3/428 622/2/428
f 620/1/429 624/2/429 623/3/429 619/4/429
f 617/1/430 618/2/430 622/3/430 621/4/430
f 685/1/475 688/4/475 687/3/475 686/2/475
f 689/1/476 690/2/476 691/3/476 692/4/476
f 685/1/477 689/2/477 692/3/477 688/4/477
f 686/1/478 687/4/478 691/3/478 690/2/478
f 688/1/479 692/2/479 691/3/479 687/4/479
f 685/1/480 686/2/480 690/3/480 689/4/480
f 737/1/513 740/4/513 739/3/513 738/2/513
f 741/1/514 742/2/514 743/3/514 744/4/514
f 737/1/515 741/2/515 744/3/515 740/4/515
f 738/1/516 739/4/516 743/3/516 742/2/516
f 740/1/517 744/2/517 743/3/517 739/4/517
f 737/1/518 738/2/518 742/3/518 741/4/518

usemtl BootsBlack
f 73/1/55 76/4/55 75/3/55 74/2/55
f 77/1/56 78/2/56 79/3/56 80/4/56
f 73/1/57 77/2/57 80/3/57 76/4/57
f 74/1/58 75/4/58 79/3/58 78/2/58
f 76/1/59 80/2/59 79/3/59 75/4/59
f 73/1/60 74/2/60 78/3/60 77/4/60
f 81/1/61 84/4/61 83/3/61 82/2/61
f 85/1/62 86/2/62 87/3/62 88/4/62
f 81/1/63 85/2/63 88/3/63 84/4/63
f 82/1/64 83/4/64 87/3/64 86/2/64
f 84/1/65 88/2/65 87/3/65 83/4/65
f 81/1/66 82/2/66 86/3/66 85/4/66
f 89/1/67 92/4/67 91/3/67 90/2/67
f 93/1/68 94/2/68 95/3/68 96/4/68
f 89/1/69 93/2/69 96/3/69 92/4/69
f 90/1/70 91/4/70 95/3/70 94/2/70
f 92/1/71 96/2/71 95/3/71 91/4/71
f 89/1/72 90/2/72 94/3/72 93/4/72
f 105/1/79 108/4/79 107/3/79 106/2/79
f 109/1/80 110/2/80 111/3/80 112/4/80
f 105/1/81 109/2/81 112/3/81 108/4/81
f 106/1/82 107/4/82 111/3/82 110/2/82
f 108/1/83 112/2/83 111/3/83 107/4/83
f 105/1/84 106/2/84 110/3/84 109/4/84
f 113/1/85 116/4/85 115/3/85 114/2/85
f 117/1/86 118/2/86 119/3/86 120/4/86
f 113/1/87 117/2/87 120/3/87 116/4/87
f 114/1/88 115/4/88 119/3/88 118/2/88
f 116/1/89 120/2/89 119/3/89 115/4/89
f 113/1/90 114/2/90 118/3/90 117/4/90
f 121/1/91 124/4/91 123/3/91 122/2/91
f 125/1/92 126/2/92 127/3/92 128/4/92
f 121/1/93 125/2/93 128/3/93 124/4/93
f 122/1/94 123/4/94 127/3/94 126/2/94
f 124/1/95 128/2/95 127/3/95 123/4/95
f 121/1/96 122/2/96 126/3/96 125/4/96
f 677/1/469 680/4/469 679/3/469 678/2/469
f 681/1/470 682/2/470 683/3/470 684/4/470
f 677/1/471 681/2/471 684/3/471 680/4/471
f 678/1/472 679/4/472 683/3/472 682/2/472
f 680/1/473 684/2/473 683/3/473 679/4/473
f 677/1/474 678/2/474 682/3/474 681/4/474
f 753/1/525 756/4/525 755/3/525 754/2/525
f 757/1/526 758/2/526 759/3/526 760/4/526
f 753/1/527 757/2/527 760/3/527 756/4/527
f 754/1/528 755/4/528 759/3/528 758/2/528
f 756/1/529 760/2/529 759/3/529 755/4/529
f 753/1/530 754/2/530 758/3/530 757/4/530
f 761/1/531 764/4/531 763/3/531 762/2/531
f 765/1/532 766/2/532 767/3/532 768/4/532
f 761/1/533 765/2/533 768/3/533 764/4/533
f 762/1/534 763/4/534 767/3/534 766/2/534
f 764/1/535 768/2/535 767/3/535 763/4/535
f 761/1/536 762/2/536 766/3/536 765/4/536

usemtl RespiratorMetal
f 97/1/73 100/4/73 99/3/73 98/2/73
f 101/1/74 102/2/74 103/3/74 104/4/74
f 97/1/75 101/2/75 104/3/75 100/4/75
f 98/1/76 99/4/76 103/3/76 102/2/76
f 100/1/77 104/2/77 103/3/77 99/4/77
f 97/1/78 98/2/78 102/3/78 101/4/78
f 129/1/97 132/4/97 131/3/97 130/2/97
f 133/1/98 134/2/98 135/3/98 136/4/98
f 129/1/99 133/2/99 136/3/99 132/4/99
f 130/1/100 131/4/100 135/3/100 134/2/100
f 132/1/101 136/2/101 135/3/101 131/4/101
f 129/1/102 130/2/102 134/3/102 133/4/102
f 545/1/373 548/4/373 547/3/373 546/2/373
f 549/1/374 550/2/374 551/3/374 552/4/374
f 545/1/375 549/2/375 552/3/375 548/4/375
f 546/1/376 547/4/376 551/3/376 550/2/376
f 548/1/377 552/2/377 551/3/377 547/4/377
f 545/1/378 546/2/378 550/3/378 549/4/378
f 553/1/379 556/4/379 555/3/379 554/2/379
f 557/1/380 558/2/380 559/3/380 560/4/380
f 553/1/381 557/2/381 560/3/381 556/4/381
f 554/1/382 555/4/382 559/3/382 558/2/382
f 556/1/383 560/2/383 559/3/383 555/4/383
f 553/1/384 554/2/384 558/3/384 557/4/384
f 561/1/385 564/4/385 563/3/385 562/2/385
f 565/1/386 566/2/386 567/3/386 568/4/386
f 561/1/387 565/2/387 568/3/387 564/4/387
f 562/1/388 563/4/388 567/3/388 566/2/388
f 564/1/389 568/2/389 567/3/389 563/4/389
f 561/1/390 562/2/390 566/3/390 565/4/390

usemtl BeltPouchesOlive
f 145/1/109 148/4/109 147/3/109 146/2/109
f 149/1/110 150/2/110 151/3/110 152/4/110
f 145/1/111 149/2/111 152/3/111 148/4/111
f 146/1/112 147/4/112 151/3/112 150/2/112
f 148/1/113 152/2/113 151/3/113 147/4/113
f 145/1/114 146/2/114 150/3/114 149/4/114
f 177/1/129 180/4/129 179/3/129 178/2/129
f 181/1/130 182/2/130 183/3/130 184/4/130
f 177/1/131 181/2/131 184/3/131 180/4/131
f 178/1/132 179/4/132 183/3/132 182/2/132
f 180/1/133 184/2/133 183/3/133 179/4/133
f 177/1/134 178/2/134 182/3/134 181/4/134
f 185/1/135 188/4/135 187/3/135 186/2/135
f 189/1/136 190/2/136 191/3/136 192/4/136
f 185/1/137 189/2/137 192/3/137 188/4/137
f 186/1/138 187/4/138 191/3/138 190/2/138
f 188/1/139 192/2/139 191/3/139 187/4/139
f 185/1/140 186/2/140 190/3/140 189/4/140
f 669/1/463 672/4/463 671/3/463 670/2/463
f 673/1/464 674/2/464 675/3/464 676/4/464
f 669/1/465 673/2/465 676/3/465 672/4/465
f 670/1/466 671/4/466 675/3/466 674/2/466
f 672/1/467 676/2/467 675/3/467 671/4/467
f 669/1/468 670/2/468 674/3/468 673/4/468
f 713/1/495 716/4/495 715/3/495 714/2/495
f 717/1/496 718/2/496 719/3/496 720/4/496
f 713/1/497 717/2/497 720/3/497 716/4/497
f 714/1/498 715/4/498 719/3/498 718/2/498
f 716/1/499 720/2/499 719/3/499 715/4/499
f 713/1/500 714/2/500 718/3/500 717/4/500

usemtl HydraulicYellow
f 153/1/115 154/2/115 156/3/116 155/4/116
f 155/1/116 156/2/116 158/3/117 157/4/117
f 157/1/117 158/2/117 160/3/118 159/4/118
f 159/1/118 160/2/118 162/3/119 161/4/119
f 161/1/119 162/2/119 164/3/120 163/4/120
f 163/1/120 164/2/120 166/3/121 165/4/121
f 165/1/121 166/2/121 168/3/122 167/4/122
f 167/1/122 168/2/122 170/3/123 169/4/123
f 169/1/123 170/2/123 172/3/124 171/4/124
f 171/1/124 172/2/124 174/3/125 173/4/125
f 173/1/125 174/2/125 176/3/126 175/4/126
f 175/1/126 176/2/126 154/3/115 153/4/115
f 175/1/127 173/1/127 171/1/127 169/1/127 167/1/127 165/1/127 163/1/127 161/1/127 159/1/127 157/1/127 155/1/127 153/1/127
f 154/1/128 156/1/128 158/1/128 160/1/128 162/1/128 164/1/128 166/1/128 168/1/128 170/1/128 172/1/128 174/1/128 176/1/128
f 345/1/239 348/4/239 347/3/239 346/2/239
f 349/1/240 350/2/240 351/3/240 352/4/240
f 345/1/241 349/2/241 352/3/241 348/4/241
f 346/1/242 347/4/242 351/3/242 350/2/242
f 348/1/243 352/2/243 351/3/243 347/4/243
f 345/1/244 346/2/244 350/3/244 349/4/244
f 353/1/245 354/2/245 356/3/246 355/4/246
f 355/1/246 356/2/246 358/3/247 357/4/247
f 357/1/247 358/2/247 360/3/248 359/4/248
f 359/1/248 360/2/248 362/3/249 361/4/249
f 361/1/249 362/2/249 364/3/250 363/4/250
f 363/1/250 364/2/250 366/3/251 365/4/251
f 365/1/251 366/2/251 368/3/252 367/4/252
f 367/1/252 368/2/252 354/3/245 353/4/245
f 367/1/253 365/1/253 363/1/253 361/1/253 359/1/253 357/1/253 355/1/253 353/1/253
f 354/1/254 356/1/254 358/1/254 360/1/254 362/1/254 364/1/254 366/1/254 368/1/254
f 369/1/255 372/4/255 371/3/255 370/2/255
f 373/1/256 374/2/256 375/3/256 376/4/256
f 369/1/257 373/2/257 376/3/257 372/4/257
f 370/1/258 371/4/258 375/3/258 374/2/258
f 372/1/259 376/2/259 375/3/259 371/4/259
f 369/1/260 370/2/260 374/3/260 373/4/260
f 377/1/261 380/4/261 379/3/261 378/2/261
f 381/1/262 382/2/262 383/3/262 384/4/262
f 377/1/263 381/2/263 384/3/263 380/4/263
f 378/1/264 379/4/264 383/3/264 382/2/264
f 380/1/265 384/2/265 383/3/265 379/4/265
f 377/1/266 378/2/266 382/3/266 381/4/266
f 593/1/409 594/2/409 596/3/410 595/4/410
f 595/1/410 596/2/410 598/3/411 597/4/411
f 597/1/411 598/2/411 600/3/412 599/4/412
f 599/1/412 600/2/412 602/3/413 601/4/413
f 601/1/413 602/2/413 604/3/414 603/4/414
f 603/1/414 604/2/414 594/3/409 593/4/409
f 603/1/415 601/1/415 599/1/415 597/1/415 595/1/415 593/1/415
f 594/1/416 596/1/416 598/1/416 600/1/416 602/1/416 604/1/416
f 605/1/417 606/2/417 608/3/418 607/4/418
f 607/1/418 608/2/418 610/3/419 609/4/419
f 609/1/419 610/2/419 612/3/420 611/4/420
f 611/1/420 612/2/420 614/3/421 613/4/421
f 613/1/421 614/2/421 616/3/422 615/4/422
f 615/1/422 616/2/422 606/3/417 605/4/417
f 615/1/423 613/1/423 611/1/423 609/1/423 607/1/423 605/1/423
f 606/1/424 608/1/424 610/1/424 612/1/424 614/1/424 616/1/424

usemtl CyberArmSteel
f 193/1/141 194/2/141 196/3/142 195/4/142
f 195/1/142 196/2/142 198/3/143 197/4/143
f 197/1/143 198/2/143 200/3/144 199/4/144
f 199/1/144 200/2/144 202/3/145 201/4/145
f 201/1/145 202/2/145 204/3/146 203/4/146
f 203/1/146 204/2/146 206/3/147 205/4/147
f 205/1/147 206/2/147 208/3/148 207/4/148
f 207/1/148 208/2/148 210/3/149 209/4/149
f 209/1/149 210/2/149 212/3/150 211/4/150
f 211/1/150 212/2/150 194/3/141 193/4/141
f 211/1/151 209/1/151 207/1/151 205/1/151 203/1/151 201/1/151 199/1/151 197/1/151 195/1/151 193/1/151
f 194/1/152 196/1/152 198/1/152 200/1/152 202/1/152 204/1/152 206/1/152 208/1/152 210/1/152 212/1/152
f 645/1/445 648/4/445 647/3/445 646/2/445
f 649/1/446 650/2/446 651/3/446 652/4/446
f 645/1/447 649/2/447 652/3/447 648/4/447
f 646/1/448 647/4/448 651/3/448 650/2/448
f 648/1/449 652/2/449 651/3/449 647/4/449
f 645/1/450 646/2/450 650/3/450 649/4/450
f 653/1/451 656/4/451 655/3/451 654/2/451
f 657/1/452 658/2/452 659/3/452 660/4/452
f 653/1/453 657/2/453 660/3/453 656/4/453
f 654/1/454 655/4/454 659/3/454 658/2/454
f 656/1/455 660/2/455 659/3/455 655/4/455
f 653/1/456 654/2/456 658/3/456 657/4/456
f 721/1/501 724/4/501 723/3/501 722/2/501
f 725/1/502 726/2/502 727/3/502 728/4/502
f 721/1/503 725/2/503 728/3/503 724/4/503
f 722/1/504 723/4/504 727/3/504 726/2/504
f 724/1/505 728/2/505 727/3/505 723/4/505
f 721/1/506 722/2/506 726/3/506 725/4/506
f 729/1/507 732/4/507 731/3/507 730/2/507
f 733/1/508 734/2/508 735/3/508 736/4/508
f 729/1/509 733/2/509 736/3/509 732/4/509
f 730/1/510 731/4/510 735/3/510 734/2/510
f 732/1/511 736/2/511 735/3/511 731/4/511
f 729/1/512 730/2/512 734/3/512 733/4/512

usemtl CoreAmberGlow
f 213/1/153 214/2/153 216/3/154 215/4/154
f 215/1/154 216/2/154 218/3/155 217/4/155
f 217/1/155 218/2/155 220/3/156 219/4/156
f 219/1/156 220/2/156 222/3/157 221/4/157
f 221/1/157 222/2/157 224/3/158 223/4/158
f 223/1/158 224/2/158 226/3/159 225/4/159
f 225/1/159 226/2/159 228/3/160 227/4/160
f 227/1/160 228/2/160 230/3/161 229/4/161
f 229/1/161 230/2/161 232/3/162 231/4/162
f 231/1/162 232/2/162 214/3/153 213/4/153
f 231/1/163 229/1/163 227/1/163 225/1/163 223/1/163 221/1/163 219/1/163 217/1/163 215/1/163 213/1/163
f 214/1/164 216/1/164 218/1/164 220/1/164 222/1/164 224/1/164 226/1/164 228/1/164 230/1/164 232/1/164
f 317/1/223 318/2/223 320/3/224 319/4/224
f 319/1/224 320/2/224 322/3/225 321/4/225
f 321/1/225 322/2/225 324/3/226 323/4/226
f 323/1/226 324/2/226 326/3/227 325/4/227
f 325/1/227 326/2/227 328/3/228 327/4/228
f 327/1/228 328/2/228 330/3/229 329/4/229
f 329/1/229 330/2/229 332/3/230 331/4/230
f 331/1/230 332/2/230 334/3/231 333/4/231
f 333/1/231 334/2/231 336/3/232 335/4/232
f 335/1/232 336/2/232 338/3/233 337/4/233
f 337/1/233 338/2/233 340/3/234 339/4/234
f 339/1/234 340/2/234 342/3/235 341/4/235
f 341/1/235 342/2/235 344/3/236 343/4/236
f 343/1/236 344/2/236 318/3/223 317/4/223
f 343/1/237 341/1/237 339/1/237 337/1/237 335/1/237 333/1/237 331/1/237 329/1/237 327/1/237 325/1/237 323/1/237 321/1/237 319/1/237 317/1/237
f 318/1/238 320/1/238 322/1/238 324/1/238 326/1/238 328/1/238 330/1/238 332/1/238 334/1/238 336/1/238 338/1/238 340/1/238 342/1/238 344/1/238
f 385/1/267 388/4/267 387/3/267 386/2/267
f 389/1/268 390/2/268 391/3/268 392/4/268
f 385/1/269 389/2/269 392/3/269 388/4/269
f 386/1/270 387/4/270 391/3/270 390/2/270
f 388/1/271 392/2/271 391/3/271 387/4/271
f 385/1/272 386/2/272 390/3/272 389/4/272
f 393/1/273 396/4/273 395/3/273 394/2/273
f 397/1/274 398/2/274 399/3/274 400/4/274
f 393/1/275 397/2/275 400/3/275 396/4/275
f 394/1/276 395/4/276 399/3/276 398/2/276
f 396/1/277 400/2/277 399/3/277 395/4/277
f 393/1/278 394/2/278 398/3/278 397/4/278
f 429/1/295 430/2/295 432/3/296 431/4/296
f 431/1/296 432/2/296 434/3/297 433/4/297
f 433/1/297 434/2/297 436/3/298 435/4/298
f 435/1/298 436/2/298 438/3/299 437/4/299
f 437/1/299 438/2/299 440/3/300 439/4/300
f 439/1/300 440/2/300 442/3/301 441/4/301
f 441/1/301 442/2/301 444/3/302 443/4/302
f 443/1/302 444/2/302 446/3/303 445/4/303
f 445/1/303 446/2/303 448/3/304 447/4/304
f 447/1/304 448/2/304 450/3/305 449/4/305
f 449/1/305 450/2/305 452/3/306 451/4/306
f 451/1/306 452/2/306 454/3/307 453/4/307
f 453/1/307 454/2/307 456/3/308 455/4/308
f 455/1/308 456/2/308 430/3/295 429/4/295
f 455/1/309 453/1/309 451/1/309 449/1/309 447/1/309 445/1/309 443/1/309 441/1/309 439/1/309 437/1/309 435/1/309 433/1/309 431/1/309 429/1/309
f 430/1/310 432/1/310 434/1/310 436/1/310 438/1/310 440/1/310 442/1/310 444/1/310 446/1/310 448/1/310 450/1/310 452/1/310 454/1/310 456/1/310

usemtl TealShirt
f 233/1/165 236/4/165 235/3/165 234/2/165
f 237/1/166 238/2/166 239/3/166 240/4/166
f 233/1/167 237/2/167 240/3/167 236/4/167
f 234/1/168 235/4/168 239/3/168 238/2/168
f 236/1/169 240/2/169 239/3/169 235/4/169
f 233/1/170 234/2/170 238/3/170 237/4/170
f 241/1/171 244/4/171 243/3/171 242/2/171
f 245/1/172 246/2/172 247/3/172 248/4/172
f 241/1/173 245/2/173 248/3/173 244/4/173
f 242/1/174 243/4/174 247/3/174 246/2/174
f 244/1/175 248/2/175 247/3/175 243/4/175
f 241/1/176 242/2/176 246/3/176 245/4/176

usemtl SkinAsh
f 457/1/311 458/2/311 460/3/312 459/4/312
f 459/1/312 460/2/312 462/3/313 461/4/313
f 461/1/313 462/2/313 464/3/314 463/4/314
f 463/1/314 464/2/314 466/3/315 465/4/315
f 465/1/315 466/2/315 468/3/316 467/4/316
f 467/1/316 468/2/316 470/3/317 469/4/317
f 469/1/317 470/2/317 472/3/318 471/4/318
f 471/1/318 472/2/318 474/3/319 473/4/319
f 473/1/319 474/2/319 476/3/320 475/4/320
f 475/1/320 476/2/320 478/3/321 477/4/321
f 477/1/321 478/2/321 480/3/322 479/4/322
f 479/1/322 480/2/322 458/3/311 457/4/311
f 479/1/323 477/1/323 475/1/323 473/1/323 471/1/323 469/1/323 467/1/323 465/1/323 463/1/323 461/1/323 459/1/323 457/1/323
f 458/1/324 460/1/324 462/1/324 464/1/324 466/1/324 468/1/324 470/1/324 472/1/324 474/1/324 476/1/324 478/1/324 480/1/324
f 481/1/325 484/4/325 483/3/325 482/2/325
f 485/1/326 486/2/326 487/3/326 488/4/326
f 481/1/327 485/2/327 488/3/327 484/4/327
f 482/1/328 483/4/328 487/3/328 486/2/328
f 484/1/329 488/2/329 487/3/329 483/4/329
f 481/1/330 482/2/330 486/3/330 485/4/330
f 625/1/431 628/4/431 627/3/431 626/2/431
f 629/1/432 630/2/432 631/3/432 632/4/432
f 625/1/433 629/2/433 632/3/433 628/4/433
f 626/1/434 627/4/434 631/3/434 630/2/434
f 628/1/435 632/2/435 631/3/435 627/4/435
f 625/1/436 626/2/436 630/3/436 629/4/436
f 693/1/481 696/4/481 695/3/481 694/2/481
f 697/1/482 698/2/482 699/3/482 700/4/482
f 693/1/483 697/2/483 700/3/483 696/4/483
f 694/1/484 695/4/484 699/3/484 698/2/484
f 696/1/485 700/2/485 699/3/485 695/4/485
f 693/1/486 694/2/486 698/3/486 697/4/486

usemtl HairDark
f 489/1/331 492/4/331 491/3/331 490/2/331
f 493/1/332 494/2/332 495/3/332 496/4/332
f 489/1/333 493/2/333 496/3/333 492/4/333
f 490/1/334 491/4/334 495/3/334 494/2/334
f 492/1/335 496/2/335 495/3/335 491/4/335
f 489/1/336 490/2/336 494/3/336 493/4/336
f 497/1/337 500/4/337 499/3/337 498/2/337
f 501/1/338 502/2/338 503/3/338 504/4/338
f 497/1/339 501/2/339 504/3/339 500/4/339
f 498/1/340 499/4/340 503/3/340 502/2/340
f 500/1/341 504/2/341 503/3/341 499/4/341
f 497/1/342 498/2/342 502/3/342 501/4/342
f 505/1/343 508/4/343 507/3/343 506/2/343
f 509/1/344 510/2/344 511/3/344 512/4/344
f 505/1/345 509/2/345 512/3/345 508/4/345
f 506/1/346 507/4/346 511/3/346 510/2/346
f 508/1/347 512/2/347 511/3/347 507/4/347
f 505/1/348 506/2/348 510/3/348 509/4/348
f 513/1/349 516/4/349 515/3/349 514/2/349
f 517/1/350 518/2/350 519/3/350 520/4/350
f 513/1/351 517/2/351 520/3/351 516/4/351
f 514/1/352 515/4/352 519/3/352 518/2/352
f 516/1/353 520/2/353 519/3/353 515/4/353
f 513/1/354 514/2/354 518/3/354 517/4/354
f 521/1/355 524/4/355 523/3/355 522/2/355
f 525/1/356 526/2/356 527/3/356 528/4/356
f 521/1/357 525/2/357 528/3/357 524/4/357
f 522/1/358 523/4/358 527/3/358 526/2/358
f 524/1/359 528/2/359 527/3/359 523/4/359
f 521/1/360 522/2/360 526/3/360 525/4/360

usemtl EyesAmberGlow
f 529/1/361 532/4/361 531/3/361 530/2/361
f 533/1/362 534/2/362 535/3/362 536/4/362
f 529/1/363 533/2/363 536/3/363 532/4/363
f 530/1/364 531/4/364 535/3/364 534/2/364
f 532/1/365 536/2/365 535/3/365 531/4/365
f 529/1/366 530/2/366 534/3/366 533/4/366
f 537/1/367 540/4/367 539/3/367 538/2/367
f 541/1/368 542/2/368 543/3/368 544/4/368
f 537/1/369 541/2/369 544/3/369 540/4/369
f 538/1/370 539/4/370 543/3/370 542/2/370
f 540/1/371 544/2/371 543/3/371 539/4/371
f 537/1/372 538/2/372 542/3/372 541/4/372
f 745/1/519 748/4/519 747/3/519 746/2/519
f 749/1/520 750/2/520 751/3/520 752/4/520
f 745/1/521 749/2/521 752/3/521 748/4/521
f 746/1/522 747/4/522 751/3/522 750/2/522
f 748/1/523 752/2/523 751/3/523 747/4/523
f 745/1/524 746/2/524 750/3/524 749/4/524

usemtl CableRedGlow
f 633/1/437 634/2/437 636/3/438 635/4/438
f 635/1/438 636/2/438 638/3/439 637/4/439
f 637/1/439 638/2/439 640/3/440 639/4/440
f 639/1/440 640/2/440 642/3/441 641/4/441
f 641/1/441 642/2/441 644/3/442 643/4/442
f 643/1/442 644/2/442 634/3/437 633/4/437
f 643/1/443 641/1/443 639/1/443 637/1/443 635/1/443 633/1/443
f 634/1/444 636/1/444 638/1/444 640/1/444 642/1/444 644/1/444
f 661/1/457 664/4/457 663/3/457 662/2/457
f 665/1/458 666/2/458 667/3/458 668/4/458
f 661/1/459 665/2/459 668/3/459 664/4/459
f 662/1/460 663/4/460 667/3/460 666/2/460
f 664/1/461 668/2/461 667/3/461 663/4/461
f 661/1/462 662/2/462 666/3/462 665/4/462
f 701/1/487 702/2/487 704/3/488 703/4/488
f 703/1/488 704/2/488 706/3/489 705/4/489
f 705/1/489 706/2/489 708/3/490 707/4/490
f 707/1/490 708/2/490 710/3/491 709/4/491
f 709/1/491 710/2/491 712/3/492 711/4/492
f 711/1/492 712/2/492 702/3/487 701/4/487
f 711/1/493 709/1/493 707/1/493 705/1/493 703/1/493 701/1/493
f 702/1/494 704/1/494 706/1/494 708/1/494 710/1/494 712/1/494

