# Cyber-Mercenary 3D Mesh
mtllib mercenary.mtl

v -0.0550 0.0200 -0.0550
v 0.0550 0.0200 -0.0550
v 0.0550 0.1000 -0.0550
v -0.0550 0.1000 -0.0550
v -0.0550 0.0200 0.0550
v 0.0550 0.0200 0.0550
v 0.0550 0.1000 0.0550
v -0.0550 0.1000 0.0550
v -0.0225 -0.1500 0.0150
v 0.0625 -0.1500 0.0150
v 0.0625 0.0300 0.0150
v -0.0225 0.0300 0.0150
v -0.0225 -0.1500 0.1050
v 0.0625 -0.1500 0.1050
v 0.0625 0.0300 0.1050
v -0.0225 0.0300 0.1050
v -0.0140 -0.1400 0.0850
v -0.0140 0.0200 0.0850
v -0.0170 -0.1400 0.0902
v -0.0170 0.0200 0.0902
v -0.0230 -0.1400 0.0902
v -0.0230 0.0200 0.0902
v -0.0260 -0.1400 0.0850
v -0.0260 0.0200 0.0850
v -0.0230 -0.1400 0.0798
v -0.0230 0.0200 0.0798
v -0.0170 -0.1400 0.0798
v -0.0170 0.0200 0.0798
v 0.0000 -0.1900 0.0900
v 0.0800 -0.1900 0.0900
v 0.0800 -0.1100 0.0900
v 0.0000 -0.1100 0.0900
v 0.0000 -0.1900 0.1700
v 0.0800 -0.1900 0.1700
v 0.0800 -0.1100 0.1700
v 0.0000 -0.1100 0.1700
v 0.0325 -0.1475 0.1600
v 0.1075 -0.1475 0.1600
v 0.1075 -0.0725 0.1600
v 0.0325 -0.0725 0.1600
v 0.0325 -0.1475 0.3600
v 0.1075 -0.1475 0.3600
v 0.1075 -0.0725 0.3600
v 0.0325 -0.0725 0.3600
v 0.0650 -0.0825 0.1900
v 0.0850 -0.0825 0.1900
v 0.0850 -0.0675 0.1900
v 0.0650 -0.0675 0.1900
v 0.0650 -0.0825 0.3300
v 0.0850 -0.0825 0.3300
v 0.0850 -0.0675 0.3300
v 0.0650 -0.0675 0.3300
v 0.0550 -0.1025 0.3400
v 0.1250 -0.1025 0.3400
v 0.1250 -0.0375 0.3400
v 0.0550 -0.0375 0.3400
v 0.0550 -0.1025 0.4200
v 0.1250 -0.1025 0.4200
v 0.1250 -0.0375 0.4200
v 0.0550 -0.0375 0.4200
v 0.0575 -0.0975 0.4000
v 0.1225 -0.0975 0.4000
v 0.1225 -0.0425 0.4000
v 0.0575 -0.0425 0.4000
v 0.0575 -0.0975 0.4400
v 0.1225 -0.0975 0.4400
v 0.1225 -0.0425 0.4400
v 0.0575 -0.0425 0.4400

vn 0.0000 0.0000 -1.0000
vn 0.0000 0.0000 1.0000
vn -1.0000 0.0000 0.0000
vn 1.0000 0.0000 0.0000
vn 0.0000 1.0000 0.0000
vn 0.0000 -1.0000 0.0000
vn 0.0000 0.0000 -1.0000
vn 0.0000 0.0000 1.0000
vn -1.0000 0.0000 0.0000
vn 1.0000 0.0000 0.0000
vn 0.0000 1.0000 0.0000
vn 0.0000 -1.0000 0.0000
vn 1.0000 0.0000 0.0000
vn 0.5000 0.0000 0.8660
vn -0.5000 0.0000 0.8660
vn -1.0000 0.0000 0.0000
vn -0.5000 0.0000 -0.8660
vn 0.5000 0.0000 -0.8660
vn 0.0000 -1.0000 0.0000
vn 0.0000 1.0000 0.0000
vn 0.0000 0.0000 -1.0000
vn 0.0000 0.0000 1.0000
vn -1.0000 0.0000 0.0000
vn 1.0000 0.0000 0.0000
vn 0.0000 1.0000 0.0000
vn 0.0000 -1.0000 0.0000
vn 0.0000 0.0000 -1.0000
vn 0.0000 0.0000 1.0000
vn -1.0000 0.0000 0.0000
vn 1.0000 0.0000 0.0000
vn 0.0000 1.0000 0.0000
vn 0.0000 -1.0000 0.0000
vn 0.0000 0.0000 -1.0000
vn 0.0000 0.0000 1.0000
vn -1.0000 0.0000 0.0000
vn 1.0000 0.0000 0.0000
vn 0.0000 1.0000 0.0000
vn 0.0000 -1.0000 0.0000
vn 0.0000 0.0000 -1.0000
vn 0.0000 0.0000 1.0000
vn -1.0000 0.0000 0.0000
vn 1.0000 0.0000 0.0000
vn 0.0000 1.0000 0.0000
vn 0.0000 -1.0000 0.0000
vn 0.0000 0.0000 -1.0000
vn 0.0000 0.0000 1.0000
vn -1.0000 0.0000 0.0000
vn 1.0000 0.0000 0.0000
vn 0.0000 1.0000 0.0000
vn 0.0000 -1.0000 0.0000

vt 0.0000 0.0000
vt 1.0000 0.0000
vt 1.0000 1.0000
vt 0.0000 1.0000

usemtl ExoCuirass
f 1/1/1 4/4/1 3/3/1 2/2/1
f 5/1/2 6/2/2 7/3/2 8/4/2
f 1/1/3 5/2/3 8/3/3 4/4/3
f 2/1/4 3/4/4 7/3/4 6/2/4
f 4/1/5 8/2/5 7/3/5 3/4/5
f 1/1/6 2/2/6 6/3/6 5/4/6

usemtl SkinAsh
f 9/1/7 12/4/7 11/3/7 10/2/7
f 13/1/8 14/2/8 15/3/8 16/4/8
f 9/1/9 13/2/9 16/3/9 12/4/9
f 10/1/10 11/4/10 15/3/10 14/2/10
f 12/1/11 16/2/11 15/3/11 11/4/11
f 9/1/12 10/2/12 14/3/12 13/4/12

usemtl CableRedGlow
f 17/1/13 18/2/13 20/3/14 19/4/14
f 19/1/14 20/2/14 22/3/15 21/4/15
f 21/1/15 22/2/15 24/3/16 23/4/16
f 23/1/16 24/2/16 26/3/17 25/4/17
f 25/1/17 26/2/17 28/3/18 27/4/18
f 27/1/18 28/2/18 18/3/13 17/4/13
f 27/1/19 25/1/19 23/1/19 21/1/19 19/1/19 17/1/19
f 18/1/20 20/1/20 22/1/20 24/1/20 26/1/20 28/1/20
f 45/1/33 48/4/33 47/3/33 46/2/33
f 49/1/34 50/2/34 51/3/34 52/4/34
f 45/1/35 49/2/35 52/3/35 48/4/35
f 46/1/36 47/4/36 51/3/36 50/2/36
f 48/1/37 52/2/37 51/3/37 47/4/37
f 45/1/38 46/2/38 50/3/38 49/4/38

usemtl CyberArmSteel
f 29/1/21 32/4/21 31/3/21 30/2/21
f 33/1/22 34/2/22 35/3/22 36/4/22
f 29/1/23 33/2/23 36/3/23 32/4/23
f 30/1/24 31/4/24 35/3/24 34/2/24
f 32/1/25 36/2/25 35/3/25 31/4/25
f 29/1/26 30/2/26 34/3/26 33/4/26
f 37/1/27 40/4/27 39/3/27 38/2/27
f 41/1/28 42/2/28 43/3/28 44/4/28
f 37/1/29 41/2/29 44/3/29 40/4/29
f 38/1/30 39/4/30 43/3/30 42/2/30
f 40/1/31 44/2/31 43/3/31 39/4/31
f 37/1/32 38/2/32 42/3/32 41/4/32

usemtl BeltPouchesOlive
f 53/1/39 56/4/39 55/3/39 54/2/39
f 57/1/40 58/2/40 59/3/40 60/4/40
f 53/1/41 57/2/41 60/3/41 56/4/41
f 54/1/42 55/4/42 59/3/42 58/2/42
f 56/1/43 60/2/43 59/3/43 55/4/43
f 53/1/44 54/2/44 58/3/44 57/4/44

usemtl BootsBlack
f 61/1/45 64/4/45 63/3/45 62/2/45
f 65/1/46 66/2/46 67/3/46 68/4/46
f 61/1/47 65/2/47 68/3/47 64/4/47
f 62/1/48 63/4/48 67/3/48 66/2/48
f 64/1/49 68/2/49 67/3/49 63/4/49
f 61/1/50 62/2/50 66/3/50 65/4/50

